<svg xmlns="http://www.w3.org/2000/svg" width="250" height="25.241" viewBox="0 0 250 25.241">
  <g id="Group_210" data-name="Group 210" transform="translate(-75 -81.851)">
    <g id="Group_207" data-name="Group 207" transform="translate(75 81.851)">
      <g id="Group_199" data-name="Group 199" transform="translate(55.701 3.198)">
        <g id="Group_198" data-name="Group 198">
          <g id="Group_195" data-name="Group 195">
            <path id="Path_42" data-name="Path 42" d="M383.035,99.122h-7.249v21.084h7.249c6.62,0,11.192-4.612,11.192-10.541V109.6C394.226,103.669,389.655,99.122,383.035,99.122Zm6.347,10.6a6,6,0,0,1-6.347,6.3h-2.616v-12.71h2.616a6.052,6.052,0,0,1,6.347,6.358Z" transform="translate(-375.786 -99.122)" fill="#fff"/>
          </g>
          <g id="Group_196" data-name="Group 196" transform="translate(20.77 0)">
            <path id="Path_43" data-name="Path 43" d="M503.737,99.122l-5.223,9.91-5.225-9.91h-5.347l8.671,15.768h3.8l4.065-7.367v12.683h4.6V99.122Z" transform="translate(-487.943 -99.122)" fill="#fff"/>
          </g>
          <g id="Group_197" data-name="Group 197" transform="translate(19.694 14.933)">
            <path id="Path_44" data-name="Path 44" d="M485.557,179.762a3.424,3.424,0,1,0,3.42,3.426A3.424,3.424,0,0,0,485.557,179.762Z" transform="translate(-482.133 -179.762)" fill="#fff"/>
          </g>
        </g>
      </g>
      <g id="Group_206" data-name="Group 206" transform="translate(0 0)">
        <g id="Group_200" data-name="Group 200" transform="translate(3.106)">
          <path id="Path_45" data-name="Path 45" d="M136.585,84.433a.366.366,0,0,0-.368-.366h-9.965V82.223a.368.368,0,1,0-.736,0v1.843H114.457a.365.365,0,0,0-.369.366v16.591c0,5.09-4.952,5.164-5.163,5.164H103.3v-3.87H111a.369.369,0,0,0,0-.739H103.3V98.758h7.257a.369.369,0,1,0,0-.738H103.3V95.2H111a.37.37,0,0,0,0-.741h-4.911l2.008-4.722H111A.368.368,0,1,0,111,89H103.3V85.542h7.257a.369.369,0,1,0,0-.739H103.3v-2.58a.368.368,0,1,0-.736,0V84.8H95.308a.369.369,0,1,0,0,.739h7.259V89h-7.7a.368.368,0,1,0,0,.736h2.9l2.01,4.722H94.869a.37.37,0,0,0,0,.741h7.7v2.822H95.308a.369.369,0,1,0,0,.739h7.259v2.822h-7.7a.366.366,0,0,0-.368.366.37.37,0,0,0,.368.372h7.7v3.87H92.144a.369.369,0,1,0,0,.739h16.781c.057,0,5.9-.067,5.9-5.9V84.8h21.391A.369.369,0,0,0,136.585,84.433Zm-38.011,5.3H107.3l-2.01,4.722h-4.706Z" transform="translate(-91.774 -81.851)" fill="#fff"/>
        </g>
        <g id="Group_201" data-name="Group 201" transform="translate(27.812 4.057)">
          <path id="Path_46" data-name="Path 46" d="M244.664,104.382a.366.366,0,0,0-.513-.1l-4.216,2.9v-3.052a.369.369,0,0,0-.739,0v2.926l-4.03-2.769a.375.375,0,0,0-.419,0l-4.03,2.769v-2.926a.369.369,0,0,0-.739,0v3.05l-4.213-2.893a.37.37,0,1,0-.417.61l4.256,2.921-4.256,2.921a.366.366,0,0,0-.1.511.37.37,0,0,0,.515.1l4.213-2.891v3.052a.369.369,0,0,0,.739,0V108.58l4.03,2.765a.352.352,0,0,0,.21.065.347.347,0,0,0,.21-.065l4.03-2.765v2.926a.369.369,0,0,0,.739,0v-3.052l4.216,2.891a.35.35,0,0,0,.209.065.371.371,0,0,0,.3-.161.367.367,0,0,0-.1-.511l-4.258-2.921,4.258-2.921A.37.37,0,0,0,244.664,104.382Zm-9.707,6.213-4.049-2.779,4.049-2.781,4.051,2.781Z" transform="translate(-225.186 -103.76)" fill="#fff"/>
        </g>
        <g id="Group_202" data-name="Group 202" transform="translate(27.447 12.622)">
          <path id="Path_47" data-name="Path 47" d="M243.5,157.424h-9.22v-2.342h8.482a.368.368,0,0,0,0-.736h-8.482v-2.71c4.49-.388,7.806-.879,7.861-.887a.37.37,0,0,0-.11-.732,137.834,137.834,0,0,1-17.582,1.349.37.37,0,0,0-.368.37.363.363,0,0,0,.368.364c3.115,0,6.3-.175,9.094-.4v2.649h-9.216a.368.368,0,0,0,0,.736h9.216v2.342h-9.955a.368.368,0,0,0-.369.368.372.372,0,0,0,.369.372h9.955v1.963a1.724,1.724,0,0,1-.4,1.172,1.482,1.482,0,0,1-1.245.428c-1.3-.053-3.841-.212-3.866-.216a.37.37,0,0,0-.047.739c.024,0,2.571.159,3.882.216h.15a2.129,2.129,0,0,0,1.666-.665,2.406,2.406,0,0,0,.594-1.672v-1.963h9.22a.37.37,0,0,0,0-.741Z" transform="translate(-223.216 -150.012)" fill="#fff"/>
        </g>
        <g id="Group_203" data-name="Group 203" transform="translate(0.266 1.509)">
          <path id="Path_48" data-name="Path 48" d="M79.87,93.851a.35.35,0,0,0,.252.106.373.373,0,0,0,.259-.11.366.366,0,0,0,0-.515l-3.326-3.227a.363.363,0,0,0-.513,0,.367.367,0,0,0,.006.515Z" transform="translate(-76.436 -90.001)" fill="#fff"/>
        </g>
        <g id="Group_204" data-name="Group 204" transform="translate(0 11.526)">
          <path id="Path_49" data-name="Path 49" d="M78.741,154.136v-9.684a.361.361,0,0,0-.362-.362H75.362a.362.362,0,1,0,0,.724h2.655V154l-2.653,3.206a.359.359,0,0,0,.047.509.354.354,0,0,0,.23.086.365.365,0,0,0,.279-.132l2.739-3.3A.365.365,0,0,0,78.741,154.136Z" transform="translate(-75 -144.09)" fill="#fff"/>
        </g>
        <g id="Group_205" data-name="Group 205" transform="translate(0.266 5.371)">
          <path id="Path_50" data-name="Path 50" d="M79.87,114.706a.362.362,0,1,0,.507-.517l-3.326-3.227a.361.361,0,1,0-.507.513Z" transform="translate(-76.436 -110.857)" fill="#fff"/>
        </g>
      </g>
    </g>
    <g id="Group_209" data-name="Group 209" transform="translate(182.298 95.34)">
      <g id="Group_208" data-name="Group 208">
        <path id="Path_51" data-name="Path 51" d="M661.632,160a6.592,6.592,0,0,1-.311,2.132,3.856,3.856,0,0,1-.911,1.509,3.748,3.748,0,0,1-1.471.9,6.391,6.391,0,0,1-2.075.3h-1.988a.519.519,0,0,1-.317-.114.482.482,0,0,1-.149-.4v-8.374a.476.476,0,0,1,.149-.4.514.514,0,0,1,.317-.11H657a5.865,5.865,0,0,1,2.061.314,3.733,3.733,0,0,1,1.412.907,3.839,3.839,0,0,1,.862,1.434A5.687,5.687,0,0,1,661.632,160Zm-1.314.053a5.069,5.069,0,0,0-.187-1.416,3.06,3.06,0,0,0-.592-1.139,2.775,2.775,0,0,0-1.019-.746,4.056,4.056,0,0,0-1.591-.269H655.66v7.308h1.284a4.448,4.448,0,0,0,1.516-.224,2.441,2.441,0,0,0,1.03-.69,3,3,0,0,0,.622-1.164A5.909,5.909,0,0,0,660.317,160.054Z" transform="translate(-654.409 -155.308)" fill="#fff"/>
        <path id="Path_52" data-name="Path 52" d="M725.39,159.417a7.272,7.272,0,0,1-.271,2.053,4.275,4.275,0,0,1-.8,1.556,3.52,3.52,0,0,1-1.339.989,4.753,4.753,0,0,1-1.88.344,4.849,4.849,0,0,1-1.833-.315,3.243,3.243,0,0,1-1.277-.918,3.917,3.917,0,0,1-.751-1.5,7.719,7.719,0,0,1-.248-2.055,7.107,7.107,0,0,1,.268-2.018,4.164,4.164,0,0,1,.808-1.542,3.528,3.528,0,0,1,1.343-.979,5.316,5.316,0,0,1,3.684-.033,3.289,3.289,0,0,1,1.284.909,3.894,3.894,0,0,1,.761,1.481A7.427,7.427,0,0,1,725.39,159.417Zm-1.322.085a7.207,7.207,0,0,0-.143-1.481,3.371,3.371,0,0,0-.47-1.192,2.266,2.266,0,0,0-.883-.789,2.968,2.968,0,0,0-1.359-.281,2.786,2.786,0,0,0-1.365.305,2.508,2.508,0,0,0-.9.814,3.393,3.393,0,0,0-.494,1.184,6.77,6.77,0,0,0-.146,1.426,7.733,7.733,0,0,0,.138,1.524,3.422,3.422,0,0,0,.464,1.2,2.184,2.184,0,0,0,.873.785,3.015,3.015,0,0,0,1.373.279,2.846,2.846,0,0,0,1.375-.3,2.486,2.486,0,0,0,.9-.824,3.454,3.454,0,0,0,.486-1.2A6.859,6.859,0,0,0,724.067,159.5Z" transform="translate(-705.4 -154.691)" fill="#fff"/>
        <path id="Path_53" data-name="Path 53" d="M787.769,155.985a1.974,1.974,0,0,1-.014.24.463.463,0,0,1-.049.161.244.244,0,0,1-.079.094.212.212,0,0,1-.106.029H784.88v8.142a.155.155,0,0,1-.031.1.18.18,0,0,1-.1.069,1.474,1.474,0,0,1-.194.045,2.1,2.1,0,0,1-.3.018,2.059,2.059,0,0,1-.3-.018,1.4,1.4,0,0,1-.2-.045.179.179,0,0,1-.1-.069.168.168,0,0,1-.028-.1v-8.142h-2.641a.22.22,0,0,1-.108-.029.234.234,0,0,1-.075-.094.658.658,0,0,1-.047-.161,1.36,1.36,0,0,1-.018-.24,1.417,1.417,0,0,1,.018-.244.765.765,0,0,1,.047-.169.185.185,0,0,1,.183-.122h6.531a.192.192,0,0,1,.106.029.206.206,0,0,1,.079.094.528.528,0,0,1,.049.169A2.142,2.142,0,0,1,787.769,155.985Z" transform="translate(-757.347 -155.309)" fill="#fff"/>
        <path id="Path_54" data-name="Path 54" d="M852.275,164.648a.183.183,0,0,1-.031.1.19.19,0,0,1-.106.069,1.562,1.562,0,0,1-.189.045,2.453,2.453,0,0,1-.6,0,1.259,1.259,0,0,1-.193-.045.184.184,0,0,1-.1-.069.18.18,0,0,1-.028-.1V156.47h-.014l-3.31,8.217a.252.252,0,0,1-.061.085.3.3,0,0,1-.116.061.817.817,0,0,1-.183.036c-.069.006-.152.012-.25.012a2.366,2.366,0,0,1-.26-.014,1.1,1.1,0,0,1-.183-.041.407.407,0,0,1-.112-.061.237.237,0,0,1-.053-.079l-3.165-8.217h-.008v8.179a.165.165,0,0,1-.029.1.2.2,0,0,1-.106.069,1.413,1.413,0,0,1-.193.045,2.115,2.115,0,0,1-.3.019,2.043,2.043,0,0,1-.3-.019,1.338,1.338,0,0,1-.189-.045.166.166,0,0,1-.1-.069.2.2,0,0,1-.029-.1v-8.637a.538.538,0,0,1,.163-.435.559.559,0,0,1,.362-.128h.767a1.771,1.771,0,0,1,.413.041.892.892,0,0,1,.309.138.763.763,0,0,1,.22.24,1.7,1.7,0,0,1,.157.342l2.686,6.8h.037l2.793-6.779a1.914,1.914,0,0,1,.177-.368.9.9,0,0,1,.209-.244.74.74,0,0,1,.256-.132,1.285,1.285,0,0,1,.324-.036h.8a.644.644,0,0,1,.21.031.416.416,0,0,1,.171.1.554.554,0,0,1,.114.173.687.687,0,0,1,.045.259v8.636Z" transform="translate(-807.31 -155.308)" fill="#fff"/>
        <path id="Path_55" data-name="Path 55" d="M932.3,159.417a7.429,7.429,0,0,1-.266,2.053,4.346,4.346,0,0,1-.806,1.556,3.509,3.509,0,0,1-1.337.989,4.755,4.755,0,0,1-1.882.344,4.853,4.853,0,0,1-1.833-.315,3.225,3.225,0,0,1-1.276-.918,3.919,3.919,0,0,1-.752-1.5,7.811,7.811,0,0,1-.244-2.055,7.109,7.109,0,0,1,.266-2.018,4.16,4.16,0,0,1,.806-1.542,3.55,3.55,0,0,1,1.343-.979,5.322,5.322,0,0,1,3.687-.033,3.262,3.262,0,0,1,1.282.909,3.874,3.874,0,0,1,.763,1.481A7.52,7.52,0,0,1,932.3,159.417Zm-1.32.085a7.355,7.355,0,0,0-.142-1.481,3.377,3.377,0,0,0-.472-1.192,2.276,2.276,0,0,0-.879-.789,2.986,2.986,0,0,0-1.363-.281,2.779,2.779,0,0,0-1.363.305,2.512,2.512,0,0,0-.9.814,3.362,3.362,0,0,0-.494,1.184,6.905,6.905,0,0,0-.146,1.426,7.879,7.879,0,0,0,.136,1.524,3.414,3.414,0,0,0,.464,1.2,2.185,2.185,0,0,0,.873.785,3.026,3.026,0,0,0,1.375.279,2.865,2.865,0,0,0,1.377-.3,2.523,2.523,0,0,0,.9-.824,3.484,3.484,0,0,0,.484-1.2A6.983,6.983,0,0,0,930.982,159.5Z" transform="translate(-873.999 -154.691)" fill="#fff"/>
        <path id="Path_56" data-name="Path 56" d="M1002.216,164.65a.227.227,0,0,1-.022.1.173.173,0,0,1-.094.075,1.013,1.013,0,0,1-.2.043c-.088.008-.2.014-.348.014a3.084,3.084,0,0,1-.309-.014.7.7,0,0,1-.193-.049.261.261,0,0,1-.112-.09.623.623,0,0,1-.067-.146l-.865-2.214c-.1-.25-.207-.482-.315-.691a2.259,2.259,0,0,0-.389-.545,1.556,1.556,0,0,0-.529-.354,1.86,1.86,0,0,0-.735-.128H997.2v4a.166.166,0,0,1-.033.1.2.2,0,0,1-.1.069,1.306,1.306,0,0,1-.189.044,2.081,2.081,0,0,1-.3.019,2.058,2.058,0,0,1-.3-.019,1.543,1.543,0,0,1-.193-.044.194.194,0,0,1-.1-.069.166.166,0,0,1-.029-.1v-8.694a.47.47,0,0,1,.149-.4.512.512,0,0,1,.315-.11h2c.236,0,.434.006.59.014s.3.026.425.041a3.72,3.72,0,0,1,.962.3,2.257,2.257,0,0,1,.7.519,2.065,2.065,0,0,1,.425.712,2.7,2.7,0,0,1,.141.891,2.651,2.651,0,0,1-.126.844,1.99,1.99,0,0,1-.368.659,2.415,2.415,0,0,1-.572.5,3.68,3.68,0,0,1-.749.356,1.615,1.615,0,0,1,.421.259,2.208,2.208,0,0,1,.354.372,3.731,3.731,0,0,1,.307.5c.1.187.193.4.291.639l.84,2.067c.069.173.112.295.132.366A.678.678,0,0,1,1002.216,164.65Zm-1.882-6.6a1.678,1.678,0,0,0-.244-.932,1.4,1.4,0,0,0-.828-.547,2.092,2.092,0,0,0-.409-.073c-.154-.014-.352-.02-.6-.02H997.2v3.162h1.219a2.66,2.66,0,0,0,.853-.118,1.672,1.672,0,0,0,.6-.333,1.313,1.313,0,0,0,.352-.505A1.772,1.772,0,0,0,1000.335,158.052Z" transform="translate(-932.703 -155.309)" fill="#fff"/>
        <path id="Path_57" data-name="Path 57" d="M1060.815,164.32a1.461,1.461,0,0,1-.016.23.508.508,0,0,1-.049.163.268.268,0,0,1-.085.1.208.208,0,0,1-.1.031h-4.507a.511.511,0,0,1-.317-.114.477.477,0,0,1-.151-.4v-8.374a.472.472,0,0,1,.151-.4.506.506,0,0,1,.317-.11h4.454a.2.2,0,0,1,.108.029.2.2,0,0,1,.075.094.771.771,0,0,1,.047.163,1.331,1.331,0,0,1,.019.242,1.253,1.253,0,0,1-.019.23.665.665,0,0,1-.047.159.228.228,0,0,1-.075.092.226.226,0,0,1-.108.028h-3.67v2.948h3.149a.186.186,0,0,1,.106.032.268.268,0,0,1,.08.089.542.542,0,0,1,.047.161,1.959,1.959,0,0,1,.015.238,1.744,1.744,0,0,1-.015.226.538.538,0,0,1-.047.153.226.226,0,0,1-.08.083.238.238,0,0,1-.106.025h-3.149V163.8h3.723a.189.189,0,0,1,.1.031.265.265,0,0,1,.085.089.48.48,0,0,1,.049.159A1.627,1.627,0,0,1,1060.815,164.32Z" transform="translate(-981.294 -155.308)" fill="#fff"/>
        <path id="Path_58" data-name="Path 58" d="M1155.252,164.648a.181.181,0,0,1-.029.1.2.2,0,0,1-.108.069,1.484,1.484,0,0,1-.191.045,2,2,0,0,1-.3.018,2.07,2.07,0,0,1-.3-.018,1.166,1.166,0,0,1-.191-.045.2.2,0,0,1-.106-.069.2.2,0,0,1-.029-.1V156.47h-.014l-3.31,8.217a.283.283,0,0,1-.061.085.3.3,0,0,1-.118.061.758.758,0,0,1-.179.036c-.069.006-.153.012-.25.012a2.379,2.379,0,0,1-.262-.014,1.069,1.069,0,0,1-.181-.041.382.382,0,0,1-.112-.061.245.245,0,0,1-.055-.079l-3.166-8.217h-.006v8.179a.169.169,0,0,1-.03.1.189.189,0,0,1-.106.069,1.406,1.406,0,0,1-.193.045,2.129,2.129,0,0,1-.305.019,2.014,2.014,0,0,1-.3-.019,1.266,1.266,0,0,1-.189-.045.172.172,0,0,1-.1-.069.2.2,0,0,1-.027-.1v-8.637a.531.531,0,0,1,.163-.435.553.553,0,0,1,.362-.128h.765a1.769,1.769,0,0,1,.413.041.879.879,0,0,1,.309.138.757.757,0,0,1,.22.24,1.7,1.7,0,0,1,.156.342l2.686,6.8h.037l2.8-6.779a1.958,1.958,0,0,1,.177-.368.867.867,0,0,1,.21-.244.726.726,0,0,1,.254-.132,1.3,1.3,0,0,1,.323-.036h.8a.643.643,0,0,1,.209.031.414.414,0,0,1,.171.1.523.523,0,0,1,.116.173.691.691,0,0,1,.043.259v8.636Z" transform="translate(-1054.182 -155.308)" fill="#fff"/>
        <path id="Path_59" data-name="Path 59" d="M1234.958,164.32a1.49,1.49,0,0,1-.014.23.469.469,0,0,1-.051.163.276.276,0,0,1-.082.1.213.213,0,0,1-.108.031h-4.5a.5.5,0,0,1-.315-.114.471.471,0,0,1-.151-.4v-8.374a.466.466,0,0,1,.151-.4.5.5,0,0,1,.315-.11h4.454a.2.2,0,0,1,.108.029.2.2,0,0,1,.075.094.8.8,0,0,1,.047.163,1.337,1.337,0,0,1,.02.242,1.275,1.275,0,0,1-.02.23.676.676,0,0,1-.047.159.232.232,0,0,1-.075.092.228.228,0,0,1-.108.028h-3.67v2.948h3.148a.192.192,0,0,1,.108.032.268.268,0,0,1,.079.089.523.523,0,0,1,.047.161,1.6,1.6,0,0,1,.014.238,1.428,1.428,0,0,1-.014.226.519.519,0,0,1-.047.153.225.225,0,0,1-.079.083.247.247,0,0,1-.108.025h-3.148V163.8h3.721a.2.2,0,0,1,.108.031.274.274,0,0,1,.082.089.446.446,0,0,1,.051.159A1.7,1.7,0,0,1,1234.958,164.32Z" transform="translate(-1123.192 -155.308)" fill="#fff"/>
        <path id="Path_60" data-name="Path 60" d="M1292.2,160a6.536,6.536,0,0,1-.311,2.132,3.876,3.876,0,0,1-.909,1.509,3.779,3.779,0,0,1-1.471.9,6.419,6.419,0,0,1-2.075.3h-1.992a.512.512,0,0,1-.313-.114.471.471,0,0,1-.15-.4v-8.374a.465.465,0,0,1,.15-.4.507.507,0,0,1,.313-.11h2.128a5.867,5.867,0,0,1,2.061.314,3.732,3.732,0,0,1,1.412.907,3.875,3.875,0,0,1,.865,1.434A5.761,5.761,0,0,1,1292.2,160Zm-1.312.053a4.985,4.985,0,0,0-.191-1.416,3.025,3.025,0,0,0-.59-1.139,2.786,2.786,0,0,0-1.017-.746,4.071,4.071,0,0,0-1.591-.269h-1.27v7.308h1.284a4.461,4.461,0,0,0,1.518-.224,2.493,2.493,0,0,0,1.03-.69,3,3,0,0,0,.621-1.164A5.9,5.9,0,0,0,1290.884,160.054Z" transform="translate(-1168.203 -155.308)" fill="#fff"/>
        <path id="Path_61" data-name="Path 61" d="M1351.668,164.452a.185.185,0,0,1-.028.1.187.187,0,0,1-.1.069,1.565,1.565,0,0,1-.193.045,2.113,2.113,0,0,1-.3.018,2.077,2.077,0,0,1-.3-.018,1.391,1.391,0,0,1-.2-.045.178.178,0,0,1-.1-.069.168.168,0,0,1-.031-.1v-9.015a.17.17,0,0,1,.033-.1.246.246,0,0,1,.108-.071c.051-.014.116-.028.2-.042a1.971,1.971,0,0,1,.284-.016,2.093,2.093,0,0,1,.3.016c.079.014.142.028.193.042a.214.214,0,0,1,.1.071.186.186,0,0,1,.028.1v9.015Z" transform="translate(-1221.528 -155.111)" fill="#fff"/>
        <path id="Path_62" data-name="Path 62" d="M1389.369,164.2a.764.764,0,0,1,.061.258.166.166,0,0,1-.051.146.357.357,0,0,1-.193.067c-.091.008-.21.014-.36.014s-.269-.006-.36-.012a.8.8,0,0,1-.2-.036.231.231,0,0,1-.1-.067.557.557,0,0,1-.059-.112l-.807-2.285h-3.9l-.769,2.256a.5.5,0,0,1-.059.114.29.29,0,0,1-.106.079.648.648,0,0,1-.2.049c-.083.008-.193.014-.33.014a2.6,2.6,0,0,1-.344-.018.357.357,0,0,1-.187-.069.179.179,0,0,1-.053-.149.963.963,0,0,1,.061-.26l3.149-8.722a.424.424,0,0,1,.077-.13.3.3,0,0,1,.136-.079.952.952,0,0,1,.234-.041c.094-.008.214-.01.36-.01s.282,0,.384.01a1.018,1.018,0,0,1,.246.041.314.314,0,0,1,.146.081.5.5,0,0,1,.08.134Zm-4.04-7.7h-.008l-1.62,4.679h3.267Z" transform="translate(-1246.729 -155.112)" fill="#fff"/>
      </g>
    </g>
  </g>
</svg>
