<svg xmlns="http://www.w3.org/2000/svg" viewBox="0 0 150 150"><path fill-rule="evenodd" clip-rule="evenodd" fill="#333" d="M29.7 73.6v14h2v-14h4.8v-.9H24.9v.9h4.8zm17.6-2.7V70h-8.8v.9h8.8zm-8.7 16.7h8.8v-.9h-6.9V80h6.2v-1h-6.2v-5.5h6.7v-.9h-8.7v15h.1zm11.6 0H59v-.9h-6.9V80h6.3v-1h-6.3v-5.5h6.8v-.9h-8.8v15h.1zm-46.6 0h8.8v-.9H5.6V80h6.2v-1H5.6v-5.5h6.8v-.9H3.6v15zm119.5 0h8.8v-.9H125V80h6.2v-1H125v-5.5h6.8v-.9h-8.7v15zm-55.3 0h8.8v-1h-6.8V72.7h-1.9v14.9h-.1zm-53.5-.7c1.3.7 2.8 1 4.3 1 3.1 0 5.9-1.8 5.9-4.8 0-5.1-8.5-3.4-8.5-7.3 0-1.4 1.4-2.7 3.4-2.7 2.1 0 3.4 1.1 4 1.5v-1.4c-.8-.4-2.3-1-4.1-1-2.6 0-5 1.6-5 4.1 0 5.3 8.4 3.4 8.4 7.4 0 1.6-1.5 3.3-4.1 3.3-2 0-3.6-1-4.3-1.5v1.4zm63 .7l6.3-15.1h1.6l2.5 5.8 4 9.3h-2.2L87 81.9h-6l-2.3 5.7h-1.4zm9.4-6.6c-.7-1.6-1.7-4.1-2.7-6.6-1 2.6-2.3 5.9-2.7 6.6h5.4zm5.9 1.6c0 3.3 2 5.3 6 5.3 4.3 0 6-2.5 6-5.2v-10h-1.2v10.1c0 2.7-1.8 4.3-4.6 4.3-2.4 0-4.2-1.3-4.2-4.1V72.7h-1.9v9.9h-.1zm42.2-9.9h5.4c2.8-.1 5.2 1.1 5.2 3.8 0 2.7-3.1 3.6-3.8 3.7l4.9 7.4h-2.2l-4.6-7.1h-2.9v7.1h-2V72.7zm4.3 6.9c2.5 0 4.3-.9 4.3-3.1 0-2-1.2-3-3.4-3h-3.3v6.1h2.4zm-31.6 8V72.7h5.7c4.7-.1 7.5 2.6 7.5 7.3 0 5.5-3.8 7.7-8.3 7.6h-4.9zm2-.9h2.6c4.1.1 6.6-1.7 6.6-6.5 0-4.4-2.1-6.7-5.8-6.6h-3.5v13.1h.1z"/></svg>