<svg xmlns="http://www.w3.org/2000/svg" viewBox="0 0 150 150"><g fill="#333"><path d="M38.9 83.4c0 .9.7 1.6 1.6 1.6s1.6-.6 1.6-1.6c0-.9-.7-1.6-1.6-1.6-.9 0-1.6.6-1.6 1.6zm2.8 0c0 .6-.5 1.1-1.1 1.1-.7 0-1.1-.5-1.1-1.1 0-.6.5-1.1 1.1-1.1.6-.1 1.1.4 1.1 1.1zm7.7-21l-.9 13.8h8l11.8-31.4h-7.5l-5.2 14.1.9-14.1h-7.9L36.8 76.2h7.4zm15.5 13.8l11.8-31.4h-7.5L57.5 76.2z"/><path d="M136.1 63.6c-.2 0-15.4 4.2-33.1 9l.9-2.4h-8.7l2.8-7.6h7.1l2.2-5.9h-7.1l2.4-6.6h7.5l2-5.2H89.6l-7.8 9.4 3.6-9.4h-7.5L66.2 76.2h7.4l5-13.1.3 13.1h10.7c-20.2 5.5-39.4 10.7-39.4 10.7-10.8 3-23.2-3.6-14.3-21.5-10.4 12.2-20.2 28.4-11.5 35.8 8.4 7.2 18.8 2.9 26 .1 7.1-2.9 86-37.1 86-37.1.8-.3.6-.8-.3-.6zm-50.3-5.8L97 45.5 86.3 74.2l-.5-16.4z"/><path d="M39.8 82.5v1.7h.4v-.7h.1l.4.7h.5l-.4-.7c.2 0 .4-.1.4-.4 0-.4-.3-.5-.7-.5h-.7zm1 .5c0 .2-.1.2-.2.2h-.2v-.4h.2s.2 0 .2.2zm74.3-35.1c.9 0 1.6-.6 1.6-1.6 0-.9-.7-1.6-1.6-1.6-.9 0-1.6.6-1.6 1.6s.7 1.6 1.6 1.6zm0-2.7c.7 0 1.1.5 1.1 1.1 0 .6-.5 1.1-1.1 1.1-.7 0-1.1-.5-1.1-1.1 0-.6.5-1.1 1.1-1.1z"/><path d="M114.9 46.5l.5.7h.5l-.4-.7c.2 0 .4-.1.4-.4 0-.4-.3-.5-.7-.5h-.6v1.7h.4v-.8zm0-.7h.2c.1 0 .3 0 .3.2s-.1.2-.2.2h-.2v-.4z"/></g></svg>