<svg xmlns="http://www.w3.org/2000/svg" viewBox="0 0 150 150"><path d="M56.9 107h-8.5V87.2h-8.1c0 .4-.1.7-.1 1.1V106c0 .9-.2 1.1-1.1 1.1-2.2-.1-4.4 0-6.6 0-.6 0-.8-.2-.8-.8v-23c0-2.6 1.8-4.4 4.4-4.6h32.1c1.3 0 2.6.2 3.6 1.1 1.2 1 1.6 2.3 1.6 3.8v22.7c0 .3 0 .5-.1.8h-8.4V87.2h-7.1c-.8 0-1.1.2-1 1 .1 1.4 0 2.8 0 4.3v13.4c.1.2.1.6.1 1.1zM65 71.4V51.5h-8.1c0 .4-.1.8-.1 1.1v17.6c0 1.2 0 1.2-1.2 1.2h-6.4c-.7 0-.9-.2-.9-.9V51.6h-8.1c0 .4-.1.8-.1 1.2v17.6c0 .9-.2 1.2-1.1 1.2-2.2-.1-4.4 0-6.6 0-.6 0-.8-.2-.8-.8V47.6c0-2.6 2-4.5 4.6-4.5h32.6c2.5 0 4.3 1.6 4.5 4.1 0 .4.1.7.1 1.1v22c0 1.2 0 1.2-1.2 1.2H66c-.2-.1-.5-.1-1-.1zM98.3 43c5 0 10.1.1 15.1 0 2.8-.1 4.9 2 4.9 4.9v18.6c0 3.1-2.2 5-5 5-10.1-.1-20.2-.1-30.2 0-2.8 0-5-2.1-4.9-4.9.1-6.2 0-12.5 0-18.7 0-3 1.8-4.8 4.8-4.8 5.1-.1 10.2-.1 15.3-.1zm-.1 7.2h-9.5c-1.5 0-2.4.9-2.4 2.4v9.1c0 1.6.9 2.5 2.5 2.5h18.9c1.7 0 2.6-.9 2.6-2.6v-8.9c0-1.8-.8-2.6-2.6-2.6-3.2 0-6.3.1-9.5.1zm0 56.8H82.9c-2.8 0-4.7-1.8-4.7-4.6V83.3c0-2.8 1.7-4.5 4.5-4.7H113c1.2 0 2.3.1 3.3.8 1.3.9 2 2.2 2 3.8v19.2c0 2.8-2 4.6-4.7 4.6H98.2zm-4.7-9.9c.1 3.6 2.5 5 5.5 5.6 1.3.3 2.7.3 4 .2 4.1-.3 6.9-2.7 7.6-6.6.6-3.1-.2-5.8-2.1-8.2-2.3-3-5.5-4.5-9.2-5.2-.8-.2-1.6-.4-2.4-.2-3.5.7-6.5 2.2-8.9 4.8-5.2 5.7-2.3 12.8 3.4 15.4-.7-2.9 0-4.9 2.1-5.8z" fill-rule="evenodd" clip-rule="evenodd" fill="#333"/></svg>