<svg xmlns="http://www.w3.org/2000/svg" viewBox="0 0 150 150"><path fill-rule="evenodd" clip-rule="evenodd" fill="#333" d="M19.8 57.4l-2.3-.1-.9-.2-.2-.4c0-.3.2-.5.7-.5h23.5c11 0 18.8 3.4 23.3 10.1 2.6 3.9 3.9 8.5 3.9 13.9 0 2.8-.4 5.5-1.3 8.1-1 2.7-2.3 5.2-4.1 7.3-1.9 2.3-4.3 4-7 5.3-2.9 1.3-6.1 2-9.8 2h-30c-.5 0-.7-.2-.7-.4 0-.3.4-.5 1-.5l5.7-.4c.9-.1 1.5-.4 1.8-.7l.6-.8c.2-.6.3-1.4.4-2.6V60.4c0-1.5-.8-2.3-2.4-2.7l-2.2-.3zm12.7.7l-.2.9v41.3c0 .5.1.8.3.9l.9.1h3.1l7.2-.3c1.9-.2 3.6-.5 4.9-.9 1.3-.5 2.5-1.1 3.6-2 .9-.8 1.9-1.9 3-3.3 1.8-2.3 3-5.2 3.8-8.8.5-2.3.7-4.6.7-6.8 0-1.9-.3-4-.9-6.2-.8-3.2-2.1-6-3.8-8.4-3.4-4.6-9-6.9-16.7-6.9h-4.8c-.6 0-.9.1-1.1.4zm39.9 44.5c0-.3.2-.4.7-.4h1.6c.9-.1 1.4-.4 1.6-.9l.3-1.7V85.9c0-.5-.2-.9-.5-1.1l-1.2-.1-1.6.4h-.9c-.1-.3.2-.5 1.1-.8 1.9-.5 3.7-1.2 5.1-2 .9-.5 1.5-.8 1.8-.9l.7-.1c.2 0 .4.5.4 1.4v17.2c0 .8.2 1.4.5 1.8.4.4 1.4.6 2.9.6.5 0 .8.1.9.4 0 .2-.2.3-.4.3H72.8c-.3-.1-.4-.2-.4-.4zm55.3-16.9c-1.1 1.2-1.9 2.6-2.3 4.3v10c0 .9.3 1.5.9 1.9l1.4.3 1.5.2c.4 0 .5.1.5.3l-.1.2-.4.1h-12.5c-.4 0-.6-.1-.6-.3l.4-.3 2.1-.2c.8-.1 1.3-.4 1.6-.8l.4-1.1V86.2l-.2-1-.4-.2c-.1-.1-.3-.2-.6-.2-.4 0-.8 0-1.2.2l-1.2.3-.7-.2c-.1-.2-.1-.3.1-.4l1-.4c2.3-.7 4.1-1.4 5.4-2.1l1.6-.9h.7l.3.6v5.2c1.8-2.9 3.2-4.6 4.1-5.2.6-.4 1.1-.6 1.6-.7l.8-.1c.5 0 1.1.1 1.8.5.9.5 1.4 1.3 1.4 2.3 0 .8-.2 1.5-.7 1.9-.5.4-.9.5-1.4.4-.4-.1-.7-.2-.9-.5l-.7-.8c-.5-.8-1-1-1.6-.8-.7.3-1.4.8-2.1 1.6zm-49-19.3c-.9 0-1.6.3-2.2.9-.6.6-.9 1.3-.9 2.2 0 .8.3 1.5.9 2.1.6.6 1.3.9 2.2.9.8 0 1.5-.3 2.1-.9.6-.6.9-1.3.9-2.1 0-.9-.3-1.6-.9-2.2-.5-.5-1.3-.9-2.1-.9zm12.4 18.8c.8-1.1 1.9-2.1 3.2-2.8 1.1-.7 2.3-1.1 3.4-1.3l4.3-.3c1.6.1 3 .4 4.3 1 3.2 1.4 5.2 4 5.9 7.7.8 3.8.1 7-1.9 9.6-1.8 2.2-4.1 3.6-7 4.2-3.1.7-5.9.5-8.5-.6-3.4-1.4-5.4-4.1-6-8-.6-3.7.2-6.9 2.3-9.5zm13.8-1.1c-1.4-1.6-3.2-2.3-5.4-2.1-2.1.2-3.7 1.4-4.8 3.6-1 2-1.3 4.5-1 7.4.3 2.9 1.2 5.2 2.6 6.9 1.6 1.9 3.4 2.6 5.3 2.3 2.1-.4 3.6-1.5 4.6-3.4 1-1.9 1.3-4.4 1.1-7.6-.2-3.1-1-5.5-2.4-7.1z"/></svg>