<svg xmlns="http://www.w3.org/2000/svg" viewBox="0 0 150 150"><path d="M140.7 89.3c-1.8-.1-3.7-.2-5.5-.4-9.1-.6-18.2-.9-27.4-.6-5.8.2-11.5.5-17.2.9-9.3.8-18.6 1.9-27.8 3.6-12.1 2.2-24.1 4.7-35.9 8.2-2.7.8-3.4.4-4.8-2.1-.4-.8-.9-1.7-1.2-2.6-.3-.8-.7-.9-1.4-.5-1.3.7-2.5 1.3-3.8 2-.7.4-1.2.5-1.4-.6-.6-4.2-2.3-7.7-5.5-10.5-.5-.5-.5-.8.2-1 3-.9 6-1.7 9.1-2.1 1.1-.2 2 .2 2.7 1.2.3.4.5.7.8 1.1 1.5 2.4 1.5 2.5 4.3 1.9 8.2-1.5 16.4-2.8 24.7-3.8 7.1-.9 14.3-1.7 21.5-2 7.8-.4 15.6-.3 23.3-.2 10.2.2 20.3.7 30.4 1.8 2.6.3 5.2.8 7.7 1.1 3 .3 4.9 2.6 7.4 3.9-.1.4-.1.6-.2.7zm-83.6-9.4c-7.5.5-15.1 1-22.8 1.6V59.8h-3.1c2.1-3.4 4.1-6.6 6.2-9.8h3.9c-.5.9-1 1.8-1.6 2.9h17.5c-.1 9-.1 18-.1 27zM38.7 67.6V77c4.7-.3 9.4-.6 14.1-.8v-8.5c-4.8-.1-9.4-.1-14.1-.1zm0-11.3v8.6h14v-8.6h-14zm80.1 7.3v2.3H111c.2 4.7 3.4 9 7.2 10v2.8h-5.1c-.4 0-.9-.4-1.2-.7-2.7-3.1-4.2-6.9-5.1-10.9-.2-.9-.5-1.2-1.4-1.1-2 .1-4 0-6.2 0 0 2.8 0 5.4.1 7.9 0 .3.8.8 1.2.7 1.8-.2 3.6-.6 5.5-1 0 .9.1 2 0 3.1 0 .3-.6.8-1 .9-3.2 1.2-6.6 1.1-10 1V56.1c-.7-.1-1.2-.2-1.8-.3v-3.7c8.7.6 17.3.9 25.9-1.2v3.7c-3 .4-6.1.8-9.5 1.3.2 2.4.4 4.8.7 7.2 0 .3.7.6 1 .6 2.4 0 4.9-.1 7.5-.1zm-12.8-.1c-.2-2.6-.4-5.1-.6-7.5h-6.3v7.5h6.9zM62.5 79.4V56.3h12.2v8.5h-7.9v14.3c-1.4.1-2.8.2-4.3.3zM70.7 60v-2.1h-3.9V60h3.9zm0 3.3v-2.1h-3.9v2.1h3.9zm17.9-7v21.8h-4.2V64.8h-7.9v-8.5h12.1zM80.5 60h4v-2h-4v2zm0 1.2v2.1h4v-2.1h-4z"/><path d="M68.9 67.9v-1.4c1 0 1.9.1 2.9 0 .8-.1 2 .6 2.2-.9h3.2c.6 1.6 2 .6 3 .8.7.1 1.3 0 2.1 0 0 .4.1.9.1 1.4h-3.9c-1.1 0-1.1 0-1 1.3h4.8v5.5c-.5 0-.9.1-1.6.1.8 1.2 1.5 2.2 2.2 3.4-1 0-2.4.4-2.9-.1-1-1-1.7-2.5-2.4-3.8-.1-.2.1-.7.3-1 .4-.9.8-1.9 1.3-2.9h-1.8v7.9h-3.5v-3.5c0-1 0-2.1.1-3.1.1-1.3-.5-1.6-1.8-1.2.4.9.7 1.7 1 2.5.2.5.5 1.2.3 1.5-.7 1.3-1.4 2.7-2.4 3.8-.4.4-1.7 0-2.7-.1.4-.6.8-1.1 1.1-1.6.3-.5.6-1.1 1-1.7-.6-.1-1.1-.1-1.6-.2v-5.4h4.8c.3-.9.1-1.4-.9-1.4-1.3.2-2.5.1-3.9.1zm3.3 5.6c-.4-1.1-.8-2-1.2-3-.1 0-.1 0-.2.1v2.9h1.4zm6.8 0h1.4v-2.8h-.2c-.4.9-.7 1.8-1.2 2.8zM61.7 54.3V52h6.8c-.4-.7-.7-1.4-1.1-2.2 1.2-.1 2.3-.2 3.4-.1.3 0 .8.5.9.8.5 1.5 1.5 2 3 1.7.4-.1.7-.1 1.1 0 1.7.2 3-.1 3.5-2 .1-.3.6-.5.9-.6 1.1-.1 2.1 0 3.4 0-.4.8-.8 1.6-1.2 2.3h6.8v2.2c-9.1.2-18.3.2-27.5.2zm63-3.3c1.4 0 2.5 1.1 2.5 2.5s-1.1 2.5-2.5 2.5-2.5-1.1-2.5-2.5 1.1-2.5 2.5-2.5m0-.3c-1.5 0-2.7 1.2-2.7 2.7 0 1.5 1.2 2.7 2.7 2.7s2.7-1.2 2.7-2.7c0-1.4-1.2-2.7-2.7-2.7z"/><path d="M123.6 51.8h.3v3.5h-.3v-3.5zm.2 1.7h1.2c.1 0 .2 0 .3-.1.1-.1.2-.1.2-.2.1-.1.1-.2.1-.4 0-.1 0-.3-.1-.4-.1-.1-.1-.2-.2-.2-.1-.1-.2-.1-.3-.1h-1.2v-.3h1.2c.2 0 .4 0 .5.1.2.1.3.2.4.4.1.2.1.3.1.5s0 .4-.1.5c-.1.2-.2.3-.4.4-.2.1-.3.1-.5.1h-1.2v-.3zm1.1.2l.3-.1.9 1.7h-.4l-.8-1.6z"/></svg>