<svg xmlns="http://www.w3.org/2000/svg" viewBox="0 0 150 150"><path fill-rule="evenodd" clip-rule="evenodd" fill="#333" d="M125 54.2h-24.8c-.3 0-.5.2-.5.5v.4c0 .3.2.5.5.5 2.4 0 3.6 1.1 3.6 3.3v32.2c0 1.3-.2 2.2-.8 2.6-.5.4-1.4.6-2.8.7-.3 0-.5.2-.5.4v.7c0 .3.2.5.5.5H125c.4 0 .6-.2.6-.5v-.7c0-.3-.2-.4-.6-.4-1.4 0-2.3-.3-2.8-.7-.6-.5-.8-1.3-.8-2.6V58.9c0-1.4.3-2.4.8-2.8.4-.4 1.3-.5 2.8-.6.4 0 .6-.2.6-.5v-.4c0-.2-.2-.4-.6-.4zm-35.2 1.4l.1-.6c0-.5-.2-.7-.6-.7H78.5c-.5 0-.7.2-.7.8 0 .6.3.8.7.8h1.3c1 0 1.6.3 1.6 1 0 .3-.1.6-.4 1-1.2 1.6-2.1 2.8-2.8 3.4L65.8 75.1c-.6.6-1 .5-1-.3V58.5c0-1.9 1.1-2.8 3.2-2.8l.8-.1c.2-.1.2-.3.2-.7 0-.5-.2-.7-.6-.7H55.9c-.6 0-1 .3-1 .8s.3.8.8.8c2.2 0 3.4.9 3.4 2.7v33.2c0 1.8-1.1 2.7-3.4 2.7-.5 0-.8.2-.8.8l.2.7.8.1h12.6c.4 0 .6-.3.6-.7 0-.4-.1-.6-.2-.7l-.8-.1c-2.1 0-3.2-.9-3.2-2.8V80.6c0-1 .2-1.7.5-2l2.9-3.2c.4-.5.9-.4 1.2.1L80 91.6c.2.5.4.9.4 1.3 0 .6-.2 1-.7 1.2l-1.9.2c-.5 0-.8.3-.8.8s.3.8.8.8h14.1c.3 0 .5-.2.5-.8 0-.6-.2-.9-.8-.9-2.3-.1-4-1-5.1-2.8L73.4 71.3c-.3-.4-.4-.7-.4-1l.6-.8L83.9 58c1.3-1.4 3-2.2 5.3-2.4h.6zM82.9 76h14.6c.3 0 .5-.2.5-.5v-.7c0-.3-.2-.5-.5-.5H82.9c-.3 0-.5.2-.5.5v.7c0 .3.1.5.5.5zm32.9-18.1v34.5c0 .6-.2 1.2-.7 1.6-.5.4-1 .7-1.6.7h-1.7c-.6 0-1.2-.2-1.7-.7-.5-.4-.7-1-.7-1.6V57.9c0-.6.2-1.2.7-1.7.5-.5 1-.7 1.7-.7h1.7c.6 0 1.2.2 1.6.7.4.5.7 1.1.7 1.7zm-74.1-3.8c1.4.5 2.5.9 3.2 1.3 2.2 1.3 3.7 1.1 4.5-.7.2-.3.4-.5.8-.5.6 0 .9.2.9.8v10.7c0 .5-.3.7-.8.7l-.7-.1c-.1-.1-.2-.2-.3-.5-.6-3.5-2.2-6.3-4.9-8.2-2.1-1.5-4.4-2.2-6.8-2.2-2.6 0-4.6.8-6 2.4-1.2 1.4-1.8 3-1.8 5 0 2.1.9 3.9 2.5 5.3 1.3 1.1 3.7 2.2 6.9 3.5 4.9 1.8 8.3 3.5 10.2 4.9 2.7 2.2 4.1 5 4.1 8.5s-1.1 6.3-3.3 8.4c-2.3 2.2-5.5 3.3-9.5 3.3-3 0-6.5-.8-10.5-2.4-1-.4-1.8-.6-2.4-.5-.7.1-1.2.6-1.7 1.5l-.2.7h-.6c-.5 0-.8-.2-.8-.6V83.5c0-.4.3-.6.9-.6.5 0 .8.2.8.6.6 2.6 1.7 5 3.7 7 2.5 2.7 5.7 4 9.5 4 2.9 0 5-.8 6.5-2.4 1.2-1.3 1.8-3 1.8-5 0-2.6-1-4.7-3.2-6.4-1.2-1-3.4-2-6.4-3.1l-3.3-1.2c-1.7-.7-3.1-1.4-4.3-2.2-3.6-2.3-5.3-5.5-5.3-9.4 0-3.4 1.1-6.3 3.4-8.5 2.2-2.2 5-3.3 8.5-3.3 1.2.3 2.8.6 4.6 1.1z"/></svg>