<svg xmlns="http://www.w3.org/2000/svg" viewBox="0 0 150 150"><path d="M3.8 87.2v-16h2.7c.8 0 1.3.1 1.7.3.4.3.6.8.6 1.5v4.1c0 .6-.1 1-.4 1.3-.2.3-.7.4-1.2.4 1.1 0 1.7.5 1.7 1.5v5c0 .7-.2 1.2-.6 1.5-.3.2-.9.3-1.7.3H3.8zm1.5-8.9h1c.7 0 1.1-.4 1.1-1.2v-3.6c0-.7-.4-1.1-1.2-1.1h-.9v5.9zm0 7.7h.9c.8 0 1.2-.4 1.2-1.1v-4.4c0-.6-.4-1-1.2-1h-1V86zM18 84.6V73.7c0-1.8.9-2.7 2.6-2.7 1.7 0 2.6.9 2.6 2.7v10.9c0 1.8-.9 2.7-2.6 2.7-1.7 0-2.6-.9-2.6-2.7zm1.5-10.8v10.8c0 1 .4 1.5 1.1 1.5.7 0 1.1-.5 1.1-1.5V73.8c0-1-.4-1.5-1.1-1.5-.7 0-1.1.5-1.1 1.5zm12.9 13.4v-16h2.7c.8 0 1.3.1 1.7.3.4.3.6.8.6 1.5v4.1c0 .6-.1 1-.4 1.3-.2.3-.7.4-1.2.4 1.1 0 1.7.5 1.7 1.5v5c0 .7-.2 1.2-.6 1.5-.3.2-.9.3-1.7.3h-2.8zm1.4-8.9h1c.7 0 1.1-.4 1.1-1.2v-3.6c0-.7-.4-1.1-1.2-1.1h-.8v5.9zm0 7.7h.9c.8 0 1.2-.4 1.2-1.1v-4.4c0-.6-.4-1-1.2-1h-1V86zm12.8 1.2v-16h2.7c.8 0 1.3.1 1.7.3.4.3.6.8.6 1.5v4.1c0 .6-.1 1-.4 1.3-.2.3-.7.4-1.2.4 1.1 0 1.7.5 1.7 1.5v5c0 .7-.2 1.2-.6 1.5-.3.2-.9.3-1.7.3h-2.8zm1.5-8.9h1c.7 0 1.1-.4 1.1-1.2v-3.6c0-.7-.4-1.1-1.2-1.1h-.8v5.9zm0 7.7h.9c.8 0 1.2-.4 1.2-1.1v-4.4c0-.6-.4-1-1.2-1h-1V86zm12.8 1.2v-16h1.5v16h-1.5zm20.6 0v-16h2.7c.8 0 1.3.1 1.7.3.4.3.6.8.6 1.5v4.1c0 .6-.1 1-.4 1.3-.2.3-.7.4-1.2.4 1.1 0 1.7.5 1.7 1.5v5c0 .7-.2 1.2-.6 1.5-.3.2-.9.3-1.7.3h-2.8zm1.4-8.9h1c.7 0 1.1-.4 1.1-1.2v-3.6c0-.7-.4-1.1-1.2-1.1H83v5.9zm0 7.7h.9c.8 0 1.2-.4 1.2-1.1v-4.4c0-.6-.4-1-1.2-1h-1V86zm16.4 1.2v-6.7c0-.6-.4-1-1.2-1h-1v7.7h-1.5v-16h2.7c.8 0 1.3.1 1.7.3.4.3.6.8.6 1.5v4.1c0 .6-.1 1-.4 1.3-.2.3-.7.4-1.2.4 1.1.1 1.7.6 1.7 1.5v6.9h-1.4zm-2.1-8.9h1c.7 0 1.1-.4 1.1-1.2v-3.6c0-.7-.4-1.1-1.2-1.1h-.8v5.9zm12.8 6.3V73.7c0-1.8.9-2.7 2.6-2.7 1.7 0 2.6.9 2.6 2.7v10.9c0 1.8-.9 2.7-2.6 2.7-1.8 0-2.6-.9-2.6-2.7zm1.4-10.8v10.8c0 1 .4 1.5 1.1 1.5.7 0 1.1-.5 1.1-1.5V73.8c0-1-.4-1.5-1.1-1.5-.7 0-1.1.5-1.1 1.5zm18.9 11.7l1.1-14.3h1.4l-1.6 16h-1.9l-1.1-14.3-1.1 14.3H125l-1.6-16h1.4l1.2 14.3 1.1-14.3h1.8l1.4 14.3zm14.6-14.3h1.3v16h-2.1l-1.9-14.3v14.3h-1.3v-16h2.2l1.8 13.7V71.2z" fill="#333"/></svg>