<svg xmlns="http://www.w3.org/2000/svg" viewBox="0 0 150 150"><path fill="#585858" d="M49.6 40.9h1.7c-.2.1-.5.1-.7.2 0 .2-.1.3-.1.5-1.4 0-2.8.1-4.2.3 0-.3.1-.5.1-.8 1.1-.1 2.1-.1 3.2-.2z"/><path fill="#868686" d="M50.6 41.1c.2-.1.4-.1.7-.2.2 0 .4 0 .5.1 0 .2 0 .4-.1.6.2 0 .3.1.5.1-.6 0-1.1-.1-1.7-.1.1-.1.1-.3.1-.5z"/><path fill="#B7B7B7" d="M51.9 41c.5 0 1.1.1 1.6.1-.1 0-.3.1-.4.1-.1.2-.1.4-.2.6h-.6c-.2 0-.3-.1-.5-.1 0-.3 0-.5.1-.7z"/><path fill="#F1F1F1" d="M53 41.2c.1 0 .3-.1.4-.1 1.8.2 3.6.7 5.2 1.5-.1.2-.2.4-.3.5-1.7-.8-3.6-1.2-5.6-1.4.2-.1.2-.3.3-.5z"/><path fill="#6D6D6D" d="M44.3 41.6c.7-.2 1.4-.3 2.1-.4 0 .3-.1.5-.1.8-.8.1-1.6.3-2.4.5.1-.3.3-.6.4-.9m-13.6 36h.8c-.4.9-1 1.7-1.3 2.7h-.8c.4-.9 1-1.7 1.3-2.7z"/><path fill="#898989" d="M41.7 42.2c.9-.3 1.7-.5 2.6-.6l-.3.9-2.4.6c0-.3 0-.6.1-.9z"/><path fill="#5B5B5B" d="M46.3 42c1.4-.2 2.8-.3 4.2-.3.6 0 1.1.1 1.7.1h.6c1.9.2 3.8.6 5.6 1.4.1.1.2.1.3.2.1.2.2.4.4.6-.5.2-1 .4-1.3.9-.4.7-1.1 1.2-1.6 1.8-.4.5-.9.8-1.1 1.3.1.2.1.3.2.5-.1 0-.2-.1-.3-.1-.2-.1-.4-.1-.6-.2-.1-.1-.3-.2-.4-.3.3-.5.8-.9 1.1-1.5.6-1.2 1.3-2.4 2.5-3.1-.7-.6-1.6-.9-2.5-1-.6-.1-1.2-.2-1.8-.2h-1.6c-1.1 0-2.1 0-3.2.1-2.4.3-4.8.8-7.2 1.6-.3.1-.7.3-1 .4-.9.3-1.7.6-2.6 1-3.7 1.7-7.2 3.8-10.3 6.5-.2.2-.4.3-.5.5-2.2 1.9-4 4.1-5.5 6.6-.4.6-.8 1.3-1.1 2.1-.2.4-.4.9-.6 1.3-.2.5-.3.9-.5 1.4-.2.7-.5 1.6 0 2.2.8-.5 1.7-.5 2.5-.9.6-.2 1.1-.5 1.7-.7.1.2.1.5.2.7 0 .2.1.4.1.6.1.5.3 1.1.5 1.6-.9.3-1.8.5-2.6.8-.6.2-1.2.2-1.7.3-.3.2-.5.6-.7.9-.2-.2-.4-.3-.6-.5-.1-.7-.2-1.5-.2-2.2.1-.9.2-1.9.4-2.8.5-2.1 1.4-4.1 2.6-5.9.5-.9 1.1-1.6 1.7-2.5 1-1.1 1.9-2.2 3-3.2.3-.3.6-.6 1-.9 3.4-3 7.4-5.3 11.6-7 1-.4 2-.7 3-1l2.4-.6c.6-.2 1.4-.4 2.2-.5z"/><path fill="#B1B1B1" d="M38.6 43.2c1-.4 2-.7 3-1 0 .3-.1.6-.1.8-1 .3-2 .7-3 1 .1-.2.1-.5.1-.8z"/><path fill="#A2A2A2" d="M41.3 43.8c2.3-.8 4.7-1.3 7.2-1.6 1.1-.1 2.1-.1 3.2-.1l.4.4c0 .4-.1.8.1 1.1.5.7 1.2 1.3 1.2 2.2 0 .8-.8 1.3-1.3 1.9-.2 0-.4 0-.6-.1.4-.4.8-.7 1.1-1.1.3-.6.1-1.3-.4-1.8-1.1-1-2.6-1.3-4-1.7-.9-.3-1.9-.2-2.8-.1-1.2.2-2.4.4-3.5.8-.6.2-1.1.3-1.7.4.4 0 .7-.2 1.1-.3z"/><path fill="#919191" d="M51.6 42.2h1.6c.3.1.6.3.8.5-.2.3-.5.5-.6.8-.1.8.4 1.5.4 2.2 0 .8-.5 1.5-1.1 1.9-.2.1-.5.1-.7.1.5-.5 1.2-1 1.3-1.9 0-.9-.7-1.5-1.2-2.2-.2-.3-.1-.7-.1-1.1-.1 0-.2-.2-.4-.3z"/><path fill="#838383" d="M53.3 42.2c.6 0 1.2.1 1.8.2.3.2.5.4.8.5-.3.3-.7.6-1 1-.5.9-.2 2-.8 2.9-.3.4-.7.8-1 1.2-1.3-.2-2.5-.2-3.8-.1-3.9.3-7.8 1.8-11.1 3.8-1.2.6-2.3 1.4-3.3 2.3-1 .8-1.9 1.6-2.7 2.6-.8.7-1.3 1.6-2 2.3-.5.2-.9.7-1.3 1-.5.3-1.1.6-1.6.9.1-.6.3-1.2.5-1.8 1.1-.4 1.9-1.1 2.9-1.6.6-.3 1-.7 1.4-1.2.6-.7 1.3-1.2 1.9-1.8 1.9-1.5 3.9-2.9 6-3.9 1-.5 2-1 3-1.4.7-.3 1.5-.4 2.2-.7.1 0 .3-.1.4-.1.3-.1.7-.2 1-.2 1.3-.3 2.7-.4 4.1-.5h.8c.2 0 .4 0 .6.1.2 0 .5 0 .7-.1.6-.4 1.1-1.1 1.1-1.9 0-.8-.5-1.5-.4-2.2.1-.3.4-.6.6-.8-.3-.2-.5-.3-.8-.5z"/><path fill="#737373" d="M55.1 42.4c.9.1 1.8.4 2.5 1-1.2.7-1.8 1.9-2.5 3.1-.3.6-.8.9-1.1 1.5.1.1.2.2.4.3-.4-.1-.8-.2-1.2-.2.3-.4.7-.8 1-1.2.6-.9.2-2 .8-2.9l1-1c-.4-.2-.7-.4-.9-.6z"/><path fill="#B2B2B2" d="M58.7 42.7c.7.3 1.4.8 2.1 1.2-.1.2-.2.3-.4.5-.5-.4-1.1-.7-1.7-1-.1-.1-.2-.1-.3-.2.1-.2.2-.4.3-.5z"/><path fill="#B8B8B8" d="M45.4 43c.9-.1 1.9-.2 2.8.1 1.4.4 2.9.7 4 1.7.5.4.7 1.2.4 1.8-.3.4-.7.7-1.1 1.1h-.8c.4-.4.9-.7 1.2-1.1.3-.4.3-1-.1-1.4-.6-.6-1.5-.9-2.3-1-1.7-.2-3.4-.1-4.9.8-.5.3-.8.9-1 1.4-4.4 1-8.6 2.9-12.2 5.7-.7.5-1.4 1.2-2.1 1.7-.5.1-.8.5-1.1.8-.5.5-.9 1.1-1.5 1.4-1.1.6-2.3 1.3-3.6 1.4.2-1.2 1.1-2 1.8-3 .6-.8 1.5-1.4 2-2.3.2-.2.3-.4.5-.5 3-2.7 6.6-4.9 10.3-6.5.8-.4 1.7-.7 2.6-1 .6-.1 1.1-.3 1.7-.4 1.1-.3 2.3-.5 3.4-.7z"/><path fill="#F3F3F3" d="M27.4 49.6c3.4-2.7 7.2-4.9 11.2-6.4v.9c-4.2 1.7-8.1 4.1-11.6 7 .1-.5.3-1 .4-1.5z"/><path fill="#555" d="M58.7 43.4c.6.3 1.2.6 1.7 1 .1.1.2.1.3.2 0 .2.1.4.1.6-.3.2-.6.4-.8.7-.2.4-.4.7-.6 1l-1.8 1.8c-.2.2-.2.5-.2.7-.6-.4-1.3-.7-2-1-.1-.2-.2-.3-.2-.5.3-.5.8-.9 1.1-1.3.5-.6 1.2-1.1 1.6-1.8.3-.5.8-.7 1.3-.9-.3-.1-.4-.3-.5-.5z"/><path fill="#868686" d="M60.8 43.9c.4.3.8.7 1.2 1-.1.2-.2.3-.3.5-.3-.3-.7-.6-1-.9-.1-.1-.2-.1-.3-.2l.4-.4z"/><path fill="#C6C6C6" d="M44.5 45.1c1.5-.8 3.3-1 4.9-.8.8.1 1.7.4 2.3 1 .4.3.5 1 .1 1.4-.4.4-.8.7-1.2 1.1-1.4.1-2.7.2-4.1.5-1-.3-2.1-.5-2.8-1.3.4-.1.7-.2 1.1-.2.6.4 1.3.9 2.1 1 1.3.2 2.6 0 3.7-.8.2 0 .4.1.6.1V47c.1-.4.4-1 0-1.4-.7-.6-1.7-.8-2.6-.8-1.1 0-2.2.1-3.1.7-.4.2-.6.6-.8.9-.4.1-.8.1-1.2.2.2-.7.5-1.2 1-1.5z"/><path fill="#4D4D4D" d="M60.7 44.6c.3.3.7.5 1 .9.6.6 1.1 1.3 1.5 2 .1.2.3.5.4.7.4.9.7 1.9.9 3 .1.9.1 1.7.1 2.6-.3 3-1.5 5.8-3.1 8.2-.8 1-1.7 2-2.5 3.1-.7.8-1.5 1.6-2.3 2.4-.8.7-1.6 1.4-2.5 2.1-1 .8-2.1 1.5-3.2 2.3-.2.1-.5.3-.7.4-.3.2-.6.4-.9.5-1.3.7-2.6 1.4-4 2-.4.2-.8.4-1.2.5-.5.2-1.1.4-1.6.6-.5.2-1 .4-1.6.5-.8.2-1.6.4-2.3.6-1.5.3-3.1.5-4.7.7h-3.4c-.8-.1-1.7-.2-2.5-.3-.5-.1-.9-.2-1.4-.3-.4-.1-.8-.2-1.2-.4-.4-.1-.7-.3-1.1-.5-.4-.2-.7-.4-1.1-.6-.4-.2-.7-.4-1-.7-.3-.2-.5-.4-.8-.6-1.4-1.3-2.5-3-2.9-4.9 0-.2-.1-.4-.1-.6.2.2.4.3.6.5.2-.3.4-.7.7-.9.6-.1 1.2-.1 1.7-.3.9-.3 1.8-.5 2.6-.8.8 1.5 2.2 2.6 3.8 3.2 2.5 1 5.2.9 7.8.5 4.3-.7 8.4-2.6 12-5.2 2.7-2 5.1-4.5 6.7-7.5.6-1.2 1-2.5 1.3-3.8.1.1.2.3.3.4.3 1 .4 2.1.3 3.1-.3 1.3-.7 2.6-1.4 3.7-1.4 2.4-3.4 4.4-5.6 6-2.1 1.5-4.4 2.7-6.9 3.6-2.6.9-5.4 1.5-8.1 1.1-.7-.1-1.4-.3-2.1-.4.8.4 1.7.5 2.5.7 2.6.3 5.2-.1 7.7-.7-.4.5-1 .7-1.6 1-1.9.9-4 1.5-5.9 2.4-.7.3-1.4.6-1.9 1.2.5.3 1.1.2 1.7.2 2.1 0 4.2-.5 6.2-1 .8-.3 1.7-.5 2.4-.9 1-.4 2-.7 2.9-1.3 3.7-1.6 7.1-3.9 10-6.6.7-.6 1.4-1.3 2-2.1.6-.4 1-1 1.4-1.6.3-.3.6-.6.8-.9.8-1.3 1.7-2.5 2.2-4 .6-1.5 1.1-3.1.8-4.7-.6.1-1 .6-1.2 1.1-.5.8-1 1.5-1.5 2.3-.6.9-1.3 1.8-1.9 2.7-.2.2-.4.4-.7.5.3-.5.5-1 .7-1.6.7-1.6 1.1-3.5.7-5.2-.3-1.5-1.1-2.9-2.4-3.7-.1 0-.2-.1-.2-.2 0-.3 0-.5.2-.7l1.8-1.8c.3-.3.4-.7.6-1 .2-.3.5-.5.8-.7.4-.4.4-.6.4-.8z"/><path fill="#D5D5D5" d="M45.5 45.4c.9-.5 2.1-.7 3.1-.7.9 0 1.8.2 2.6.8.4.4.2 1 0 1.4-.2-.1-.4-.1-.6-.2 0-.3.2-.8-.2-1.1-.7-.5-1.6-.4-2.4-.4-.9 0-1.8.5-2.5 1-.3 0-.5 0-.8.1.2-.4.5-.7.8-.9z"/><path fill="#6A6A6A" d="M62 44.9c.6.6 1.2 1.3 1.6 2-.1.2-.2.3-.4.5-.4-.7-.9-1.4-1.5-2 .1-.1.2-.3.3-.5z"/><path fill="#E5E5E5" d="M45.6 46.2c.7-.6 1.6-1 2.5-1 .8 0 1.7-.1 2.4.4.4.2.2.7.2 1.1-.5-.1-1.1-.3-1.7-.4-1.1-.2-2.3-.1-3.4-.1z"/><path fill="#FFF" d="M45.6 46.2c1.1-.1 2.3-.2 3.5 0 .6.1 1.1.2 1.7.4.2.1.4.1.6.2v.1c-.2 0-.4 0-.6-.1-1.2-.4-2.6-.2-3.8-.4-.7 0-1.3.1-1.9.2-.4.1-.7.2-1.1.2-.6.1-1.3.3-1.9.5-.9.2-1.7.6-2.5.9-2.9 1.3-5.6 3-7.8 5.2-.7.7-1.4 1.5-2 2.4-.4.5-.8 1.1-1.1 1.7-.3.5-.5 1-.7 1.5-.2.6-.4 1.2-.5 1.8-.2 1.3-.1 2.6.5 3.7.1.1.1.3.2.4.1.2.2.4.4.6.4.6 1 1.1 1.6 1.5.6.3 1.2.5 1.8.8.8.3 1.7.4 2.6.5 1 0 2 0 3-.1s1.9-.4 2.9-.6l-.1-.1c1-.2 1.9-.6 2.8-.9.8-.4 1.5-.7 2.3-1.1 1.3-.8 2.6-1.5 3.7-2.4.6-.5 1.4-1 1.9-1.7 1.3-1.2 2.4-2.6 3.2-4.1.7-1 .9-2.2 1.3-3.4h.1c.1.2.1.3.2.5-.3 1.3-.7 2.6-1.3 3.8-1.6 3-4 5.5-6.7 7.5-3.5 2.6-7.6 4.4-12 5.2-2.6.4-5.3.4-7.8-.5-1.6-.6-3-1.7-3.8-3.2-.2-.5-.4-1.1-.5-1.6-.1-1.1-.1-2.2.1-3.3l.6-1.8c.3-.7.7-1.5 1.1-2.2 1-1.6 2.3-3.1 3.6-4.4.7-.6 1.4-1.2 2.1-1.7 3.6-2.8 7.8-4.6 12.2-5.7.4-.1.8-.2 1.2-.2.3 0 .6 0 .9-.1z"/><path fill="#E2E2E2" d="M44.8 46.7c.6-.1 1.3-.2 1.9-.2 1.3.1 2.6-.1 3.8.4-1.1.8-2.4 1-3.7.8-.7-.1-1.3-.6-2-1z"/><path fill="#B4B4B4" d="M41.9 47.4c.6-.2 1.2-.4 1.9-.5.8.8 1.8 1 2.8 1.3-.3.1-.7.2-1 .2-.4-.1-.8-.3-1.1-.4-.9-.2-1.7-.5-2.6-.6z"/><path fill="#8E8E8E" d="M63.2 47.4c.1-.2.2-.3.4-.5.1.2.3.5.4.7-.1.2-.3.3-.4.5-.1-.2-.3-.4-.4-.7z"/><path fill="#AAA" d="M39.4 48.3c.8-.4 1.6-.7 2.5-.9.9 0 1.7.4 2.5.6.4.1.8.2 1.1.4-.1 0-.3.1-.4.1-.9-.1-1.8-.3-2.6-.2-.7.1-1.2.6-1.8 1-1.3.8-2.7 1.6-4 2.4-1.9 1.1-3.7 2.3-5.6 3.4-.5.3-1 .6-1.5.8.6-.9 1.3-1.6 2-2.4 2.2-2.2 4.9-3.9 7.8-5.2z"/><path fill="#D0D0D0" d="M63.6 48.2c.1-.2.3-.3.4-.5.5 1 .9 2.1 1.1 3.2l-.3.3c-.1 0-.2 0-.3-.1-.2-1-.5-2-.9-2.9z"/><path fill="#BFBFBF" d="M49.4 48c1.3-.2 2.5-.1 3.8.1.4.1.8.1 1.2.2.2.1.4.1.6.2.1.2.3.4.4.6-.6.5-1.1 1-1.6 1.5-.3.3-.4.7-.5 1-.7-.4-1.5-.6-2.3-.8l-.1-.1c-.2-.2-.4-.5-.6-.7.4-.7 1.1-1.2 1.5-1.9-.8 0-1.6-.1-2.4-.1z"/><path fill="#D3D3D3" d="M38.2 51.8c3.4-2 7.2-3.5 11.1-3.8.8 0 1.6.1 2.4.2-.4.7-1.1 1.2-1.5 1.9.2.2.4.4.6.7-.7-.1-1.4-.2-2-.2h-1.7c-1.7.1-3.3.5-4.9 1.1-1.8.5-3.5 1.4-5.1 2.3.3-.3.5-.6.7-.9-.1-.2-.2-.3-.3-.5.3-.3.5-.6.7-.8z"/><path fill="#A0A0A0" d="M42.5 48.4c.9-.1 1.8 0 2.6.2-.7.3-1.5.4-2.2.7-1 .4-2 .9-3 1.4-2.2 1.1-4.1 2.4-6 3.9-.8.3-1.5.9-2.3 1.3-1.1.6-2.1 1.4-3.2 1.8.3-.6.6-1.2 1.1-1.7.5-.2 1-.5 1.5-.8 1.9-1.1 3.7-2.3 5.6-3.4 1.3-.8 2.7-1.6 4-2.4.7-.4 1.2-.9 1.9-1z"/><path fill="#ACACAC" d="M55 48.5c.1 0 .2.1.3.1.7.2 1.4.5 2 1 .1 0 .2.1.2.2.2.3.3.7.5 1-.5.4-1.1.5-1.6.9s-1.1.8-1.6 1.3c-.4-.4-.8-.7-1.3-1-.1-.1-.2-.1-.3-.2.1-.4.3-.8.5-1 .5-.5 1-1.1 1.6-1.5 0-.4-.2-.6-.3-.8z"/><path fill="#C4C4C4" d="M23.9 52.8c1.1-1.2 2.3-2.2 3.5-3.2-.2.5-.3 1-.4 1.5-.3.3-.6.6-1 .9-1.1 1-2.1 2.1-3 3.2 0-.8.9-1.4.9-2.4z"/><path fill="#9D9D9D" d="M57.4 49.7c1.3.8 2.1 2.2 2.4 3.7-.4 0-.8-.1-1.2-.1-.8 0-1.6.5-2.3 1-.2-.1-.5-.2-.7-.2h-.1c-.2-.5-.5-.9-.9-1.3.5-.4 1.1-.8 1.6-1.3.5-.4 1.2-.4 1.6-.9 0-.3-.2-.6-.4-.9z"/><path fill="#757575" d="M42.3 51.7c1.6-.6 3.2-1 4.9-1.1-.3.3-.6.5-1 .7-1.1.6-2 1.3-3.1 1.9-2.6 1.5-5.1 2.9-7.7 4.4-1.8 1.1-3.7 2.1-5.6 3.2.2-.3.4-.7.6-1.1.9-1 1.7-2.1 2.8-2.8.8-.2 1.4-.7 2-1.1 1.2-.7 2.5-1.5 3.7-2.2 1.2-.6 2.4-1.1 3.4-1.9z"/><path fill="#696969" d="M47.2 50.6c.6 0 1.1-.1 1.7 0-.5.6-1.2.9-1.9 1.4-.8.5-1.7 1-2.5 1.6-3 1.7-6 3.5-9.1 5.1-.9.5-1.8 1.1-2.7 1.6-1.3.7-2.5 1.4-3.7 2.1.2-.5.5-1.1.9-1.5 1.8-1.1 3.7-2.1 5.6-3.2 2.6-1.5 5.1-2.9 7.7-4.4 1-.6 2-1.3 3.1-1.9.2-.2.6-.5.9-.8z"/><path fill="#5F5F5F" d="M48.8 50.6c.7 0 1.4.1 2 .2l.1.1c-1 .7-1.9 1.4-2.9 2.1-2.4 1.7-5.2 2.8-7.7 4.2-2.2 1.2-4.3 2.5-6.4 3.9-1.7 1.1-3.4 2.1-5.4 2.7.1-.5.3-.9.5-1.3 1.3-.6 2.5-1.4 3.7-2.1.9-.5 1.8-1.1 2.7-1.6 3-1.7 6.1-3.4 9.1-5.1.8-.6 1.6-1 2.5-1.6.6-.5 1.3-.9 1.8-1.5z"/><path fill="#575757" d="M50.9 50.9c.8.2 1.6.4 2.3.8.1.1.2.1.3.2-.8.4-1.7.7-2.5 1-1.9.7-3.7 1.5-5.5 2.3-1.2.6-2.4 1.1-3.6 1.8-4.6 2.3-8.9 5.2-12.9 8.6l-.6.3c-.1-.2-.3-.4-.4-.6.1-.5.2-.9.4-1.4 1.9-.6 3.7-1.6 5.4-2.7 2.1-1.4 4.2-2.7 6.4-3.9 2.5-1.5 5.3-2.5 7.7-4.2 1.1-.8 2-1.6 3-2.2z"/><path fill="#ADADAD" d="M64.8 51.2l.3-.3c.2.9.2 1.9.1 2.8-.2.1-.4.2-.6.4 0-.1-.1-.3-.1-.4.1-.9.1-1.7-.1-2.6.2 0 .3.1.4.1z"/><path fill="#848484" d="M37.2 54c1.6-.9 3.3-1.8 5.1-2.3-1 .7-2.2 1.3-3.2 2-1.2.7-2.5 1.5-3.7 2.2-.7.4-1.3.9-2 1.1.3-.3.5-.6.8-.8.9-.8 2-1.5 3-2.2z"/><path fill="#C1C1C1" d="M34.9 54.1c1-.8 2.1-1.6 3.3-2.3-.2.2-.4.5-.5.7.1.2.2.3.3.5-.2.3-.5.6-.7.9-1 .7-2.1 1.4-3.1 2.1.2-.2.3-.5.5-.7.1-.3.1-.8.2-1.2z"/><path fill="#4E4E4E" d="M53.5 51.8c.4.3.9.6 1.3 1s.7.8.9 1.3c-.4 1.1-.5 2.4-1.3 3.4-.9 1.5-2 2.9-3.2 4.1-.5.7-1.3 1.1-1.9 1.7-1.1 1-2.5 1.6-3.7 2.4-.7.4-1.5.7-2.3 1.1-.9.4-1.8.7-2.8.9l.1.1c-1 .2-1.9.5-2.9.6-1 .1-2 .1-3 .1-.9 0-1.7-.1-2.6-.5-.6-.2-1.3-.4-1.8-.8-.6-.4-1.2-.9-1.6-1.5l.6-.3c4-3.3 8.3-6.2 12.9-8.6 1.1-.7 2.4-1.1 3.6-1.8 1.8-.8 3.6-1.6 5.5-2.3.5-.2 1.4-.5 2.2-.9z"/><path fill="#ABABAB" d="M21.4 58.9c1.4-2.5 3.3-4.7 5.5-6.6-.5.9-1.4 1.5-2 2.3-.7.9-1.6 1.8-1.8 3 1.3-.1 2.5-.8 3.6-1.4.6-.3 1-1 1.5-1.4.3-.3.6-.7 1.1-.8-1.4 1.3-2.6 2.8-3.6 4.4-.5 0-.8.5-1.2.7-1 .6-2.1 1-3.3 1.2.1-.5.2-1 .2-1.4z"/><path fill="#A8A8A8" d="M21.4 55.6c.7-1 1.6-1.9 2.4-2.8 0 .9-.9 1.5-.8 2.5-.6.8-1.2 1.6-1.7 2.5-1.2 1.8-2.1 3.8-2.6 5.9 0-.1-.1-.3-.1-.4-.5.6-.8 1.4-1.2 2.1-.4.6-.6 1.3-1.1 1.8.1-1.1.3-2.3.7-3.4.4-.4.7-.9 1-1.4 1.1-2.3 2.5-4.4 3.4-6.8z"/><path fill="#919191" d="M56.4 54.2c.7-.5 1.4-.9 2.3-1 .4 0 .8.1 1.2.1.4 1.8 0 3.6-.7 5.2 0-.8.3-1.5.3-2.3-.3 0-.6-.1-.9-.2-.4.6-1 .8-1.6 1.2-.2-.8-.3-1.7-.8-2.3-.1-.1-.2-.3-.3-.4-.1-.2-.1-.3-.2-.5.2.1.4.2.7.2z"/><path fill="#585858" d="M62.5 54.7c.3-.5.6-1 1.2-1.1.2 1.6-.2 3.2-.8 4.7-.5 1.4-1.4 2.7-2.2 4-.2.4-.5.7-.8.9.5-.7 1-1.5 1.3-2.3.1-.2.1-.4.1-.6-.9.6-1.7 1.3-2.4 2.1-.5.5-1.1 1-1.6 1.5-3 2.7-6.2 5.1-9.7 7.1-1.5 1-3.2 1.8-4.7 2.7-.7.5-1.5.8-2.1 1.5.9 0 1.8-.3 2.8-.5-.8.4-1.6.6-2.4.9-2 .6-4.1 1-6.2 1-.6 0-1.2.1-1.7-.2.5-.6 1.2-.9 1.9-1.2 1.9-.9 3.9-1.5 5.9-2.4.5-.3 1.2-.4 1.6-1 .3-.1.5-.2.8-.3 3.6-1.1 7-3 9.9-5.4 1.2-1 2.3-2 3.2-3.2.8-.9 1.4-1.9 2-2.8.3 0 .5-.2.7-.5.6-.9 1.3-1.8 1.9-2.7.3-.7.8-1.5 1.3-2.2z"/><path fill="#969696" d="M61.4 61.9c1.6-2.5 2.8-5.3 3.1-8.2 0 .1.1.3.1.4.2-.1.4-.2.6-.4 0 .8-.2 1.6-.3 2.4-.8 3.5-2.5 6.6-4.7 9.4-.8 1-1.6 2-2.6 2.9.3-1 .9-1.8 1.3-2.7.1-.2.1-.4.1-.7.8-1 1.7-2 2.4-3.1z"/><path fill="#B1B1B1" d="M32.2 56.7c.8-.9 1.7-1.8 2.7-2.6-.1.4-.1.9-.4 1.3-.1.3-.3.5-.5.7-.3.3-.5.6-.8.8-1.1.8-1.9 1.9-2.8 2.8.5-1.1 1.6-1.8 1.8-3z"/><path fill="#939393" d="M31.7 55.8c.8-.4 1.5-1 2.3-1.3-.6.7-1.3 1.2-1.9 1.8-.4.5-.8.9-1.4 1.2-1 .5-1.9 1.2-2.9 1.6.2-.5.4-1.1.7-1.5 1.2-.4 2.1-1.2 3.2-1.8z"/><path fill="#878787" d="M56.1 54.9c.5.7.6 1.5.8 2.3.6-.4 1.2-.6 1.6-1.2.3.1.6.2.9.2 0 .8-.2 1.5-.3 2.3-.2.5-.4 1.1-.7 1.6-.6 1-1.2 2-2 2.8 0-.5.4-.9.6-1.4.2-.3.3-.6.4-.9-.6.2-1.1.4-1.7.6.2-1.1.5-2.1.6-3.2.2-1 .1-2-.2-3.1z"/><path fill="#959595" d="M17.5 62.3c1-2.4 2.3-4.6 3.9-6.6-1 2.3-2.3 4.5-3.4 6.8-.2.5-.6 1-1 1.4.1-.6.3-1.2.5-1.6z"/><path fill="#A5A5A5" d="M30.3 59c.7-.8 1.2-1.7 2-2.3-.2 1.2-1.4 2-1.7 3.1-.2.4-.4.7-.6 1.1l-.9 1.5c-.2.4-.4.9-.5 1.3-.1.5-.3.9-.4 1.4-.1-.1-.1-.3-.2-.4.3-.8.4-1.6.7-2.4.3-1.2.9-2.3 1.6-3.3z"/><path fill="#7A7A7A" d="M54.9 61.8c.7-1.1 1.1-2.4 1.4-3.7-.1 1.1-.4 2.2-.6 3.2.6-.2 1.1-.4 1.7-.6-.1.3-.3.6-.4.9-.2.4-.6.9-.6 1.4-.9 1.2-2 2.2-3.2 3.2-2.9 2.4-6.3 4.2-9.9 5.4-.3.1-.6.2-.8.3-2.5.6-5.1 1.1-7.7.7-.9-.1-1.7-.2-2.5-.7.7.1 1.4.3 2.1.4 2.7.4 5.6-.2 8.1-1.1 2.4-.9 4.8-2.1 6.9-3.6 2.2-1.4 4.2-3.4 5.5-5.8z"/><path fill="#9E9E9E" d="M24.5 59c.4-.2.7-.7 1.2-.7-.4.7-.8 1.4-1.1 2.2-.1-.1-.2-.2-.3-.2-1.2.7-2.5 1.3-3.8 1.6 0-.3-.1-.6-.1-1 .3-.7.7-1.4 1.1-2.1 0 .5-.1.9-.2 1.4 1-.2 2.1-.6 3.2-1.2z"/><path fill="#6F6F6F" d="M28.9 60c.5-.3.8-.8 1.3-1-.7 1-1.3 2.1-1.7 3.3-.3.8-.4 1.6-.7 2.4-.6-1.1-.7-2.5-.5-3.7.5-.4 1.1-.7 1.6-1z"/><path fill="#919191" d="M20.4 61.9c1.4-.3 2.7-.9 3.8-1.6.1.1.2.2.3.2l-.6 1.8v-.6c-.7.2-1.3.7-2 .9-.7.3-1.4.5-2.1.7v-1c.2-.5.4-.9.6-1.3-.1.2 0 .6 0 .9z"/><path fill="#676767" d="M58.9 62.4c.8-.8 1.5-1.5 2.4-2.1 0 .2 0 .4-.1.6-.3.8-.9 1.5-1.3 2.3-.4.6-.9 1.1-1.4 1.6.3-.7.8-1.2 1.1-1.9-.8.4-1.4 1-2 1.5-1.1.8-2.1 1.7-3.1 2.5-2.7 2.2-5.7 4-8.7 5.9-.7.4-1.4.8-1.9 1.4.9 0 1.8-.5 2.6-.7-.9.5-1.9.8-2.9 1.3-.9.2-1.8.5-2.8.5.5-.7 1.3-1.1 2.1-1.5 1.6-.9 3.2-1.8 4.7-2.7 3.5-2 6.7-4.4 9.7-7.1.5-.6 1-1.1 1.6-1.6z"/><path fill="#838383" d="M21.8 62.6c.7-.3 1.3-.8 2-.9v.6c-.2 1.1-.2 2.2-.1 3.3 0-.2-.1-.4-.1-.6v-2.2c-1 .2-1.7.9-2.7 1.1-.5.1-1 .5-1.5.5-.1-.3-.1-.5-.2-.8.1-.5.3-.9.5-1.4v1c.8-.1 1.5-.4 2.1-.6z"/><path fill="#333" d="M67.8 62.9c.8-.4 1.8-.4 2.7-.4-1.2 2.5-2.3 4.9-3.5 7.4-.3.5-.5 1.1-.7 1.6.6-.3 1.1-.8 1.8-1.1 1.2-.7 2.7-.9 4.1-.6.8.2 1.6.6 1.9 1.4.4 1 .1 2.2-.3 3.2-1.1 2.4-2.3 4.8-3.4 7.2h-3.8c1.3-2.8 2.6-5.6 3.9-8.3.2-.5.5-.9.4-1.4-.1-.5-.6-.7-1-.7-1-.1-1.9.4-2.8.9-.9.7-1.8 1.5-2.3 2.6-1.1 2.3-2.2 4.7-3.3 7h-3.8c1.2-2.7 2.5-5.4 3.8-8 1.2-2.6 2.4-5.1 3.6-7.7.6-1.4 1.5-2.5 2.7-3.1m52.1.9c.7-.2 1.4-.2 2.2-.2-2.7 5.8-5.4 11.5-8.1 17.2-.1.3-.2.6-.5.8h-3.7c.2-.4.4-.8.5-1.2-1.4.8-3 1.4-4.7 1.4-1.1 0-2.3-.4-3-1.4-.8-1.1-.9-2.6-.6-3.9.4-1.3 1-2.5 1.8-3.6 1.4-1.8 3.5-3.1 5.8-3.4 1.3-.1 2.6 0 3.7.5.5.2 1 .6 1.4 1 .5-1 .9-2 1.4-3 .4-.8.7-1.7 1.3-2.4.6-.7 1.4-1.5 2.5-1.8m-13.2 10.4c-.8 1.1-1.5 2.4-1.5 3.8 0 .8.4 1.6 1.1 2 .7.4 1.7.4 2.4.1 1.1-.4 2.1-1.1 2.6-2.1.9-2 1.9-4 2.8-6-.7-.9-1.9-1-2.9-.9-1.8.4-3.3 1.7-4.5 3.1m-14.6-3.3c1.3-.6 2.7-1 4.1-1.2 1.2-.1 2.5-.1 3.7.3.8.3 1.6.9 1.9 1.7.4.9.3 2-.2 2.9l-3.3 6.9h-3.7c.1-.4.3-.8.4-1.2-.6.3-1.2.7-1.8 1-.9.3-2 .5-3 .4-1 0-2-.6-2.5-1.5-.5-.7-.5-1.7-.2-2.5.5-1.3 1.4-2.4 2.6-3.1 1.7-1 3.7-1 5.6-.9.7.1 1.5.3 2.2.5.3-.6.7-1.2.8-1.8.1-.7-.7-1.2-1.3-1.4-1.5-.4-3-.2-4.4.4-.7.3-1.3.6-2 .9.3-.4.5-1.1 1.1-1.4m1.3 4.6c-1 .5-1.9 1.4-2.4 2.5-.2.5-.3 1.2 0 1.7s.8.8 1.3.8c1.2 0 2.4-.4 3.3-1.2.6-.5.8-1.3 1.1-2 .3-.7.7-1.4.9-2.1-1.4-.4-2.9-.4-4.2.3M75 73.9c2.1-2.9 5.8-4.6 9.4-4 1.1.2 2.2.6 2.9 1.5.6.7.9 1.6.8 2.5 0 .7-.2 1.4-.4 2H77.6c-.4 1.1-.5 2.5.3 3.4.8.9 2.1 1 3.2.9 1.8-.2 3.3-1.2 4.5-2.4.2.2.4.4.5.6-1.2 1.6-2.9 2.8-4.9 3.3-1 .3-2.1.3-3.3.3-.9-.1-1.8-.3-2.6-.8-1.1-.7-1.8-1.9-1.9-3.2 0-1.5.7-2.9 1.6-4.1m6-2.5c-1.3.8-2.4 2.1-3 3.5h6.4c.2-.9.4-1.8.3-2.7 0-.6-.4-1.3-1.1-1.5-.9-.2-1.8.2-2.6.7M41.5 83.7c.7-.3 1.5-.3 2.3-.3-.2.7-.6 1.3-.8 1.9-.8 1.7-1.6 3.3-2.3 5-.3.7-.7 1.4-1 2.2l1.8-1.2c1.2-.6 2.6-.8 3.9-.6.8.2 1.7.6 2 1.4.4 1.1.1 2.4-.4 3.4-1.1 2.3-2.1 4.6-3.2 6.8-.1.3-.4.2-.6.2H40l4.2-9c.1-.3.2-.8-.1-1.1-.4-.4-1-.4-1.5-.4-.9.1-1.7.6-2.4 1.2-.8.6-1.5 1.3-1.9 2.2-1.1 2.3-2.1 4.6-3.2 6.9-.1.3-.5.2-.7.2h-3.1c.9-2 1.9-3.9 2.8-5.9 1.5-3.2 3.1-6.5 4.6-9.7.4-1.4 1.4-2.7 2.8-3.2m42.4.9c.7-.3 1.5-.3 2.3-.3-1.8 4-3.7 7.9-5.5 11.9-1 2.1-2 4.3-3 6.4H74c.5-1.3 1.2-2.6 1.8-4 1.7-3.7 3.4-7.3 5.1-11 .6-1.3 1.7-2.5 3-3m15 .2c.7-.3 1.6-.3 2.4-.3-.8 1.9-1.8 3.8-2.7 5.8-1.8 3.9-3.7 7.8-5.5 11.7-.1.2-.2.7-.6.6H89c.2-.4.3-.8.5-1.2-1.5.9-3.2 1.5-5 1.4-1.1-.1-2.2-.6-2.8-1.5-.8-1.1-.8-2.6-.5-3.9.4-1.3 1.1-2.6 2-3.7 1.3-1.5 3-2.6 5-3 1.3-.3 2.7-.2 4 .3.6.2 1.2.7 1.7 1.1.8-1.5 1.5-3.1 2.3-4.7.6-1.1 1.5-2.1 2.7-2.6m-8.6 7.4c-1.2.2-2.2.9-3.1 1.7-1.2 1.1-2.1 2.5-2.6 4-.3 1-.2 2.1.6 2.8.6.6 1.6.7 2.4.5 1.3-.3 2.5-1.1 3-2.3.9-1.8 1.7-3.6 2.6-5.5.1-.2.3-.5 0-.7-.7-.6-1.9-.7-2.9-.5M51.2 92c1.9-1.2 4.3-1.6 6.5-1.5 1.2.1 2.4.5 3.3 1.4.7.7 1.1 1.8 1 2.8-.1 1.2-.7 2.4-1.3 3.4-1.2 1.8-3 3.3-5 4.1-.8.3-1.7.5-2.6.6h-1.4c-1-.1-2.1-.3-2.9-.9-1-.7-1.6-1.9-1.7-3.1-.1-.9.2-1.8.6-2.6.6-1.7 1.9-3.2 3.5-4.2m5-.4c-1.3.3-2.3 1.2-3.2 2.1-1.2 1.4-2.1 3.1-2.6 4.9-.2.9-.3 1.9.4 2.6.8.7 2 .7 2.9.2 1.6-.9 2.7-2.3 3.6-3.9.6-1.1 1.1-2.3 1.3-3.5.1-.7.1-1.5-.4-2-.6-.5-1.3-.5-2-.4m40.5 4.9c1.5-3.5 5.1-5.9 8.9-6 1.2 0 2.5.2 3.5.8 1 .6 1.7 1.8 1.7 2.9 0 .8-.2 1.6-.4 2.4h-10.1c-.5 1.1-.5 2.5.3 3.4.8.9 2.1 1 3.1.9 1.8-.2 3.3-1.3 4.6-2.4l.5.5c0 .1-.1.3-.2.4-1.5 1.7-3.5 2.9-5.8 3.2-1.4.2-2.9.2-4.2-.4-.9-.4-1.8-1.1-2.2-2.1-.3-1.2-.1-2.5.3-3.6m7.8-4.8c-1.7.8-2.9 2.2-3.7 3.9h6.4c.2-.9.4-1.8.3-2.7 0-.6-.3-1.2-.9-1.4-.6-.3-1.4-.1-2.1.2m15.1-.9c.5-.2 1.1-.4 1.6-.3.6.1 1 .9.7 1.5-.5.9-.9 1.9-1.5 2.8-.2-.4-.3-.9-.7-1.2-.6-.5-1.5-.4-2.1-.1-.8.5-1.5 1.1-1.9 2-1.1 2.3-2.1 4.7-3.3 7h-3.7c1.8-4 3.7-7.9 5.5-11.9h3.3c-.2.8-.6 1.5-.8 2.4 1-.9 1.9-1.7 2.9-2.2m-92.7-.1c1.5-.2 3-.3 4.4 0 1 .2 2 .6 3 1.1-.1.4-.3.7-.5 1.1-1-.5-2-1-3.1-1.2-1-.2-2.1-.2-3 .1-.6.2-1.2.8-1.2 1.5 0 .5.4.8.8 1.1 1.1.6 2.3 1 3.4 1.6.8.5 1.3 1.3 1.4 2.2 0 1.1-.6 2-1.4 2.7-1.4 1.2-3.3 1.7-5.2 1.9H24c-1.7-.2-3.4-.6-4.9-1.6l-.3-.3c.1-.4.4-.7.6-1 .6.3 1.1.7 1.7.9 1.6.7 3.4 1 5.1.6.7-.1 1.3-.6 1.4-1.3.1-.5-.3-1-.7-1.3-1.1-.8-2.4-1.2-3.5-1.9-.7-.4-1.3-1.1-1.4-2-.1-1 .4-2 1.1-2.7 1.1-.8 2.5-1.2 3.8-1.5m38.2.2c.1-.3.5-.3.8-.3h3c-.1.3-.2.7-.4 1-1.1 2.3-2.2 4.7-3.3 7-.3.7-.6 1.4-.4 2.1.2.5.8.8 1.3.7 1-.1 1.9-.8 2.7-1.4.9-.8 1.7-1.8 2.3-2.9 1-2.1 1.9-4.1 2.9-6.2.1-.4.5-.3.8-.3h3.1c-1.8 4-3.7 7.9-5.6 11.9h-3.8c.2-.6.6-1.2.8-1.8-.5.3-.9.7-1.3 1-1.3.8-2.8 1.2-4.3 1-.8-.1-1.6-.6-1.9-1.4-.5-1.2-.2-2.6.3-3.7.8-2.2 1.9-4.5 3-6.7m61.6-.2c1.4-.2 2.9-.2 4.3.2 1 .2 1.9.7 2.8 1.1l-.6.9c-1.2-.7-2.6-1.2-4-1.3-.8 0-1.7 0-2.4.4-.5.3-.9.8-.9 1.4.1.5.5.8.9 1 1.1.6 2.3 1 3.4 1.6.8.5 1.3 1.3 1.3 2.2 0 1-.7 2-1.4 2.6-1.4 1.2-3.3 1.7-5.2 1.9h-1.4c-1.8-.2-3.7-.7-5.2-1.8.2-.4.4-.7.6-1.1 1.4.8 2.9 1.6 4.5 1.7.9 0 1.9.1 2.8-.3.6-.2 1.1-.8 1-1.5 0-.4-.4-.7-.7-1-1.1-.8-2.3-1.2-3.4-1.9-.7-.5-1.4-1.2-1.5-2.1-.1-1.1.5-2.1 1.3-2.7 1-.7 2.4-1.1 3.8-1.3z"/><path fill="#747474" d="M21 64c.9-.3 1.7-1 2.7-1.1v2.2c-.1-.2-.1-.5-.2-.7-.6.2-1.1.5-1.7.7-.8.4-1.8.4-2.5.9-.5-.7-.1-1.5 0-2.2 0 .3.1.6.2.8.5-.2 1-.5 1.5-.6z"/><path fill="#727272" d="M57.6 64.4c.7-.5 1.3-1.1 2-1.5-.2.7-.8 1.2-1.1 1.9-.6.8-1.3 1.5-2 2.1-3 2.7-6.4 5-10 6.6-.9.2-1.7.7-2.6.7.5-.6 1.3-1 1.9-1.4 3-1.8 5.9-3.7 8.7-5.9 1-.8 2-1.7 3.1-2.5z"/><path fill="silver" d="M17.4 65.4c.4-.7.7-1.4 1.2-2.1 0 .1.1.3.1.4-.2.9-.3 1.8-.4 2.8-.2.2-.4.4-.5.6-.5.9-.8 1.8-1.5 2.6-.1-.8-.1-1.7 0-2.5.5-.5.8-1.2 1.1-1.8z"/><path fill="#A2A2A2" d="M56.7 67.4c.8-.8 1.6-1.5 2.3-2.4 0 .2 0 .5-.1.7-.4.9-1.1 1.7-1.3 2.7-.6.7-1.3 1.3-2 1.9.1-.4.3-.9.5-1.3.3-.4.7-.9.6-1.6z"/><path fill="#DADADA" d="M17.8 67.1c.1-.2.3-.4.5-.6 0 .7.1 1.5.2 2.2 0 .2.1.4.1.6-.2.1-.4.2-.5.4-.4.8-.7 1.6-1.4 2.3-.3-.8-.4-1.6-.5-2.4.8-.7 1.2-1.7 1.6-2.5z"/><path fill="#B8B8B8" d="M54.3 69.5c.8-.7 1.7-1.4 2.5-2.1.1.6-.4 1.1-.6 1.7-.2.4-.4.8-.5 1.3-.8.7-1.6 1.4-2.4 2 .1-.7.5-1.3.9-1.9 0-.3.1-.6.1-1z"/><path fill="#333" d="M124.7 69.9c1.4-1 3.1-1.4 4.8-1.2.9.1 1.8.4 2.4 1.1.5.5.6 1.3.3 2-.3.8-1 1.3-1.7 1.7-1.1.7-2.3 1.1-3.5 1.4.6 1.3 1.5 2.5 2.5 3.5.9-.6 1.5-1.7 1.8-2.7h1.3c-.3 1.5-1.1 2.8-2.2 3.8.9.9 2 1.6 3.3 1.9-.1.2-.1.4-.3.6-.4.1-.9 0-1.4.1-1 0-2 .1-3-.4-.3-.2-.6-.5-.9-.6-2 1.3-4.4 1.4-6.7 1-.9-.2-1.9-.6-2.5-1.3-.5-.7-.5-1.6-.4-2.4.3-1.3 1.3-2.3 2.5-3 .7-.4 1.5-.6 2.3-.9-.2-.5-.5-1.1-.4-1.7.2-1.2.9-2.2 1.8-2.9m1.4 1.3c-.3.9 0 1.8.4 2.6.7-.2 1.5-.5 2.1-1 .4-.4.8-1 .9-1.6.1-.4-.1-.9-.5-1-1.1-.6-2.5-.1-2.9 1m-4.4 6.8c-.2.7 0 1.5.6 2s1.4.7 2.1.6c.9 0 1.8-.2 2.5-.7-1.1-1.3-2.1-2.6-2.9-4-1 .3-1.9 1-2.3 2.1z"/><path fill="#FAFAFA" d="M18.2 69.8c.1-.2.3-.3.5-.4.5 1.9 1.5 3.6 2.9 4.9-.6.9-.9 1.9-1.6 2.7-1.5-1.3-2.6-3-3.2-4.9.6-.7.9-1.6 1.4-2.3z"/><path fill="#DBDBDB" d="M51.1 71.8c1.1-.8 2.2-1.5 3.2-2.3 0 .3-.1.6-.2.9-.3.6-.7 1.2-.9 1.9-1 .8-2.1 1.5-3.2 2.2 0-1 .9-1.7 1.1-2.7z"/><path fill="#A6A6A6" d="M50.4 72.2c.2-.1.5-.3.7-.4-.1 1-1.1 1.7-1.1 2.7-.2.2-.5.3-.7.4 0-.5.3-.9.5-1.4.2-.3.4-.8.6-1.3z"/><path fill="#838383" d="M49.5 72.8c.3-.2.6-.4.9-.5-.2.5-.4 1-.6 1.4-.2.4-.6.8-.5 1.4-.3.2-.6.3-.8.5 0-.3 0-.5.1-.8.3-.7.6-1.4.9-2z"/><path fill="#6A6A6A" d="M45.5 74.7c1.4-.6 2.7-1.3 4-2-.2.7-.6 1.3-.9 1.9-.1.2-.2.5-.1.8-1.2.7-2.5 1.3-3.7 1.9.3-.8.8-1.5 1.1-2.4-.2 0-.4-.1-.4-.2z"/><path fill="#D2D2D2" d="M21.6 74.2c.3.2.5.4.8.6-.4 1-.9 1.9-1.5 2.8-.3-.2-.6-.5-.9-.7.7-.8 1-1.8 1.6-2.7z"/><path fill="#B4B4B4" d="M22.4 74.8c.3.2.7.5 1 .7-.4.9-.9 1.8-1.4 2.7-.4-.2-.7-.4-1.1-.7.6-.8 1.1-1.7 1.5-2.7z"/><path fill="#848484" d="M44.3 75.3c.4-.2.8-.4 1.2-.5.1.1.2.2.3.2-.3.8-.8 1.6-1.1 2.4-.5.2-1 .4-1.4.6.1-1 .8-1.8 1-2.7z"/><path fill="#9C9C9C" d="M42.7 75.8c.5-.2 1.1-.4 1.6-.6-.2 1-.9 1.7-1.1 2.7l-1.5.6c.2-.7.6-1.3.9-1.9.1-.3.1-.5.1-.8z"/><path fill="#9B9B9B" d="M23.4 75.5c.4.2.7.4 1.1.6-.5.9-.8 1.9-1.5 2.7-.3-.2-.7-.3-1-.5.5-.9 1-1.8 1.4-2.8z"/><path fill="#B5B5B5" d="M41.1 76.3c.5-.2 1.1-.3 1.6-.5 0 .2.1.5-.1.7-.3.6-.7 1.3-.9 1.9l-1.8.6c.3-.9.9-1.7 1.2-2.7z"/><path fill="#858585" d="M24.5 76.1c.4.2.7.3 1.1.5-.4.9-.9 1.9-1.5 2.7-.4-.1-.8-.3-1.2-.5.8-.8 1.1-1.8 1.6-2.7z"/><path fill="#D2D2D2" d="M38.8 77c.8-.2 1.6-.4 2.3-.6-.3 1-.9 1.8-1.2 2.7l-2.4.6c.4-.9 1-1.8 1.3-2.7z"/><path fill="#727272" d="M25.6 76.6c.4.1.8.3 1.2.4-.2.7-.6 1.4-1 2.1-.1.2-.3.4-.6.6-.4-.1-.7-.2-1.1-.4.6-.9 1.1-1.8 1.5-2.7z"/><path fill="#636363" d="M26.8 76.9c.5.1.9.2 1.4.3-.5.9-.8 1.9-1.6 2.7-.5-.1-.9-.2-1.4-.3.2-.2.4-.3.6-.6.4-.6.7-1.3 1-2.1z"/><path fill="#F8F8F8" d="M34.1 77.6c1.6-.1 3.1-.3 4.7-.7-.2 1-.8 1.8-1.2 2.7-1.5.3-3.1.6-4.6.7.1-1 .8-1.7 1.1-2.7z"/><path fill="#545454" d="M28.2 77.3c.8.2 1.7.2 2.5.3-.3.9-1 1.7-1.3 2.7-.9 0-1.9-.2-2.8-.4.8-.7 1.1-1.7 1.6-2.6z"/><path fill="#878787" d="M31.5 77.7h.6c-.3 1-1 1.7-1.2 2.7h-.6c.2-1 .8-1.8 1.2-2.7z"/><path fill="#9F9F9F" d="M32.1 77.7h.7c-.4.9-1 1.8-1.3 2.7h-.6c.2-1 1-1.8 1.2-2.7z"/><path fill="#B9B9B9" d="M32.8 77.7h.6c-.3.9-.9 1.7-1.2 2.6.2 0 .3.1.5.1h-1.2c.3-1 1-1.8 1.3-2.7z"/><path fill="#D5D5D5" d="M33.4 77.7h.7c-.3 1-1 1.7-1.2 2.7h-.2c-.2 0-.3-.1-.5-.1.3-1 .9-1.7 1.2-2.6z"/></svg>