<svg xmlns="http://www.w3.org/2000/svg" viewBox="0 0 150 150"><path d="M58.7 64.4l.1 26.5h12c3.3 0 4.4-2.2 4.4-2.3l.3-.7-.8.1c-3.5 1.1-8.1.9-10.6.8h-.6V69.3c0-4.3-4.3-5.3-4.4-5.3l-.4-.1v.5zm32.4.2c-.4.6-12.6 23.1-14 25.7l-.2.4.4.1c.1 0 2.1.6 3.9-2.2.9-1.4 8.1-14.9 9.7-17.9.5 1 4 7.6 4.4 8.5h-4.9c-2.2 0-3.2 1.4-3.2 1.5l-.3.5h9.4c.6 1.2 3.3 6.4 3.8 7.1 1.1 1.7 3 2.2 4.3 2.3l1.9-.2-.3-.4c-2.2-4.2-13.2-25-13.5-25.4-.2-.3-.5-.4-.7-.4-.3 0-.5.2-.7.4zm9.5-.2l-.5.1.3.4c.6.8 11.1 13.9 11.7 14.8v.8c0 1.7.1 4.8.1 7.1 0 1.3 0 2.3-.1 2.7l-.1.4 2.3-.1 2.8.1v-.4c-.1-.4-.4-9.4-.4-10.8.9-1.2 10.2-13 11.7-14.7l.5-.6h-.7c-.1 0-2.3 0-4.8 3l-4.7 6.1s-2.6 3.3-3 3.9c-1.9-2.5-5.9-7.8-7.5-9.7-3.6-4.1-7.5-3.1-7.6-3.1zM17.9 75c0 9.3 8.3 16.9 18.4 16.9 10.2 0 18.4-7.6 18.4-16.9 0-9.3-8.3-16.9-18.4-16.9-10.1 0-18.4 7.6-18.4 16.9zm6 4.9c-1.6-4-1.5-8.4.1-12 1.4-3.2 3.9-5.7 7-6.9 6.9-2.7 15.1 1.3 18.1 9 3 7.7-.2 16.2-7.1 19-7 2.7-15.1-1.3-18.1-9.1zm104.2-10.5c0-1.1.9-2.1 2-2.1s2 .9 2 2.1c0 1.1-.9 2.1-2 2.1-1.1-.1-2-1-2-2.1zm3.6 0c0-1-.8-1.7-1.7-1.7-.9 0-1.7.7-1.7 1.7s.8 1.7 1.7 1.7c1 0 1.7-.7 1.7-1.7zm-2.4-1.2h.8c.5 0 .8.2.8.7 0 .4-.2.6-.6.6l.6 1h-.4l-.6-1h-.3v1h-.4v-2.3zm.4 1h.4c.3 0 .5 0 .5-.3s-.2-.3-.5-.3h-.4v.6z" fill="#333"/></svg>