<svg xmlns="http://www.w3.org/2000/svg" viewBox="0 0 150 150"><path d="M13 62.8h4.9l9.3 20.8 9-20.8h4.3L28.4 88.9h-3L13 62.8zm31.9 26.1h4.2V62.8h-4.2v26.1zm61.6.1h-4.2V77.2H87.4V89H83V63h4.4v11h14.9V63h4.2v26zm3.6-26.4h5.2l8.8 12.4 8.3-12.2h4.6l-10.7 15.6v10.5h-4.6V78.4l-11.6-15.8zm-31.7 3.6V63c-2.5-.7-5.4-1-7.6-1-6.9 0-13.7 2.9-16.6 9.3-1.7 3.4-1 8.5 1.2 11.7 5.6 7.1 15.7 7.3 23.9 5.1v-3c-.3 0-.3 0-.5.2-5.9 2-12.7 3-18.5-3-2.2-2.7-2.9-6.6-1.9-10 1.9-5.1 6.4-7.8 12-7.3 0-.2 3.9-.3 8 1.2zM25.7 99.5h1.4v.6H25v-5.3h.7v4.7zm10-1.5H34l.8-2.2.9 2.2zm.4.5l.5 1.5h.7l-2.4-5.6-2.4 5.6h.7l.5-1.5h2.4zm7.6-1h.5c.7 0 1.4.2 1.4 1s-.7 1-1.2 1h-.7v-2zm-.5 2.6h1.2c1 0 1.9-.5 1.9-1.5 0-.7-.3-1.2-1-1.4.3-.2.5-.5.5-1 0-1-.8-1.4-1.7-1.4h-.8v5.3h-.1zm.5-4.8h.2c.8 0 1.4 0 1.4.8s-.7.8-1.4.8h-.2v-1.6zm11.1-.2c1.2 0 2 1 2 2.2 0 1.2-.8 2.2-2 2.2s-2.2-1-2.2-2.2c0-1.1.9-2.2 2.2-2.2zm0-.5c-1.5 0-2.9 1.2-2.9 2.7 0 1.5 1.4 2.7 2.9 2.7 1.4 0 2.7-1.2 2.7-2.7.1-1.5-1.3-2.7-2.7-2.7zm8.7.7h.2c.7 0 1.4 0 1.4 1 0 .7-.7.8-1.4.8h-.2v-1.8zm0 2.4h.2l1.5 2.4h.7l-1.7-2.4c.8-.2 1.4-.7 1.4-1.5 0-1.2-.8-1.4-1.9-1.4h-.8v5.2h.7v-2.3h-.1zm10.7.3h-1.9l1-2.2.9 2.2zm.1.5l.7 1.5h.7l-2.4-5.6-2.5 5.6h.7l.7-1.5h2.1zm7.6 1.6h-.6v-4.8h-1.2v-.5h3v.5h-1.2v4.8zm8.7-5c1.2 0 2.2 1 2.2 2.2 0 1.2-1 2.2-2.2 2.2-1.2 0-2-1-2-2.2-.1-1.1.8-2.2 2-2.2zm0-.5c-1.5 0-2.7 1.2-2.7 2.7 0 1.5 1.2 2.7 2.7 2.7 1.5 0 2.9-1.2 2.9-2.7 0-1.5-1.4-2.7-2.9-2.7zm8.6.2h.7v5.3h-.7v-5.3zm7.6.5h.2c.8 0 1.4 0 1.4 1 0 .7-.7.8-1.2.8h-.3v-1.8h-.1zm0 2.4h.2l1.7 2.4h.7l-1.7-2.4c.8-.2 1.4-.7 1.4-1.5 0-1.2-1-1.4-2-1.4h-.7v5.2h.5v-2.3h-.1zm8.3-2.9h2.9v.5h-2.2v1.5h2v.5h-2v2.2h2.2v.6h-2.9v-5.3zm10.7 1c-.3-.3-.5-.7-1-.7s-.8.3-.8.8.5.7.8.8l.3.2c.7.3 1.2.7 1.2 1.5s-.7 1.5-1.5 1.5-1.5-.5-1.7-1.4l.5-.2c.2.7.5 1 1.2 1 .5 0 1-.3 1-1s-.5-.8-1-1l-.3-.2c-.5-.3-1-.5-1-1.4 0-.8.7-1.4 1.4-1.4s1.2.3 1.4.8l-.5.7z" fill-rule="evenodd" clip-rule="evenodd" fill="#333"/></svg>