<svg xmlns="http://www.w3.org/2000/svg" viewBox="0 0 150 150"><g fill="#333"><path d="M32.8 71.1h-7.3v2.6h7.3c1 0 1.8.8 1.8 1.8v.6h-6c-2.4 0-4.4 2-4.4 4.4 0 2.4 2 4.4 4.4 4.4h8.6v-9.5c0-2.3-2-4.3-4.4-4.3zm1.8 11.2h-6c-1 0-1.8-.8-1.8-1.8s.8-1.8 1.8-1.8h6v3.6zm20.5-11.2H43.6c-2.4 0-4.4 2-4.4 4.4V85h2.6v-9.4c0-1 .8-1.8 1.8-1.8h4.3v11.3h2.6V73.8h4.6c1 0 1.8.8 1.8 1.8V85h2.6v-9.5c0-2.4-2-4.4-4.4-4.4zm16.7 6.6l-2.9-.9-4.1-1.3c-.4-.1-.6-.5-.6-.9 0-.5.4-.9.9-.9h7.7v-2.6h-7.7c-2 0-3.5 1.6-3.5 3.5 0 1.5.9 2.8 2.2 3.3l7 2.2c.5.2.8.6.8 1.1 0 .6-.5 1.2-1.2 1.2h-8.9V85h8.9c2.1 0 3.8-1.7 3.8-3.8-.1-1.6-1-2.9-2.4-3.5zm34.5-6.6h-4.5c-2.4 0-4.4 2-4.4 4.4v9.4h2.6v-9.4c0-1 .8-1.8 1.8-1.8h4.5c1 0 1.8.8 1.8 1.8v9.4h2.6v-9.5c.1-2.3-1.9-4.3-4.4-4.3zm13.7 9.4v-6.8h4.1v-2.6H120v-2.6h-2.6v12.1c0 2.4 2 4.4 4.4 4.4h3.7v-2.6h-3.7c-1-.1-1.8-.9-1.8-1.9zm-7.2 4.5h2.6V71.1h-2.6V85zm22.4-13.9h-3.8c-2.4 0-4.4 2-4.4 4.4v5c0 2.4 2 4.4 4.4 4.4h6.9v-2.6h-6.9c-1 0-1.8-.8-1.8-1.8V79h10v-3.5c0-2.4-2-4.4-4.4-4.4zm1.8 5.4h-7.4v-.9c0-1 .8-1.8 1.8-1.8h3.8c1 0 1.8.8 1.8 1.8v.9zm-117.2.1l-4.2-1.3-4.4-1.4c-.6-.2-1-.7-1-1.3 0-.8.7-1.4 1.4-1.4h9.5v-2.6h-9.5c-2.2 0-4.1 1.8-4.1 4.1 0 1.7 1 3.2 2.5 3.8l8.6 2.7c.7.2 1.2.9 1.2 1.6 0 1-.8 1.7-1.7 1.7H7.5v2.6h10.6c2.4 0 4.3-2 4.3-4.4.2-1.9-.9-3.5-2.6-4.1zm68.4.2c.4 2.2-.1 4.5-1.8 6.3-1.6 1.7-4 2.5-6.2 2.2.3.6.7 1.1 1.2 1.5 2.5 2.3 6.3 2.2 8.6-.3s2.2-6.3-.3-8.6c-.4-.5-.9-.9-1.5-1.1z"/><path d="M85.4 73.7c-.5.5-.8 1-1.1 1.6 2.2-.4 4.5.1 6.3 1.8 1.7 1.6 2.5 4 2.2 6.2.6-.3 1.1-.7 1.5-1.2 2.3-2.5 2.2-6.3-.3-8.6-2.4-2.4-6.3-2.2-8.6.2z"/><path d="M82.9 79.2c-.4-2.2.1-4.5 1.8-6.3 1.6-1.7 4-2.5 6.2-2.2-.3-.6-.7-1.1-1.2-1.5-2.5-2.3-6.3-2.2-8.6.3s-2.2 6.3.3 8.6c.3.5.9.9 1.5 1.1z"/><path d="M85.7 82.3c.5-.5.8-1 1.1-1.6-2.2.4-4.5-.1-6.3-1.8-1.7-1.6-2.5-3.9-2.2-6.2-.6.3-1.1.7-1.5 1.2-2.3 2.5-2.2 6.3.3 8.6 2.4 2.4 6.3 2.2 8.6-.2zm54.9-13.9c-1 0-1.8.7-1.8 1.7s.8 1.7 1.8 1.7c.9 0 1.8-.7 1.8-1.7 0-.9-.8-1.7-1.8-1.7zm0 3.2c-.8 0-1.4-.6-1.4-1.4 0-.8.6-1.4 1.4-1.4.8 0 1.4.6 1.4 1.4 0 .8-.6 1.4-1.4 1.4z"/><path d="M141.4 69.7c0-.4-.2-.6-.7-.6h-.8v2h.3v-.9h.3l.5.9h.3l-.6-.9c.5 0 .7-.1.7-.5zm-1.2.3v-.6h.4c.2 0 .4 0 .4.3s-.2.3-.5.3h-.3z"/></g></svg>