<svg xmlns="http://www.w3.org/2000/svg" viewBox="0 0 150 150"><path d="M130.1 102.5s-4.8-7.9-20.7-7.9c-13.4 0-27.1 5.1-27.1 5.1l-14.7 4.7s-15.2 5.2-27.2 5.2c-13.9 0-20.5-7.2-20.5-7.2V86.6s6.6 8 20.5 8c12 0 27.2-5.2 27.2-5.2l14.7-4.7s13.7-5.1 27.1-5.1c16 0 20.7 7 20.7 7v15.9zM22.7 71.2v-6.7H24c1.5 0 3.1 0 4.2 1.4.6.8.7 1.8.7 2.1 0 1-.4 1.6-.6 2-.7 1-1.7 1.1-2.9 1.2h-2.7zm-2.5 2.1h3.9c2.3 0 4.6-.1 6.1-2.2.9-1.3 1-2.7 1-3.2 0-2.2-1-3.4-1.7-3.9-.5-.4-1.1-.6-1.6-.9.6-.3.8-.5 1-.7 1.4-1.3 1.6-3 1.6-3.7 0-1.4-.5-2.3-.8-2.7-.7-1-1.8-1.8-4.3-2h-5.1v19.3h-.1zm2.5-10.9v-6.2H24c1.2 0 2.5 0 3.4 1.1.3.3.6.8.6 1.8 0 1.5-.8 2.7-2.3 3.1-.3.1-.7.1-1.5.2h-1.5zM34.1 54h2.4v19.3h-2.4V54zm15.3 17.4c-3.4.1-5.2-1.7-6-2.7-1.5-2-1.7-4.2-1.7-5 0-1.1.2-3.9 2.7-6 .8-.6 2.3-1.7 4.8-1.7 3 0 5.7 1.6 6.9 4.4.6 1.4.6 2.7.6 3.2 0 3.5-1.9 5.4-2.9 6.2-1.7 1.3-3.6 1.5-4.4 1.6zm-.2 2.3c4.1-.1 7.7-2.2 9.3-6 .8-1.7.8-3.4.8-4.1 0-1.3-.3-4.8-3.2-7.4-2.6-2.3-5.6-2.5-6.8-2.5-4.3 0-6.8 2.2-7.9 3.6-2 2.5-2.2 5.3-2.2 6.4 0 4 2.2 7.7 5.9 9.2 1.8.7 3.4.8 4.1.8zm13.6-.4v-17h-4.7V54h12v2.3h-4.8v17h-2.5zm23.4-2.2v-7.2h7.5v-2.2h-7.5v-5.4h7.6V54H83.7v7.8h-9.5V54h-2.4v19.3h2.4v-9.2h9.5v9.2h10.2v-2.2h-7.7zM99 62.4v-6.2h2c1.3 0 2.7.1 3.4 1.3.4.6.5 1.1.5 1.8 0 1.5-.8 2.3-1.3 2.6-.7.4-1.6.5-3.3.5H99zm8.9 10.9l-5.3-9c.3-.1 1.4-.2 2.3-.7.7-.4 1-.7 1.3-1 1.1-1.3 1.2-3 1.2-3.6 0-1.6-.5-2.6-.9-3.1-1-1.4-2.6-1.8-4.3-1.9h-5.6v19.3H99v-8.9h1.1l5 8.9h2.8zm19.6.1l-1.6-10.2c-.2-.9-.3-1.9-.4-2.8-.2.5-.4 1-.6 1.4l-5 12h-.7l-4.7-11.3c-.2-.4-.3-.7-.4-1-.1-.4-.3-.8-.4-1.2l-.5 3.3-1.6 9.7h-2.4l3.6-19.8h.4l5.1 12.3c.2.6.5 1.3.7 1.9.2.5.4 1.1.6 1.6.4-1.1.8-2.2 1.3-3.3l5.2-12.5h.4l3.4 19.8h-2.4v.1z" fill-rule="evenodd" clip-rule="evenodd" fill="#333"/></svg>