<svg xmlns="http://www.w3.org/2000/svg" viewBox="0 0 150 150"><path d="M99.5 85.5h1l2.4 3.2v-3.2h1v4.2h-1.1l-2.5-3.1v3.1h-.8v-4.2zm7.4 0h3.6v.7h-2.8v1.1h2.6v.6h-2.6v1.2h2.8v.6h-3.6v-4.2zm6 0h.9l1.1 3.3 1-3.3h.9l1 3.3.9-3.3h1l-1.4 4.2h-.9l-1.1-3.1-1.1 3.1h-.9l-1.4-4.2zm12.9 2.6l-1.9-2.6h1.1l1.1 1.9 1.2-1.9h1.1l-1.8 2.6v1.6h-.8v-1.6zm7.5 1c-1 0-1.6-.6-1.6-1.5s.6-1.6 1.6-1.6c.9 0 1.5.6 1.5 1.6-.1 1-.6 1.5-1.5 1.5zm0 .7c1.8 0 2.4-1 2.4-2.1 0-1.2-.6-2.2-2.4-2.2-1.8 0-2.5 1-2.5 2.2 0 1.1.7 2.1 2.5 2.1zm6.1-2.4v-1.2h1.6c.5 0 .7.2.7.6 0 .5-.3.6-.7.6h-1.6zm-.9 2.3h.8V88h1.5c.6 0 .7.5.7 1 0 .4.1.6.1.6h1c-.2-.2-.2-.6-.2-.8 0-.6-.2-1-.6-1.2.4-.1.7-.5.7-1 0-.6-.4-1.1-1.5-1.1h-2.6v4.2h.1zm7-4.2h.9v2l2.1-2h1.2l-1.9 1.7 2 2.5h-1.2l-1.6-1.9-.6.6v1.3h-.9v-4.2zM.2 71.8h2.2l4 8.1 3.9-8.1h2.2v9.7h-1.6v-8.1L7 81.5H5.6l-3.8-8.1v8.1H.2v-9.7zM24.8 73l2.1 4.5h-4.3l2.2-4.5zm-5.7 8.5h1.8l1.4-3h5.2l1.4 3h1.8l-4.9-9.7H24l-4.9 9.7zm21.7-4v4h-1.7v-4l-4.8-5.7h2l3.7 4.6 3.7-4.6h1.8l-4.7 5.7zm12.7-.5h3.8c1.4 0 2.7.4 2.7 1.7 0 1-.9 1.7-2.3 1.7h-4.2V77zm-1.6 4.5h5.9c2.5 0 3.8-1.4 3.8-2.8 0-1.2-.8-2.1-2.4-2.3 1.2-.4 1.8-1.2 1.8-2.2 0-.9-.6-1.7-1.4-2-.7-.4-2.2-.4-3.3-.4h-4.4v9.7zm1.6-8.6h3.3c1.5 0 2.7.2 2.7 1.6 0 1-.8 1.5-2.7 1.5h-3.3v-3.1zM69 71.8h8.5v1.1h-6.8v3H77V77h-6.3v3.4h6.9v1.1H69v-9.7zm15.9 0h1.6v8.6H93v1.1h-8.1v-9.7zm14.5 0h1.7v8.6h6.5v1.1h-8.2v-9.7zm15 0h1.7v9.7h-1.7v-9.7zm9.3 0h1.8l6.6 7.8v-7.8h1.5v9.7h-1.7l-6.6-7.8v7.8h-1.6v-9.7zm17.5 0h8.6v1.1h-6.9v3h6.4V77h-6.4v3.4h6.9v1.1h-8.6v-9.7z" fill-rule="evenodd" clip-rule="evenodd" fill="#333"/></svg>