<svg xmlns="http://www.w3.org/2000/svg" viewBox="0 0 150 150"><g fill="#333"><path d="M19.9 61.7v38.4h111.5V61.7H19.9zm55.8 37.4c-30.3 0-54.9-8.2-54.9-18.2 0-10.1 24.6-18.2 54.9-18.2 30.3 0 54.9 8.2 54.9 18.2 0 10.1-24.6 18.2-54.9 18.2z"/><path d="M45.3 88.5c.3 0 .4-.1.2-.3-.1-.1-.3-1-.3-1.8V76c0-.9.2-1.7.3-1.8.1-.2 0-.3-.2-.3H36c-.3 0-.4.1-.2.3.1.1.3 1 .3 1.8v10.3c0 .9-.2 1.7-.3 1.8-.1.2 0 .3.2.3h9.3v.1zm14.1-9.4l3.4-4.6c.1-.1.1-.3.1-.4 0-.1 0-.2.1-.2h9.2c.1 0 .1.1 0 .2l-3.8 5.3c-.2.2-.1.4 0 .7l5.2 8.3c.1.1.1.2 0 .2H62.4c-.1 0-.1-.1-.1-.2s.2-.8 0-1l-2.9-4.5v3.5c0 .9.2 1.7.3 1.8.1.2 0 .3-.2.3h-9.1c-.3 0-.4-.1-.2-.3.1-.1.3-1 .3-1.8V76c0-.9-.2-1.7-.3-1.8-.1-.2 0-.3.2-.3h9.1c.3 0 .4.1.2.3-.1.1-.3 1-.3 1.8v3.1zm26.2 4c0-.1 0-.3.3-.3h3.6c.4 0 1.7 0 1.8.1.1.1.3 0 .3-.2v-3.5c0-.2-.1-.3-.3-.2-.1.1-1.5.1-1.8.1h-3.6c-.2 0-.3-.2-.3-.3v-.7c0-.1 0-.3.3-.3h5.2c.9 0 1.7.2 1.8.3.2.1.3 0 .3-.2v-4H76.9c-.3 0-.4.1-.2.3.1.1.3.9.3 1.8v10.2c0 .9-.2 1.7-.3 1.8-.1.2 0 .3.2.3h16.3V84c0-.3-.1-.4-.3-.2-.1.1-.9.3-1.8.3h-5.2c-.2 0-.3-.2-.3-.3v-.7zm33.3 5.3s-5.4-12.8-5.5-13.1c-.1-.2-.2-.6 0-.9.1-.3 0-.4-.2-.4h-12.6c-.2 0-.3.1-.2.4.1.3.1.7 0 .9-.1.2-4.9 13.1-4.9 13.1h7.8c.2 0 .2-.1.2-.2-.1-.1-.1-.4 0-.6l.4-1.4c.1-.4.3-.4.7-.4h3.4c.3 0 .5.1.7.4l.4 1.4c.1.2.1.5 0 .6-.1.1 0 .2.2.2h9.6zm-13.8-5.6c-.1 0-.1-.1-.1-.2l.8-2c0-.1.1-.1.1-.1.1 0 .1.1.1.1l.8 2c0 .1 0 .2-.1.2h-1.6zm30.6-19.7c.5 0 1 0 1-.6 0-.5-.4-.6-.9-.6h-.8v1.2h.7zm-.7 2.2h-.6v-4h1.5c.9 0 1.4.3 1.4 1.1 0 .7-.4 1-1 1.1l1.1 1.7h-.7l-1-1.7h-.7v1.8zm.8.9c1.6 0 2.8-1.2 2.8-2.9 0-1.6-1.2-2.9-2.8-2.9-1.6 0-2.8 1.2-2.8 2.9 0 1.6 1.2 2.9 2.8 2.9zm-3.5-2.9c0-2 1.6-3.4 3.5-3.4s3.5 1.5 3.5 3.4c0 2-1.6 3.4-3.5 3.4s-3.5-1.4-3.5-3.4z"/></g></svg>