<svg xmlns="http://www.w3.org/2000/svg" viewBox="0 0 150 150"><g fill-rule="evenodd" clip-rule="evenodd" fill="#333"><path d="M61.4 94v4.9c-.5.4-1.7 1.2-2.6.8-1.2-.5-1.1-4.9-.1-5.8.6-.6 2-.5 2.7.1zm0-3c-.4-.1-.7-.3-1.2-.4-1.3-.3-2.8 0-3.9.6-2.8 1.7-2.7 7-1.8 9.3 1 2.5 3.5 2.9 5.7 2 .7-.3 1.4-.8 1.7-.9.1.6.2 1.1.9 1.1h2.5V85.3h-3.8c-.2 1.3 0 4.2-.1 5.7zm54.2 7.9c-.5.4-1.6 1.2-2.6.9-.8-.3-.9-1.7-.9-2.7 0-1.1.1-2.3.8-2.9.8-.7 2-.3 2.7.1v4.6zm-7.4-1.8c0 3.1.9 5.8 4.1 5.8 2.1 0 3-1 3.8-1.3.1.6.1 1.1.9 1.1h2.5V85.3h-3.8v6c-.8-.2-1.2-.5-2.2-.5-4.2 0-5.3 2.6-5.3 6.3zm-36.1 2.3v-4.9c.5-.4 1.7-1.3 2.6-.8.7.4.8 1.8.9 2.8 0 1.1 0 2.4-.6 3-.7.7-2.2.4-2.9-.1zm-3.9 8.3h3.9v-5.3c.9.1 1.3.6 3.1.4 3.6-.4 4.4-3.5 4.3-6.7-.1-3.8-1.5-6.2-5.3-5.6-1.3.2-1.7.7-2.6 1.1-.4-.6.1-1.1-1.1-1.1-.6 0-1.8-.1-2.3 0v17.2zm30.3-13c.5-.4 1.5-1 2.4-.9 1.1.1 1 1.3 1 2.3v6.6h3.9v-5.2c0-1.5.1-3.7-.3-4.9-.5-1.3-1.6-1.9-3.3-1.9-2.7 0-3.2.8-4.1 1.1-.2-1.5-.5-1.1-3.3-1.1-.1.5 0 11.3 0 12.1h3.9l-.2-8.1zm-52.7-1.2c2-.4 2.3.8 2.4 2.6 0 .8 0 1.7-.1 2.4-.1.8-.4 1.3-1.2 1.4-2.1.4-2.4-.8-2.5-2.6 0-.8 0-1.7.1-2.4.2-.9.5-1.3 1.3-1.4zm6.2 4.2c.2-1.7.1-3.8-.7-5.2-.7-1.3-2-1.9-4-2-4.3-.2-6.5.9-6.8 5.1-.2 3.8.5 6.9 4.7 7.3 4.3.3 6.4-1.3 6.8-5.2zm-17.3 0c-.1.7-.2 1.6-.6 1.9-.5.4-1.6.4-2.2.1-1.1-.5-1-3-.9-4.3.1-.7.2-1.5.7-1.9.4-.3 1.6-.3 2.1-.1.6.3.8.9.8 1.7.1.9.1 1.9.1 2.6zm-7.6-.8c0 3.9 1.5 6 5.5 6s6-1.9 6-6.1c0-4.1-.8-6.3-5.4-6.3-1.1 0-2 0-3 .3-2.7.9-3.1 3.3-3.1 6.1zm60.6 2.2c-.5.5-1.8 1.2-2.7.9-.7-.3-.8-1.7.5-2.2.5-.2 1.6-.3 2.2-.2v1.5zm-5.1-5.2c1.1-.1 2.1-.4 3.3-.4 1.6 0 1.8.3 1.8 1.9-1.8 0-3.4 0-4.9.8-1.2.6-1.9 2-1.7 3.9.2 1.6 1.2 2.6 2.7 2.9.9.1 1.7 0 2.4-.2.9-.3 1.6-.8 1.9-.9.3.6-.1 1 1.2 1 .5 0 1.7.1 2.2 0v-5.5c0-1.5.2-3.8-.5-5-1.3-2.4-6.6-1.6-8.9-1l.5 2.5zm45.8 5.3c-.4.3-1 .7-1.6.9-.8.2-1.5.1-1.5-.7-.1-1.6 1.7-1.8 3.2-1.7l-.1 1.5zm-5.1-5.3c.5 0 1.9-.4 3.3-.4 1.6 0 1.9.3 1.9 1.8-.9.1-1.8 0-2.7.1-2.4.3-4.2 1.5-3.8 4.5.4 3.2 3.6 3.6 6.2 2.2.2-.1.7-.4.9-.5.2.9.2 1 1.2 1h2.2v-5.5c0-4.1.5-6.4-4.4-6.6-1 0-4.3.2-5 .6l.2 2.8zM19.4 91h-1.7v2.9h1.7v8.8h3.8v-8.8c.8-.1 1.8-.1 2.4-.5.5-.5.6-1.5.6-2.4h-3c-.3-4 1.3-3.2 3.5-3l.3-2.8c-1.8-.5-4.6-.4-6 .5-.7.4-1.1 1.1-1.4 2.1-.2 1.1-.1 2-.2 3.2zm52.8-47.2c11.9-1.6 17 6 20 14.8.9 2.6 1.4 4.6.5 7.4-.7 2.4-2.1 4.2-3.4 5.5-2.8 3-7.3 5.2-11.6 5.9-5.1.8-10.6-.9-14-3.2-.8-.6-1.9-1.3-2.5-2-.4-.5-.6-.7-1.1-1.1-1.5-1.3-3.3-4.7-3.5-7.5-.3-4.3 2.9-10.4 4.7-13.1 2.2-3.1 5.5-6 10.9-6.7zm-15.6 2.4c0 1.9.8 3.5 2.4 3.9l-1.4 2.7c-1.1 2.1-3.1 7.4-3.1 9.7 0 3.3.6 5.6 2.4 8.2 3.5 4.9 10.1 8.9 16.1 9.2.9 0 1.2.3 2.2.2l4.1-.6c1.2-.3 2.5-.7 3.5-1.1 3.2-1.3 6.7-3.4 8.8-6.1 4.3-5.5 4.7-9.3 2-16-.5-1.2-.8-2.1-1.3-3.1-.3-.6-.4-.9-.7-1.5-.3-.7-.6-.8-.6-1.6 2.6-.7 3.4-5 .6-7.8-1.9-1.9-4.8-2.8-6.9-1.1-.7.6-.8 1.2-1.3 2.1-4.7-2.5-12.3-2.5-17 0-.3-3.3-5.5-4.1-8.1-1.1-.9 1.1-1.7 2.4-1.7 4z"/><path d="M69.7 61.4c.7-1.2 1.4-2.5 2.1-3.8.5-1 .7-1 .4-2.3-.6-2.5-2.6-4.2-5.3-3.6-2.7.6-4.9 3.4-5.4 6.4-.6 3.7 1.5 7.4 5.4 6.4 1.6-.3 1.5-.9 2.8-3.1zm-5.2-3.7c0-1.4 1.1-2.6 2.6-2.6 1.4 0 2.6 1.1 2.6 2.6 0 1.4-1.1 2.5-2.6 2.5-1.5.1-2.6-1.1-2.6-2.5zm23.4-1.4c-1-2.2-3.7-5.5-7.2-4.4-2.1.7-4 3.5-2.7 5.6l3.2 5.6c.5.9.4 1.1 1.5 1.4 4.6 1.4 7.1-3.6 5.2-8.2zm-5 4c-1.4 0-2.6-1.1-2.6-2.5s1.1-2.6 2.6-2.6c1.4 0 2.5 1.1 2.5 2.6.1 1.3-1.1 2.5-2.5 2.5zm-.7 5.3c-.6 1.7-.6 2.5-2.2 3.2-1.9.9-3 .2-4.4-.4v-2.5c2.9-.7 4.3-5-.7-5-1.5 0-3.4.6-3.2 2.3.1 1.2 1.5 2.5 2.6 2.7v2.4c-2 1.1-4.3 1.4-5.9-.9-.7-1-.2-1.3-.9-1.9-.9.6-.7 2.9-.4 4.1 2 8 14.1 7.9 15.8-.4.2-.9.5-3.2-.7-3.6zm-11.1 5.6c1.3.5 2.6.3 3.9-.9.9 1.1 2.1 1.4 3.9.8-1.7 3.2-6.1 3.3-7.8.1z"/><path d="M68.3 57.7c0-.7-.6-1.3-1.3-1.3-.7 0-1.3.6-1.3 1.3 0 .7.6 1.3 1.3 1.3.7 0 1.3-.6 1.3-1.3zm14.6-1.2c-.7 0-1.3.6-1.3 1.3 0 .7.6 1.3 1.3 1.3.7 0 1.3-.6 1.3-1.3 0-.8-.6-1.3-1.3-1.3z"/></g></svg>