<svg xmlns="http://www.w3.org/2000/svg" viewBox="0 0 150 150"><path fill-rule="evenodd" clip-rule="evenodd" fill="#333" d="M101.9 85.8h-3.3l9.6-18.8h3.8l9.6 18.8h-3.3l-2.5-4.9h-11.3l-2.6 4.9zm12.7-7.2l-4.5-8.8-4.5 8.8h9zM87 66.5l2.2-2.6h5L87 66.5zm-6.4 19.4h16.8v-2.1H83.5v-6.5h10.3V75H83.5v-5.9h13.8V67H80.6v18.9zM57.8 67h12.4c3.3 0 6 2.5 6 5.5 0 2.6-2.1 4.8-4.8 5.3l5.8 8h-3.4L68.1 78h-7.7v7.9h-2.6V67zm12.5 2.3h.8l.2.1.2.1.1.1.1.1.1.1.1.1.1.1.1.1.1.1.1.1.1.1.1.1.1.1.1.1.1.1.1.1.1.1.1.1.1.1v1.6l-.2.8-.1.1-.1.1-.1.1-.1.1-.1.1-.1.1-.1.1-.1.1-.1.1-.1.1v.4l-.1.1-.1.1-.1.1-.1.1-.1.1-.2.1H60.4v-6.5H70l.3.2zm-28.6-3.4c-5.3 0-9.6 4.3-9.6 9.6s4.3 9.6 9.6 9.6 9.6-4.3 9.6-9.6-4.3-9.6-9.6-9.6zm0-2.1c-7.1 0-12.8 5.3-12.8 11.8 0 6.5 5.7 11.8 12.8 11.8 7.1 0 12.8-5.3 12.8-11.8 0-6.6-5.7-11.8-12.8-11.8zM10.2 85.9V67.1h2.4v16.8h14.2V86H10.2v-.1zm112.7 0h16.9v-2.1h-14.2V67.1H123v18.8h-.1zM62.4 98.1H61l4.2-7.3h1.6l4.2 7.3h-1.4l-1.1-1.9h-5l-1.1 1.9zm5.5-2.8l-2-3.4-2 3.4h4zm5.8-4.5h5.2c1.4 0 2.5 1 2.5 2.1 0 1-.9 1.9-2 2.1l2.4 3.1h-1.4L78.1 95h-3v3.1h-1.4v-7.3zm5.3.9h1.1v2.6H75v-2.5h3.7l.3-.1zm-26.3-.9h5.2c1.4 0 2.5 1 2.5 2.1 0 .7-.4 1.4-1.1 1.8-.5.3-.9.3-1.5.4H54v3.1h-1.4v-7.4h.1zm5.2.9H59v2.6h-5.1v-2.5h3.7l.3-.1zm31.9 4.1l1.3-.1c.1.4.2.7.4.9.2.2.6.4 1 .6.5.1 1 .2 1.6.2.5 0 1-.1 1.4-.2.4-.1.7-.3.9-.5.2-.2.3-.4.3-.6 0-.2-.1-.4-.3-.6-.2-.2-.5-.3-.9-.4-.3-.1-.9-.2-1.8-.4s-1.6-.3-2-.5c-.5-.2-.8-.4-1.1-.7-.2-.3-.4-.6-.4-.9 0-.4.1-.7.4-1 .3-.3.7-.6 1.3-.7.6-.2 1.2-.2 1.9-.2.8 0 1.4.1 2 .3.6.2 1 .4 1.3.8.3.3.5.7.5 1.2l-1.3.1c-.1-.5-.3-.8-.7-1-.4-.2-1-.4-1.8-.4s-1.4.1-1.8.3c-.4.2-.6.5-.6.8 0 .3.1.5.4.6.3.2.9.3 2 .5s1.8.3 2.2.5c.6.2 1 .4 1.3.7.3.3.4.6.4 1s-.2.8-.5 1.1c-.3.3-.8.6-1.3.8-.6.2-1.2.3-2 .3-.9 0-1.7-.1-2.3-.3-.6-.2-1.1-.5-1.5-.9-.1-.4-.3-.9-.3-1.3zm-4.5 2.3v-5.2h1.3v5.2h-1.3zm0-5.9v-1.4h1.3v1.4h-1.3zM21.9 73.7h2.2l3.3-6.5h-2.8l-2.7 6.5z"/></svg>