<svg xmlns="http://www.w3.org/2000/svg" viewBox="0 0 150 150"><path d="M56.6 95.2v-1.7h2.6c.6 0 1.3 0 1.3.9 0 .7-.6.9-1.3.9h-2.6v-.1zm-1.2 3.4h1.2v-2.5h2.2c1.1 0 2.8 0 2.8-1.8 0-1.9-1.7-1.9-2.8-1.9h-3.4v6.2zm10.1-2.4l1.3-2.8 1.3 2.8h-2.6zm-2.4 2.4h1.3l.6-1.4h3.5l.6 1.4h1.3l-3-6.2H66l-2.9 6.2zm11.6-3.4v-1.8h2.4c1 0 1.5.2 1.5.9s-.5 1-1.5 1h-2.4v-.1zm-1.1 3.4h1.2v-2.5h1.9l1.8 2.5H80l-2-2.5c1 0 1.7-.6 1.7-1.8 0-1.5-1.1-1.8-2.5-1.8h-3.7v6.1h.1zm10-6.2h1.2v6.2h-1.2v-6.2zm9.8 2c-.2-.6-.7-1.1-2.2-1.1-.9 0-1.6.2-1.6.7 0 .3.1.5 1.4.7l1.5.2c1.4.2 2.1.7 2.1 1.7 0 1.5-1.4 2-3 2-2.7 0-3.3-1.3-3.5-1.7l1.2-.4c.2.4.7 1.1 2.4 1.1 1 0 1.8-.3 1.8-.9 0-.3-.4-.6-1.4-.7l-1.5-.2c-1.4-.1-2.2-.7-2.2-1.7 0-1.8 2.5-1.8 2.9-1.8 2.7 0 3.2 1.2 3.3 1.6l-1.2.5zm28.7-9.1c.3 3.2 1.9 2.7 2 3h-6.2c-.1-.1 1.7-.1 1.4-2.8l-1.6-12.2c-.1-.3-.1-.6-.3-.6-.1.1-5.5 13.2-5.5 13.2-.1.2-.2.3-.4 0-.1-.2-5-11-5-11-.2-.5-.6-1.4-.7-1.6-.1-.2-.3-.2-.3.6l-1.3 12.3c-.3 2.1 1.7 2 1.7 2.1h-4.5c0-.1 1.5.1 1.8-2.1l1.5-13.6c-.1-2.7-1.9-2.6-1.9-2.8h4.7v.2l4.9 10.8.2.2c.1.3.1.5.3.2l4.8-11.4h4.5c0 .2-1.8.1-1.8 2.4l1.7 13.1zM19.7 87.6h-2.5c-.9 0-1.9.1-1.9-.9V72.4c0-2.2 2.5-2.2 2.6-2.5h-7.6c-.1.2 2.4.2 2.4 2.6v13.8c0 1.8-2.6 1.8-2.6 1.9h13.4l.7-4c-.4.1-.2 3.3-4.5 3.4zm111-8.4v7c0 1.4-.1 1.5.9 1.5h4.9c4-.2 3.2-3 3.5-3.1l-.1 3.7h-13.8c-.1-.1 2 .2 2-2.8V72.6c0-3-1.9-2.6-1.9-2.8h13.7l.1 3.6c-.2 0 .5-2.9-3.6-3.1h-4.5c-.7.2-1.2-.3-1.2 1.5v4.9c0 .6.1.7 1 .7h4.5c2.1 0 1.9-2 2-2v4.8c-.1 0 .1-2.2-1.9-2.1h-4.5c-1 0-1.1.3-1.1 1v.1zm-82.5 7.1c.2 2.2 1.9 1.7 1.9 1.9h-4.8c0-.2 1.9 0 1.9-2V72.3c0-2.4-2-2.4-2.1-2.6H50l10.1 12.5-.1-10.1c0-2.5-1.9-2.2-1.9-2.4h5c0 .1-1.9.1-2 2.4v15.7s.1 1.2-.6.2c-.3-.4-12.1-15.3-12.1-15.3-.1-.2-.1 0-.1.3v13.3h-.1zm-6.5-.4l-6.7-16c-.5-.5-.7.1-.7.1-.6 1.5-6.8 16.4-6.8 16.4-.9 2-1.9 1.8-1.9 1.9H30c0-.2-2.4.1-1.5-1.9l2.2-5.7c.3-.4.3-.5.9-.5H36c.5 0 .5 0 .9.5l2.1 5.5c.6 2.1-1.3 2-1.3 2.1h6.2c-.1-.3-1.1.4-2.2-2.4zm-9.8-6.6c-.4 0-.4-.3-.2-.7 0 0 1.6-4.2 1.8-4.6.3-.6.5-.5.7 0l1.6 4.7c.2.4.4.6-.1.6h-3.8zm67-10.4l-7.5-3.6-7.4 3.6 7.4-2.2 7.5 2.2zm-7.4.5c-5.9 0-9.6 4.6-9.6 9.5s3.7 9.3 9.5 9.3 9.6-4.4 9.6-9.3-3.7-9.5-9.5-9.5zm-.1 18.2c-3.6 0-6-3.4-6-8.6 0-6 2.5-8.9 6-8.9s6 2.9 6 8.9c0 5.2-2.5 8.5-6 8.6zm-17.6-.1c4.3 0 6.1-3 6.5-3.1.1 0-2.1 3.8-6.5 3.8-9.9 0-9.8-9.1-9.8-9.1.3-6.3 5.5-10.2 10.4-9.6 1.4.2 1.9.4 2.9.6.4.2 1.7.9 2.1.6.3-.1.6-.9.7-.9v4.9c-.3 0-1.5-4.7-6.2-4.7-3.8 0-6.8 4.4-6.7 8.8 0 7.4 5.1 8.7 6.6 8.7z" fill-rule="evenodd" clip-rule="evenodd" fill="#333"/></svg>