<svg xmlns="http://www.w3.org/2000/svg" viewBox="0 0 150 150"><path d="M51.5 106.7c-.6 0-1.2.2-1.6.7-.3.3-.5.9-.7 1.6l-1.8 8.8h1.9l1.7-8.6c.1-.3.1-.5.2-.6.1-.1.2-.1.3-.1l.3.1c.1.1.1.3.2.6l1 4.9h-2.1l-.3 1.8h2.8l.4 2h1.9l-1.8-8.8c-.2-.7-.4-1.3-.7-1.6-.6-.6-1.1-.8-1.7-.8zm8.8 1c-.5.5-.8 1.2-.8 1.9 0 1.1.5 2 1.7 2.6l3.5 1.9c.5.3.8.6.8.9 0 .6-.4.9-1.2.9h-4.7v1.8h4.5l1.5-.2c.4-.1.7-.3 1-.6.5-.5.8-1.1.8-1.9 0-1.1-.6-1.9-1.7-2.6l-3.5-2c-.5-.2-.8-.5-.8-.9 0-.6.4-.9 1.2-.9H67V107h-4.1l-1.5.2c-.5 0-.8.2-1.1.5zm12.2 0c-.5.5-.8 1.2-.8 1.9 0 1.1.5 2 1.7 2.6l3.6 1.9c.5.3.7.6.7.9 0 .6-.4.9-1.2.9h-4.8v1.8h4.5l1.5-.2c.4-.1.7-.3 1-.6.5-.5.8-1.2.8-1.9 0-1.1-.5-2-1.6-2.6l-3.5-2c-.5-.2-.7-.5-.7-.9 0-.6.4-.9 1.1-.9h4.4V107H75l-1.5.2c-.4 0-.7.2-1 .5zm12.4 0c.8-.7 1.7-1.1 2.9-1.1s2.2.4 3 1.1c.6.6.9 1.5.9 2.6v3.9c0 1.2-.3 2.1-.9 2.6-.6.7-1.5 1-2.5 1.1v-1.8c.5-.1.9-.2 1.1-.5.2-.2.3-.4.4-.6 0-.2.1-.6.1-1.1v-3.4c0-.5 0-.8-.1-1-.1-.2-.2-.5-.4-.7-.3-.3-.8-.5-1.5-.5s-1.2.2-1.5.5c-.2.2-.3.4-.4.7 0 .2-.1.5-.1 1v3.4c0 .5 0 .9.1 1.1.1.2.2.4.4.6.2.2.6.4 1.1.5v1.8c-1-.1-1.8-.5-2.5-1.1-.6-.6-.9-1.4-.9-2.6v-3.9c-.1-1.1.2-2 .8-2.6zm12.1 0c.7-.7 1.7-1.1 2.9-1.1s2.2.4 2.9 1.1c.6.6.9 1.5.9 2.6v3.9c0 1.2-.3 2.1-.9 2.6-.7.7-1.5 1-2.5 1.1v-1.8c.5-.1.8-.2 1.1-.5.2-.2.3-.4.4-.6 0-.2.1-.6.1-1.1v-3.4c0-.5 0-.9-.1-1 0-.2-.2-.4-.4-.7-.3-.3-.9-.5-1.5-.5-.7 0-1.2.2-1.5.5-.2.2-.3.4-.3.7-.1.2-.1.5-.1 1v3.4c0 .5 0 .9.1 1.1 0 .2.2.4.3.6.2.2.6.4 1.1.5v1.8c-1-.1-1.8-.5-2.5-1.1-.6-.6-.9-1.4-.9-2.6v-3.9c0-1.1.3-2 .9-2.6zm12.8-.9c.7 0 1.2.4 1.6 1.2l2.1 5 1 2.6c0-.9-.1-1.7-.1-2.6v-6h1.8v9c0 .7-.2 1.2-.6 1.6-.3.3-.6.4-1 .4-.7 0-1.2-.4-1.5-1.2l-2.1-5.1-1-2.6.1 2.6v6.1h-1.8v-9c0-.7.2-1.2.6-1.6.1-.3.4-.4.9-.4zm-72.1 5.4l3.5 1.9c.5.3.8.6.8.9 0 .6-.4.9-1.2.9H36v1.8h4.5l1.5-.2c.4-.1.7-.3 1-.6.5-.5.8-1.1.8-1.9 0-1.1-.6-1.9-1.7-2.6l-3.5-2c-.5-.2-.8-.5-.8-.9 0-.6.4-.9 1.2-.9h4.4V107h-4.2l-1.4.2c-.4.1-.7.3-1 .6-.5.5-.8 1.2-.8 1.9.1 1 .6 1.9 1.7 2.5z" fill="#333"/><path fill-rule="evenodd" clip-rule="evenodd" fill="#333" d="M78 88.9h21.4c.9 0 1.8-.1 2.6-.2 2.5-.3 4.3-1.6 5-4 .8-2.6.3-5.1-1.9-6.9-1-.8-2-1.6-3-2.2-8.3-4.6-16.5-9.1-24.8-13.7-.3-.1-.6-.2-1-.4-.5 2.5-1 4.9-1.5 7.4-1.5 6.9-2.7 13.8-4.4 20.7-1.4 5.8-5.8 9.2-11.5 9.9-5.3.6-10.5-1.9-12.6-6.8-1.5-3.6-2.5-7.5-3.3-11.3-3.4-15.9-6.6-31.8-9.9-47.7-.1-.4-.1-.9-.2-1.5h10c1.2 5.9 2.7 13.1 3.9 19 2.4 11.7 4.7 23.4 7.2 35.1.2 1 .6 2 1.3 2.8 1.5 1.9 4.7 1.5 5.5-.8.9-2.3 1.3-4.7 1.8-7.1 2.4-11.8 4.8-23.7 7.2-35.5 1.8-8.5 6.3-12.7 15-13.1 9.2-.4 18.9-.3 28.1-.4v9.5H86.8c-2.9 0-5.6.6-7.1 3.6-1.3 2.5-.9 5.3 1.2 7.3.8.7 1.7 1.4 2.7 1.9 7.6 4.2 15.2 8.3 22.8 12.5 1.8 1 3.6 2.3 5.3 3.6 9 7.2 6.3 22.2-3.6 26.1-2.3.9-4.8 1.5-7.3 1.5-7.5.2-15.1.1-22.7.1l-.1-9.4z"/></svg>