<svg xmlns="http://www.w3.org/2000/svg" viewBox="0 0 150 150"><g fill-rule="evenodd" clip-rule="evenodd"><path fill="#E4E4E5" d="M108.2 59l.8-.1-.9-.1 1.9-.4c1.1-.2 1.9-.2 2.6.1l-.1.1c.6.1 1.4.1 2.5 0l2.5-.2c-.1-.1-.4-.2-.9-.2h2l.1.2c1.3-.2 3.2-.2 5.7-.1 0 .3-.1.3-.4.4l-.8.1c.2.2.6.3 1.1.2 0 .1-.2.1-.5.2s-.5.1-.6.3l.5.4s-.1.1-.4.3c-.3.1-.3.2-.3.3l-.8.4-.9.3-.2.2.3.1h.3l-.3.1c.3.1.4.3.6.4h-.3l.2.2-.4.2.3.1h.3v.1l-1.9.3c.1.1.4.2.8.1h.8c-.3.1-.7.3-1.3.3h-1.3l-.1.2v.2l1.3.1 1.3-.1-.1.1.2.3c0 .1-.1.2-.2.3l-2.4-.1.6-.1c.3 0 .5-.1.6-.3l-1.6-.3c-.6-.1-1.2 0-1.6.1l.2.1v.1l-.2.1c-.3.1-.3.2 0 .3l-.3.2.2.3c-.1.2-.4.3-.8.4-.4 0-.7.1-.8.3.1.1.3.1.8.1.3 0 .5.1.6.3.3.2.6.3 1 .2l1.2-.1v-.3l1.9-.3v.6c-.1.2-.3.3-.3.3.3.3.8.5 1.3.6l1.5.1c.4-.1.8 0 1.3.3.4.4.7.6.9.6l1.3.1c.5.1.8 0 1.1-.2l.1.1h.4l.4-.2h.6l.2.3h1.6c.6.1 1.1.2 1.4.4l-.1.6c.1.2.3.3.4.3l3.2 1-.2.3-1.7-.4c-.8-.1-1.3-.1-1.7 0 .9.4 2.3.8 4.3 1.1v.3l-1.4-.1c.1.1.2.2.5.3l.8.1h-2.2c-1.1-.3-1.8-.6-2.2-.4.3.2.8.4 1.7.5.8.1 1.3.3 1.6.6l.9.1c.1.3 0 .4-.3.6l-.8.1h-.4l-.3.1c.1.1.3.1.9.2.3.1.6.3.7.4l-1.3.3s.2.1.5.2c.2.1.3.3.2.6-.1.3-.2.6-.5.8l.1.1c-.3 0-.3.1-.4.2l-.1.4c-.1.4-.3.6-.6.6l-.1.3c-.1.2-.3.3-.3.2h-.1v.2c-.1.1-.2.1-.3.1h-.3c.1.1.2.3.1.4l-.4.5c-.2-.1-.3 0-.3.2 0 .1-.1.2-.3.3.1.2 0 .4-.2.8l-.8.4-.3.1c.1.3 0 .4-.3.5-.5.1-.8.3-.8.3.3-.1.4 0 .4.3l-.1.5-1.1.3.6.3c0 .1-.1.2-.2.3h-.4l.1.2c.1.1.2.3.1.3l-1.3.3h-.6l.1.3c-.1-.1-.3-.1-.7 0v.2h-1.3l-1.2-.3-.2-.3-.3-.3c-.4-.1-1.1-.2-2.3-.3-.9-.1-1.6-.3-2-.5l-2.6-.3c-1.1-.1-1.9-.1-2.6 0-.1.3-.3.6-.7.8l-1.1.2v.1c-.3-.1-.8 0-1.4.3-.7.4-1.1.6-1.3.6l-2.6-.1-2.6-.1v-.3l-.6.3.1-.3-1.8-.2c-.8.1-1.4.2-1.8.4l.4.1h-4.1c-.1 0-.2.1-.2.3v.1l-.7.2 1.5.3c.7.1 1.3.2 1.6.3-.1.1-.3.1-.8.2-.4 0-.6.1-.6.3l1.3.2 1.3.1h-4.1l.5-.4-.2-.2H96l-.4.1-.2.2h.6l-3.8.4-4 .2-.2-.1.3-.3h-.9c-.4 0-.8-.1-.9-.2l.3-.1-.2-.1h-.3c0 .3-.1.5-.4.6l-.7.2c.1.1.3.2.6.2.3.1.5.3.6.4h.1l-.5.5c.1.1.2.2.5.2s.4 0 .6.1l-.6.1H86c-.5.1-.8.3-.8.8l-4.5 1.4c-1.8.5-3.4.8-4.7.9l.3-.1-.5-.2.2-.2-.7.2c0 .1-.2.2-.5.2-.4.1-.6.2-.8.4h.4c-.9.4-2.2.8-4 1.1l.1-.1c-.5-.3-1.3-.3-2.1-.1l-2.1.6c-.1.4-.5.7-1.3 1-.9.3-1.6.6-1.8.8h.4l-.6.5c-4.9 1.9-9.3 3.3-13.1 4.3l.1-.1-.2-.2c-2.2.9-4.1 1.1-5.5.3-1-.3-1.6-1.1-1.9-2.3-.1-.4-.2-.9-.2-1.6l-.1-1.6c-.1-.3 0-.7.3-1.3.1-.5.2-.9.1-1.3l-1.6.1c-.1.1 0 .2.3.1.3 0 .4.1.4.2-.6.3-1.4.5-2.4.8l-2.6.4-.6.3c-.9.3-2.5.6-4.7.9-2.1.3-3.5.8-4.5 1.2l-1.5.1c.1.3.3.3.6.3l.6-.1c-.3.2-.9.4-1.7.5L23 97c-.6-.1-1.2.1-1.9.5-.9.6-1.5.9-1.6 1.1l-3.3 1-.1-.3-.2-.3.1-.3c-.1-.1-.4-.1-.8-.2-.3-.1-.6-.3-.8-.6.2-.1.3-.2.4-.4.1-.3 0-.4-.1-.6h.1l-.4-.6c-.2-.2-.3-.4-.2-.6l.2-.2-.4-.4.2-.4c.1-.1.1-.3 0-.3l-.4-.3.3-.1c.1-.1.2-.3.1-.3l-.3-.1c.3-.2.3-.5.3-1.1l-.2-.4-.3-.6h.1c-.3-.2-.4-.6-.3-1.3.1 0 .1-.1 0-.3l.3-.2.3-.1c.1-.2.2-.4.2-.7l-.5-.4.3-.2c.2 0 .2-.1.1-.3h-.5l.6-.2-.9-.3.1-.1-.1-.4h.7l.6.4c.1-.1.1-.3 0-.4-.1-.2-.1-.4.1-.5l-.6-.3.6-.3c-.1 0-.1-.1 0-.3.1-.1 0-.2-.3-.3l.3-.3h-.5l.1-.2c.1-.1.2-.1.1-.2l-.6-.1v-.3l-.2-.4h-.2l-.1-.2.2-.4h.3l.6.6c.3-.1.4-.3.3-.6-.3-.3-.3-.6-.1-.6l.5-.3c-.2-.3-.4-.3-.7-.4l.5-.1.8-.3-.6-.4.1-.3c0-.1-.1-.2-.3-.2l-.4-.1.9-.3c-.1-.1-.1-.3 0-.6.1-.1.2-.1.1-.2l-.4-.4-.1-.1.1-.1-.3-.2.3-.2h-.1c.1-.1 0-.3-.1-.3l-.1-.4h.6c.2 0 .3-.1.4-.2 0-.3.1-.6.4-.6.5-.3.8-.3.8-.4h.3l.2-.1-.1-.4h-.3l.6-.1h.6c.6-.1.8-.3.6-.8l1.1-.2c.4-.1.8-.3.9-.3l-.2-.3.4-.3-.2-.3c.1-.1.4-.3.9-.3V73l-.9.1c0-.1.1-.3.4-.4.3-.1.5-.3.6-.3l-.5.1h-.6c.1-.1.2-.2.2-.3l-.1-.4c-.1-.3 0-.6.3-.7 0-.1 0-.3-.1-.3H21l-.1-.2c.4-.1.6-.5.6-1.1l-.1-.5.1-.5-.1-.2c.3-.4.6-.8 1.1-1.1.5-.2 1-.3 1.8-.4.3-.2.8-.4 1.4-.7.9-.3 1.4-.6 1.7-.6 1.1 0 2-.3 2.5-.9l.2.3c0-.2.1-.3.3-.3l.6-.1.1.1h.3v-.3c.3.1.4 0 .6-.2h-.1c0-.1.1-.2.3-.2h.5l.3.3 5.6-1.4-.4-.1.4-.4c.3-.1.5-.3.7-.1l.1.2 1.8-.4c.8-.3 1.4-.4 1.7-.6l2.1-.6-.5.3-.1.4h1.2l-.9.6c.1.2.2.3.4.3h.9l-.6.3c-.3.1-.3.2-.3.4h.1v.5h.5c.3-.1.4 0 .6.1-.3 0-.4.1-.8.4-.3.3-.6.6-.8.6l.1.1v.3h.9c.3-.1.5 0 .6.3l-.6.1c-.3.1-.3.3-.3.4l.4.2-.3.1c-.1.1-.2.2-.3.1l-.2.3 2.7-.1 2.5-.4c.1 0 .1-.1 0-.2h.8l.9-.4-.1-.1.1-.1.2-.1v.3c.3-.1.6-.2.8-.2l.8.1c-.4.1-1 .3-1.8.5l-1.7.4h.9l.9-.3 1.5-.3c-.1.2-.3.3-.4.3-.3-.1-.4 0-.4.2h.6c.2 0 .3.1.3.3l.2-.1c.1.3 0 .3-.2.3-.3 0-.3.1-.3.3-.8 0-1.4.2-2.1.5.1.2.3.3.4.2l.6-.2h.4c.3-.1.4-.2.5-.3.1.1.2.2.5.1h.6l-.3.2-.3.3c.3.1.6.2 1.1.2H56c1.1 0 1.8.3 2.2.9-.2.2-.2.4.1.6.3.2.5.3.5.4l.6-.2c.3-.1.3 0 .4.2.2-.1.3-.2.2-.5l2.8-.8c1.2-.3 2.1-.8 2.8-1.2l.4-.1c.2-.1.4 0 .5.1l1.8-.6c.7-.2 1.3-.4 1.6-.7.9-.3 2.1-.6 3.5-1.1l3.5-1.1 1.7.1c.6.1 1.1 0 1.6-.3l-.2-.1c.2-.1.8-.3 1.9-.3.4-.1 1-.3 1.8-.4.9-.1 1.6-.3 1.9-.4l1.1-.3v.1l.3-.1h-.3l2-.5v.2l1.3-.2c.5-.1.9-.3 1.1-.3.3-.3.7-.3 1.3-.1.5.1.8 0 1-.3l.8-.1c.2 0 .3.1.4.3l1.6-.2 1.6-.1.9-.1c.4-.1.6-.3.6-.6.3-.1.6 0 1.1.2.5.1.8.1 1.1 0-.5.3-1 .4-1.6.3-.2.1-.5.2-.9.3h-.8c.3.3.6.4.9.3l.4-.3c.2-.1.3 0 .4.1l3.2-.5-2.5.8.6.1.6-.1-.6.3.4.2c-.1.3-.4.3-.8.4-.5.1-.8.1-.9.2h.9c.3-.1.5-.1.6.1l1.3-.3c.1.1 0 .2-.1.3l-.4.2.3.3h-.1l-.3.1c.3.2.6.3.9.2l.8-.2.3-.5-1.1-.1c.1-.3.4-.6.9-.8l.3-.1-.3-.1-.3-.2c.6 0 1.3-.1 2-.3l1.9-.4.2-.4c-.1-.3-.4-.4-.7-.3l-.9.2-2.2.1c.3 0 .9-.1 1.9-.3.8-.3 1.4-.4 1.9-.3l.8-.3-.9-.1h-.9l-.3-.1 1.7-.3v.1h.1zm-13 4.9l1.4-.3H96l-.8.3zm11.6-2.1c-.2.2-.5.3-.8.4h-.9l.9-.2.8-.2zm-4.2.9h-.3.3zm-.2-.4l.3-.1c.1 0 .2 0 .3-.1l-.3.1-.3.1zM104 64h-.3v.1h.3V64zm-.3-.3l-.8.1v.1l.8-.1v-.1zm-1 .2h-.2.2zm-2.8-2.5v.3c.2 0 .3 0 .3-.1s-.1-.2-.3-.2zm-.8.9h-.3v.1h.3v-.1zm-.5-.3h.4c.3 0 .5-.1.6-.3-.2-.1-.4-.1-.8.1l-.2.2zm0 .9c-.3.1-.6.2-.9.5h.2c.1-.2.4-.3.9-.4.6 0 .9-.1.9-.3l-.6.1-.5.1zm.4 1.3c.1 0 .1-.1.2-.3v-.2H99l-.2.2v.3h.2zm-1.2 0l.2-.2c0 .2-.1.2-.2.2-.3.1-.3.1-.1.1l.1-.1zm0 1c-.3.1-.4.1-.6.1l.3-.1h.3zm23.7-7.3h-.2v.1l.2-.1zm-6 3.8l.9-.1h-.4c-.3-.1-.5 0-.5.1zm1.3-1.3l-.6-.1c-.3.1-.4.2-.4.3l1-.1v-.1zm1.9 4.6c.4.1.9.1 1.6 0l1.4-.3-3 .2v.1zm-6.7-2.3l3.8-.2-2-.1c-.7-.1-1.3.1-1.8.3zm2.3-1c.1-.2.4-.3.9-.4-.6-.1-1.6-.1-2.8 0l.3.2-.4.3 2-.1zm-.1-1.3h-.3l-.3.3h.6v-.3zm6.7 1.9l-.2-.1v.1h.2zm12.3 8.5l-.1.2 1.3.2c-.1-.2-.2-.3-.5-.3l-.7-.1zm-100.1-3c-.2.1-.6.1-1.1.2l-.8.3c.8-.4 1.4-.5 1.9-.5zm1.6-.4l-.2-.1-1.1.4 1.3-.3zm8.9-2.2h.5-.5zm-4.7 1c-.2.2-.4.3-.6.2.1 0 .3-.2.6-.2zm1-.1c0 .2-.2.2-.5.1l.2-.1c.1-.2.2-.2.3 0zm12.9 3.2h-.3l-.2.3.5-.1v-.2zm25.7-6h-.2.2zm-7.1 27c.3 0 .6-.1.9-.3l-.9.1-.9.3.9-.1zm-3.8 1h-.2.2zm-3.1-.2c.1-.2.6-.4 1.7-.6l-1.7.6zm.2-.9l1.6-.4H66l-1.3.4zm2.5 1.3c-.6.4-1.7.8-3.2 1.1.6-.4 1.7-.8 3.2-1.1zm6.5.1h-.2v.1l.2-.1zm-35.1-6.3c0 .1-.1.1-.3.2l.1-.2h.2zm-2 2.6l-.5.1h-.3c0 .2-.1.3-.3.2-.2-.1-.4-.1-.5 0l1.1.1 1.1-.3c-.1-.1-.3-.2-.6-.1zm2.6-.4h-.1v-.2l-.4.1c-.2 0-.3.1-.3.2l-.2-.2-.3.4.8-.1.5-.2zm-1.2.9l.8.1c-.6.3-1.7.4-3 .6l-.6.1-.5.3c-.4-.1-.9-.1-1.7.3-.6.3-1.1.4-1.6.2l.3-.6c-.1-.2-.4-.2-.7-.1l-.8.3c.1.1 0 .2-.2.3l-.3.1c.6-.2.9-.4 1.1-.5.1.3-.1.6-.6.8l-.5.1-.4.1c.1.3-.1.4-.5.5-.6.1-.8.1-.9.3l.6-.1c0 .1-.1.2-.4.3-.3 0-.4.1-.6.2 0 .3.1.3.4.3.2-.1.3-.1.4.1l-.6.1 1.4-.1 1.4-.1-1 .3h.1l.1.1c-.5.1-1.5.3-2.8.6h.1l-2.7.6h.5l1.3-.3 1.7.2c.3-.1.6-.2.8-.3.1.3-.1.3-.4.4l-.8.2 2.1-.1c.8-.1 1.4-.3 1.9-.6h-1.3l-1.3.1 2.3-.6c.9-.3 1.6-.6 2.1-.9l-1.5.3c.1-.3 0-.4-.2-.4h-.8l.9-.3c.3-.1.6-.3.7-.4l.6-.1h.6l.1-.2h.1l.2.1h-.1c.2 0 .7-.1 1.4-.3.8-.2 1.3-.3 1.7-.2l-2.5.6-2.4.7v.1l.1.1c.6-.3 1.4-.4 2.5-.5l2.5-.3.9-.2.8-.3.1.2c.1.1.1.1 0 .2l3.3-.4c.3.1.5 0 .6-.3l.3-.6-.1-.2.4-.3c0-.2.1-.6.3-1.1.1-.4.1-.8 0-1.1-.5-.1-1 0-1.8.3-.3-.1-.8 0-1.4.2l-.8.3.5.1c-.1.3-.2.3-.3.4l-.4.2h-.4l-.2-.3-.5.2c-.3.1-.4.1-.4.2zm4.1-2.1s.1 0 .3-.1c.1-.1 0-.3-.1-.3l-.4-.1v.3l.2.2zm0 1.7l.3-.2h-.2l-.1.2zm1.3-2.3l-.2.1-.2.1h.4v-.2zm-.7-2.6l-.3.1h.3v-.1zM39.6 92l-1.3.3 1.9-.3h-.6zm.3-3.1l-1.3.1-1.1.3c.1-.1.2 0 .3.2l.2.3-.9.3 1.8-.4 1.6-.2-1.6.1.4-.3-.1-.1c-.1-.1 0-.3.2-.3h.5zm-3.5 2.2l-.4.2.5-.1-.1-.1zm.6 1.4h-.3.3zm.4-.1h-.3v.1l.3-.1zM34 88.5l-.3.3.6-.2-.3-.1zM19.7 74.2v.3l.1-.1.1-.1-.2-.1zm-3.6 3.6c-.1-.1-.2-.2-.4-.1-.2 0-.3.1-.2.2h.3c.1 0 .1 0 .3-.1zm-1.9 6.5V84l.1-.1c.1 0 .1 0 0 .1l-.1.3zm-.5 1.6h.1l-.1-.3v.3zM13 85l-.3.1.3.1V85zm.7 11v.2c.1 0 .1 0 .1-.1l-.1-.1zM35 90h-.3c.3-.1.5-.3.6-.3l-.3.3zm1.2-.6v-.1H36v.1h.2zm-3-.6h.3l-.5.1.2-.1zm-.9.6l.2-.5h-.3l-.2.5h.3zm.5.6l-.5.2.8-.2h-.3zm.3.3c-.3.2-.8.3-1.1.3.5-.3.8-.4 1.1-.3zm-1.4.3h-.4v.1l.4-.1zm-.9 3.3l-.3-.1v.1h.3zm-4.6.2l-.3.1.3-.1zm.5-1.3h-.3v.1l.3-.1zm3.2 1.2h-.2l-.3.2.5-.2zm-1.7.7l.8-.3-.4.1-.4.2zm97.7-13.8c-.6 0-1.2-.1-1.8-.4l1.8.4zm-4.9.3c-.3 0-.5-.1-.6-.3l-3 .2h-1c-.6-.1-.8 0-.9.1l2.1.2 2 .2-.1.1h.4v-.1l2.1.1 2 .2c-.1-.1-.3-.2-.6-.2l-.6-.1c-.1 0-.2-.1-.5-.2h-.4c-.1-.2-.4-.2-.9-.2zm-4.9-.5h.2l.1-.2h-.4c-.2.1 0 .1.1.2zm4.2-.5h1.2l-1.2-.1v.1zM119 82l-.1-.3h-.9l-.7.3h1.7zm-19.4 1.8v.1h.6l-.6-.1zm-.6 0h-.4l.4.2v-.2zm-1.1 0h-.5l-.1.1.6-.1zm-11.7 1c.1.1.2.1.3.1v.2c.7 0 1.4-.1 2.2-.3-.6.1-.9 0-1.4-.1-.1-.3-.2-.3-.5-.2l-.6.3zm0 .7h-.8 1.7l1.6.1-1.4.2c-.5 0-.8-.1-1.1-.3zm3.1.2l5.9-.4-6.2.2.3.2zm-.2.5l.3.1-.4.3 1.9-.1-.9-.3h-.9zM88 87.5c.2.3.6.3 1.1.3.6-.1 1.1-.1 1.1 0l-1 .2c-.6.1-.9.2-1.1.3h3c.6.2 1.2.2 2.1-.1l1-.3 1.1-.1v-.1h-.6c-.1-.2-.1-.4.2-.5.3-.1.6-.3.6-.3-1.1-.1-2.3-.1-3.8 0l-3.7.3v.3z"/><path fill="#333" d="M67.8 89.8h5.6v-.5h-5.6v.5zM22.2 67.7h10.4v.6H29v20.9h3.3l3.3-.2c1.1-.1 1.9-.4 2.5-.8 1.4-.8 2.4-2.6 2.8-5.5h.2v6.9H22.2V89h3.6V68.3h-3.6v-.6z"/><path fill="#333" d="M51.6 67.4l8.1 21.9h2.4v.5h-8.7v-.5h3.2l-2.3-6.5h-8.1l-2.3 6.5h3.3v.5h-6.6v-.5H43l8.1-21.9h.5zM43 89.3v.1h.8v-.2H43v.1zm11-7.1l-3.8-10.7-3.8 10.7H54zm34.1-13.9v21h2.3v.5H83v-.5h2.3V68.1L78 90.2l-.2-.2-6.9-21.9v21.2h-.8l.2-20.7-.2-.3h-2.3v-.5h5.9L79.1 85l5.7-17.2h5.5v.5h-2.2z"/><path fill="#231815" d="M91.4 67.8H109v6.1h-.1c-.4-2.5-1.1-3.9-2.2-4.7-.5-.3-1.3-.6-2-.7l-2.8-.3H97v10.1h1.7c3 0 4.6-1.4 4.7-4.4h.1v9.5h-.1c-.1-1.6-.4-2.7-1.2-3.5-.7-.6-1.8-.9-3.2-.9h-2v10.2h5.2l2.8-.2c.8-.1 1.6-.4 2.1-.9 1.3-.8 2.1-2.5 2.4-5h.1v6.6H91.5v-.5h2.4V68.3h-2.5v-.5z"/><path fill="#333" d="M116 68.3v10h3.5c2.1 0 3.5-.3 4.2-1.1.7-.8 1-2.1 1-4.2 0-1.8-.3-2.9-.9-3.7-.7-.8-2-1.1-3.8-1.1h-4v.1zm-5.5-.5h10.7c2.2 0 3.9.4 5.2 1.4 1.1.8 1.8 2.1 1.8 3.8 0 1.6-.6 2.9-1.8 3.8-1.3.9-3 1.6-5.2 1.8 1.8.1 3 .4 4 .9.9.5 1.7 1.3 2 2.4.2.8.3 1.6.3 2.7v.9c0 .9.1 1.6.2 1.9.2.7.5 1.3.8 1.6.4.3.9.4 1.7.4l.5-.1.8-.3v.6l-.8.3-1.1.1c-2.1 0-3.6-.5-4.4-1.6-.6-.9-.9-2.6-.9-5 0-1.7-.2-2.8-.8-3.5-.5-.8-1.6-1.3-3.5-1.3h-4V89h3.7v.5h-9.1V89h2.3V68.3h-2.3v-.5h-.1zm23.4 20.9v.4h.3c.2 0 .3-.1.3-.2s-.1-.2-.3-.2h-.3zm.8-.1l.1.3c0 .2-.1.3-.3.4l.3.5h-.3l-.3-.5h-.2v.5h-.3v-1.4h.6l.4.2zm-1.3-.1c-.3.1-.3.4-.3.8 0 .3.1.5.3.6.2.2.4.3.7.3.3 0 .6-.1.8-.3.2-.1.3-.3.3-.6s-.1-.6-.3-.8c-.2-.2-.4-.3-.8-.3l-.7.3zm1.7-.2c.3.2.3.5.3.9 0 .3-.1.6-.3.8-.3.3-.6.4-.9.4-.3 0-.6-.1-.9-.4-.2-.2-.3-.5-.3-.8 0-.4.1-.8.3-.9.3-.3.6-.4.9-.4.2 0 .6.1.9.4z"/></g></svg>