<svg xmlns="http://www.w3.org/2000/svg" viewBox="0 0 150 150"><path d="M31.6 66.5c.6-.2 1.2-.4 1.9-.6 1.4-.4 2.8-.8 4.2-1 .8-.1 1.6 0 2.4.1 1.2.1 2.4.3 3.6.7.2.1.5.2.7.3.8.5 1.5 1.1 2.3 1.6.1.1.2.1.2.2 1.2 1.5 2.3 3 2.7 4.9.4 1.8.7 3.6.3 5.4-.5 2.6-1.8 4.8-3.6 6.7-1.7 1.7-3.8 2.4-6.1 3-1.7.4-3.5.5-5.2 0-1-.2-2-.7-3-1-.3-.1-.6-.3-1-.4-.5-.1-.9 0-1.3.4-.3.3-.6.6-.6 1.1 0 .1-.1.2-.2.3-.6.3-1.2.2-1.8-.1-.1-.1-.2-.2-.2-.4V84c0-4.1-.1-8.3-.1-12.4 0-1.7 0-3.5.1-5.2 0-1.8.1-3.7.1-5.5 0-.4 0-.8-.1-1.2-.2-.7-.5-1.2-1.2-1.5l-1.8-.9c-.2-.1-.4-.2-.5-.4-.3-.4-.4-.9.1-1.3s1.1-.6 1.7-.7c1.5-.4 3-.7 4.5-1 .5-.1 1 0 1.5.3.3.2.4.4.4.8.1 1.5.1 2.9 0 4.4-.1 1.6-.1 3.1-.1 4.7 0 .9.1 1.7.1 2.4zm5.5 1.1c-.5.1-1 .1-1.5.2-1 .2-2.1.4-3 .9-.5.2-.7.5-.7 1.1 0 1.4-.1 2.8-.1 4.2 0 1.3.1 2.6.1 3.9 0 1.4.1 2.7.2 4.1.1 1.1.6 2.1 1.5 2.7.9.6 1.8 1 2.8 1 .3 0 .7.1 1 0 .5 0 .9-.2 1.4-.3 1-.2 1.9-.3 2.8-.9.9-.6 1.8-1.3 2.3-2.4.4-.8.9-1.6 1-2.5.1-.7.2-1.5.2-2.2 0-.3.1-.6.1-.9 0-.7-.1-1.4-.2-2.1-.1-.6-.1-1.2-.5-1.8-.4-.6-.7-1.2-1-1.7-.4-.7-.9-1.2-1.6-1.5-.1-.1-.2-.1-.3-.2-1.3-1.1-2.9-1.3-4.5-1.6zm32.2 5.6c-.9 0-1.9-.1-2.8-.1-.8 0-1.5.1-2.3.2h-.7c-.7 0-1.3 0-2-.1-.9 0-1.8-.1-2.7-.2-.8 0-1.2-.1-1.3 1.1-.1 2.8.6 5.3 2.4 7.5.7.9 1.6 1.6 2.7 2.1.9.4 1.8.5 2.7.6 1 .2 1.9 0 2.9-.2.5-.1.9-.3 1.3-.5 1-.5 2-1.1 2.8-1.9.2-.2.4-.3.6-.5.3-.2.7 0 .8.3.2.4.3.7.1 1.1-.2.6-.6 1.1-1.1 1.6-1.6 1.5-3.5 2.5-5.5 3.2-1.5.6-3.1.6-4.7.5-1.3-.1-2.6-.3-3.8-.8-.4-.2-.8-.4-1.1-.7-.2-.1-.4-.3-.6-.4-.3-.2-.5-.3-.7-.6-.7-.9-1.4-1.8-1.9-2.8-.9-1.5-1.2-3.1-1.4-4.8-.2-2.4.4-4.6 1.2-6.8.6-1.7 1.6-3.1 2.8-4.4.9-.9 1.9-1.5 3.1-2 1.5-.5 3.1-.8 4.8-.9 1.8-.1 3.4.5 4.8 1.5 1.9 1.3 3.1 3 3.7 5.2.2.6.1 1.3.2 2 0 .5-.1.5-.6.6-1.3.1-2.5.1-3.7.2zm-1.4-2.6h.6c.4 0 .5-.2.5-.5 0-1.4-.6-2.4-1.7-3.2l-.6-.3c-.6-.1-1.2-.3-1.9-.4-.8-.1-1.5.1-2.2.3-.4.1-.8.2-1.1.4-.5.3-.9.7-1.4 1.1-.7.6-1.2 1.4-1.5 2.2-.1.4 0 .6.4.6h1.2c.7 0 1.3-.1 2-.1 1.1-.1 2.3-.1 3.4-.2.7.1 1.5.1 2.3.1zm46.4 1.6v2.5c0 2.1 0 4.2.1 6.2 0 .9.1 1.7.3 2.6.5 1.6 1.6 2.3 3.3 2.3.7 0 1.4.1 2.1.3.3.1.5.5.5.8 0 .3-.1.5-.3.6-.3.1-.5.3-.8.3h-3.3c-.9 0-1.8-.1-2.6-.1s-1.5.1-2.3.1c-1.3.1-2.5.1-3.8.2-.7 0-1.1-.3-1.6-.7-.2-.2-.1-.4 0-.5.2-.4.5-.6 1-.7h.2c.5-.2 1-.3 1.5-.4.5-.1.9-.5 1.1-1 .1-.5.3-1 .3-1.5 0-1.2 0-2.5-.1-3.7 0-.7 0-1.5.1-2.2v-1.1c0-.5.1-1.1 0-1.6 0-.4-.1-.8-.2-1.3-.1-.3-.3-.5-.7-.6-.7-.2-1.4-.1-2-.1-.4 0-.8 0-1.1-.3-.4-.4-.4-1 0-1.4.2-.2.4-.3.6-.4l1.8-.6c.7-.3 1.2-.7 1.5-1.5.3-.9.3-1.8.3-2.8.1-1.2.4-2.3 1-3.3.5-.9 1-1.9 1.6-2.7 1.4-1.7 2.9-3.3 5-4 2.1-.7 4.1-.9 6.3-.5.8.2 1.5.4 2 1.1.8 1 .9 2.3 0 3.2-.6.6-1.4.8-2.3.7-.4 0-.8-.1-1.2-.2-.9-.3-1.7-.6-2.5-.9-1.3-.5-2.5-.6-3.8.1-.8.5-1.3 1.2-1.7 2.1-.7 1.4-.8 2.8-.7 4.3.1.7 0 1.5 0 2.2v1c0 .2.1.3.4.3 1.8 0 3.6.1 5.4.1.4 0 .7 0 1.1.1.4.1.6.3.7.8 0 .2.1.5.1.7 0 .8-.6 1.5-1.4 1.6-.8.1-1.6.1-2.4.1-1.1 0-2.1 0-3.2.1 0-.4-.1-.4-.3-.3zM87 87.7c-2.6-.2-5.2-.1-7.8 0-.7 0-1.4.1-2.1.2-1.1.1-1.5-.3-1.5-1.4 0-.4.1-.5.4-.5.9-.2 1.7-.4 2.6-.6 1-.3 1.4-.8 1.4-1.8v-5.8c0-1.5-.1-2.9-.1-4.4 0-1.5 0-3 .1-4.6 0-2 .1-3.9.2-5.9 0-.9-.1-1.7-.3-2.6-.2-.6-.6-1.1-1.2-1.3-.5-.2-1.1-.4-1.6-.7-.4-.2-.7-.4-.6-.9 0-.3.2-.6.5-.7l1.5-.6c1.2-.4 2.5-.8 3.7-1.1.6-.2 1.2-.3 1.8-.4.7-.1.9.2 1 .8v1.2c-.1 1.8-.2 3.5-.2 5.3v13.9c0 1.2-.1 2.4-.1 3.6 0 1.2.1 2.4.1 3.6 0 .5.1 1 .1 1.6 0 .3.2.6.5.7l2.1.6c.2 0 .4.1.6.1.4 0 .8.7.7 1.3 0 .5-.3.7-.8.7-.3-.3-.7-.3-1-.3zm12.9-18.2c0 1.7.1 3.4 0 5.1-.1 1.5 0 3.1-.1 4.6 0 1.6 0 3.2.1 4.8 0 .5.2.9.8 1.1.8.3 1.6.5 2.4.9.3.1.6.3.8.5.2.2.2.6 0 .8-.3.3-.7.4-1.1.4-1.1 0-2.1-.1-3.2-.2-.7 0-1.4-.1-2.1-.1-1.8.1-3.6.2-5.5.2-.3 0-.6 0-.9-.1-.4-.1-.5-.4-.4-.8.2-.5.5-.9 1-1.2.1-.1.3 0 .4 0h.4c.4-.1.8-.1 1.2-.2 1-.2 1.6-.8 1.7-1.8.1-.4.1-.9.1-1.3 0-1.7.1-3.4 0-5.1-.1-1.6 0-3.2.1-4.8 0-.5 0-1.1-.2-1.6-.2-.4-.4-.7-.8-.8-.5-.2-.9-.4-1.4-.6-.3-.1-.6-.3-.8-.5-.4-.3-.4-.8 0-1.1l.9-.6c.3-.2.7-.3 1-.4 1-.4 1.9-.9 2.5-1.8.3-.4.7-.8 1.1-1.2.3-.2.6-.4 1-.5.6-.2 1.2.3 1.2 1-.2 1.9-.2 3.6-.2 5.3zm-5.5-11.8c.1-.3.1-.7.2-1.1.2-.5.4-.8.9-1L97 55c.2-.1.4 0 .6.1l.9.3c.5.2.8.5 1.1 1 .2.3.4.6.5 1v.7c-.1.5-.3.9-.5 1.3-.1.2-.3.4-.5.4-.5.3-1.1.5-1.6.7-.2.1-.6 0-.8 0-.5-.2-1-.4-1.4-.6-.4-.2-.7-.6-.8-1 0-.3 0-.7-.1-1.2zM27 94h1v3.5l.6-.6c.6-.6 1.3-.8 2.1-.6.7.1 1.1.6 1.3 1.2.2 1 .2 1.9 0 2.9-.4 1.3-1.6 2.2-3.2 2.3h-1.7c-.1-2.9-.1-5.8-.1-8.7zm1 7.7h1c1.2-.1 2-.9 2.1-2.1v-1.5c-.1-.9-.7-1.3-1.5-.9-.4.2-.7.5-1 .7-.4.3-.5.6-.5 1.1v1.1c-.1.6-.1 1.1-.1 1.6zm78.4.9h-1V94h1v3.5l.6-.6c.6-.5 1.2-.7 2-.6.6.1 1.1.5 1.2 1.1.1.3.1.7.1 1.1v4.2h-1V98c-.2-.6-.7-.9-1.3-.7-.6.2-1.1.8-1.5 1.3v3.9c-.1-.1-.1 0-.1.1zm-58.3-2.7v.8c.1.7.6 1.1 1.3 1.2.6.1 1.2 0 1.8-.3.1 0 .2-.1.4-.1v.8c0 .1-.1.1-.1.1-.9.3-1.8.5-2.8.2-.9-.3-1.5-1-1.6-2 0-.7-.1-1.3 0-2 .1-1.6 1.3-2.6 3-2.4.1 0 .3 0 .4.1 1 .2 1.6.9 1.5 1.9-.1 1-.7 1.6-1.8 1.7h-2.1zm0-.9H50c.1 0 .3 0 .4-.1.4-.1.5-.4.5-.8s-.2-.7-.5-.8c-1.2-.6-2.4.3-2.3 1.7zm-13.4.9c-.2 1.2.5 2 1.7 1.9.5 0 1-.2 1.5-.3.1 0 .2-.1.3-.1v.9c0 .1-.1.1-.1.1-.8.3-1.7.5-2.5.3-1.1-.3-1.7-1-1.8-2.1 0-.7-.1-1.4 0-2.1.2-1.4 1.4-2.4 3-2.2.5.1 1 .1 1.3.5.6.5.6 1.2.4 1.9-.2.7-.7 1.1-1.3 1.1-.6.1-1.3 0-1.9.1h-.6zm0-.9H37c.4-.1.6-.4.6-.8s-.2-.7-.5-.8c-1.3-.7-2.5.2-2.4 1.6zm29.8 2.4v.8c0 .1-.1.1-.1.2-1 .4-1.9.5-2.9.2-.9-.3-1.4-1-1.4-1.9-.1-.7-.1-1.4 0-2.1.2-1.5 1.4-2.5 3-2.3.2 0 .5.1.7.1.9.3 1.3.9 1.2 1.9-.1.8-.6 1.4-1.4 1.5-.6.1-1.2 0-1.8.1h-.6c-.2 1.2.4 2 1.6 1.9.5 0 1-.2 1.6-.3-.2 0-.1-.1.1-.1zM60.9 99h2c.1 0 .3 0 .4-.1.4-.1.6-.4.5-.9 0-.4-.2-.7-.6-.8-.5-.1-.9-.1-1.4.1-.3.1-.6.3-.7.6-.1.4-.1.7-.2 1.1zM93 96.3h1v4.6c.1.7.7 1 1.3.8.4-.2.8-.6 1.2-.8.4-.3.4-.6.4-1v-3.5h1v6.3h-1v-1.1l-.6.6c-.4.4-.9.6-1.5.7-1 0-1.7-.5-1.8-1.5v-5.1zm-20 0h1v1h.1l.5-.5c.4-.4.9-.6 1.4-.7 1.1-.2 1.8.4 2 1.4 0 .3.1.5.1.8v4.2h-1v-4.1c0-.2 0-.4-.1-.5-.1-.6-.6-.9-1.2-.7-.5.2-.9.6-1.3.9-.4.3-.5.5-.5.9v3.6h-1v-6.3zm-15.6 0h.9c.2 2.2-.2 4.2-1.6 6-.2.2-.4.3-.6.3-.7.1-1-.2-1.3-.8-.8-1.3-1.2-2.6-1.2-4.1v-1.5h1v.4c0 1 0 1.9.2 2.9.2.8.5 1.5 1 2.1l.2.2c.7-.8 1.1-1.7 1.2-2.6.1-.9.1-1.9.2-2.9zm29 6.4c-.5 0-.9 0-1.4-.1-1-.2-1.6-.8-1.6-1.9v-3.4h-1v-.9h1V95h1v1.4h1.8v.9h-1.8v3.4c0 .8.4 1.2 1.2 1.2h.8v.8zm17.3-1v.9c-.7 0-1.3.1-1.9-.2-.7-.3-1-1-1-1.7v-3.4h-1v-.9h1V95h1v1.4h1.8v.9h-1.8v3.1c0 .2 0 .4.1.6.1.5.3.7.8.8h.6c0-.1.2-.1.4-.1zM39.4 94h2.1v8.6h-1v-7.7h-1.1V94zm49.7 3.6c1.1-1.3 1.4-1.4 2.3-1.3v1.1h-.5c-.5 0-.9.2-1.2.5-.5.4-.7.9-.7 1.6.1.9 0 1.9 0 2.8v.3h-1v-6.3h1c.1.5.1.9.1 1.3zm-44-1.3v6.3h-1v-5.4H43v-.9h2.1zm25.6 0v6.3h-1v-5.4h-1v-.9h2zm-25.6-1.2h-1V94h1v1.1zm24.6-.1v-1.1h1V95h-1z" fill-rule="evenodd" clip-rule="evenodd" fill="#333"/></svg>