<svg xmlns="http://www.w3.org/2000/svg" viewBox="0 0 150 150"><path d="M26.2 64.7c-2.4 0-5.3.2-7.4.4v19.8h6v-4.7H27c5.6 0 9.2-2.9 9.2-7.9 0-5.6-3.8-7.6-10-7.6zm-.3 11.9h-1v-8.2h1c3 0 4.4 1.4 4.4 3.9-.1 2.6-1.3 4.3-4.4 4.3zm25-3.6h-6.3v-7.9h-6v19.8h6v-7.8h6.3v7.8h6V65.1h-6zm10.5-7.9h6v19.8h-6zm16.5 0h-6v19.8h10.9l.9-4h-5.8zm25.9-.4c-2.4 0-5.3.2-7.4.4v19.8h6v-4.7h2.1c5.6 0 9.2-2.9 9.2-7.9.1-5.6-3.7-7.6-9.9-7.6zm-.3 11.9h-1v-8.2h1c3 0 4.4 1.4 4.4 3.9 0 2.6-1.3 4.3-4.4 4.3zm18.2-6.4c0-1.1 1.1-1.6 2.8-1.6 1.9 0 4 .4 5.4 1l-.5-4.3c-1.6-.3-3-.6-5.5-.6-4.9 0-8.2 1.9-8.2 6 0 6.9 9.4 5.5 9.4 8.8 0 1.2-.9 1.9-3.1 1.9-2 0-5-.7-6.9-1.6l.7 4.6c1.8.7 4.3 1 6.3 1 5 0 9.2-1.7 9.2-6.6-.1-6.7-9.6-5.5-9.6-8.6zm-35.8-5.1h6v19.8h-6z" fill="#333"/></svg>