<svg xmlns="http://www.w3.org/2000/svg" viewBox="0 0 150 150"><g fill="#333"><path d="M123.5 94.9c-.2-.1-.4-.2-.6-.2-.9-.3-2.5-.7-4.6-1.2-1.9-.4-2.8-1-2.8-1.6 0-.5.2-.9.5-1.1.4-.4 1.2-.6 2.3-.6 1.1 0 1.9.2 2.4.7.3.3.5.8.7 1.6h4.5c0-1.1-.2-2-.7-2.8-.4-.8-1.1-1.4-2-1.9-.1-.1-.2-.1-.3-.2-1.2-.6-2.8-.9-4.9-.9-2.5 0-4.3.6-5.6 2-1 1.1-1.5 2.3-1.5 3.8 0 1.9.9 3.2 2.8 4.1.7.3 2.4.8 5.2 1.4 1.8.4 2.8 1 2.8 1.7 0 .4-.2.8-.6 1.1-.5.4-1.3.6-2.3.6-1.4 0-2.3-.2-2.9-.7-.6-.4-.9-1.1-.9-1.9h-4.7c0 1.1.2 2 .7 2.8.5.8 1.1 1.5 2 2 1.4.8 3.3 1.2 5.7 1.2 1.6 0 3-.3 4.1-.8.2-.1.5-.2.7-.3 1.8-1 2.8-2.6 2.8-4.9.1-1.7-.9-3-2.8-3.9zm-1.3-12.6h.3l.4.1h.1c.1.1.3.3.4.6l.3.5h.6l-.3-.6-.4-.6-.2-.2c.2 0 .4-.1.6-.3.2-.2.2-.3.2-.6 0-.2 0-.3-.1-.4-.1-.1-.2-.2-.4-.3-.1 0-.3-.1-.6-.1h-1.2v2.9h.5v-1zm0-1.3h1c.1 0 .2.1.2.2s.1.1.1.2 0 .2-.1.3c-.1.1-.2.1-.4.1h-.7V81z"/><path d="M121.6 84.3c.4.2.9.4 1.3.4.5 0 .9-.1 1.3-.4.4-.2.8-.6 1-1 .2-.4.4-.9.4-1.3 0-.5-.1-.9-.4-1.4-.2-.4-.6-.8-1-1-.4-.2-.9-.4-1.3-.4s-.9.1-1.3.4c-.4.2-.8.6-1 1-.2.4-.4.9-.4 1.4 0 .4.1.9.4 1.3.2.5.6.8 1 1zm-.6-3.4c.2-.4.5-.6.8-.8.4-.2.7-.3 1.1-.3.4 0 .7.1 1.1.3.4.2.6.5.8.8.2.4.3.7.3 1.1 0 .4-.1.8-.3 1.1-.2.3-.5.6-.8.8-.4.2-.7.3-1.1.3-.4 0-.8-.1-1.1-.3-.4-.2-.6-.5-.8-.8-.2-.4-.3-.7-.3-1.1 0-.4.1-.8.3-1.1zm-29.4.4H112L99.3 60.2l-14-23.4-5.8 3.5-9.2 5.5 9.2 15.3zm12.7 7c-1.4-.9-3.1-1.5-4.9-1.5-5 0-9.1 4.1-9.1 9.2 0 5 4.1 9.2 9.1 9.2 1.8 0 3.5-.5 4.9-1.5v1h4.2V87.3h-4.2v1zm0 8.7c-.4 2.3-2.5 4.1-4.9 4.1-2.8 0-5-2.3-5-5.1s2.2-5 5-5c2.4 0 4.5 1.8 4.9 4.1V97zm-19.8-8.7c-1.4-.9-3.1-1.5-4.9-1.5-5 0-9.1 4.1-9.1 9.2 0 5 4.1 9.2 9.1 9.2 1.8 0 3.5-.5 4.9-1.5v1h4.2V81.3h-4.2v7zm0 8.7c-.4 2.3-2.5 4.1-4.9 4.1-2.8 0-5-2.3-5-5.1s2.2-5 5-5c2.4 0 4.5 1.8 4.9 4.1V97zm-5-15.7h5l-5-8.3-12.2-20.4-14.5 8.8-.5.3.5.8 11.3 18.8v4.1h4.6v-4.1zm-15.4 5.5h4.6v17.9h-4.6zm-6.3 1.5c-1.4-.9-3.1-1.5-5-1.5-5 0-9.1 4.1-9.1 9.2 0 5 4.1 9.2 9.1 9.2 1.8 0 3.5-.5 5-1.5v1H62V81.3h-4.2v7zm0 8.7c-.4 2.3-2.5 4.1-5 4.1-2.8 0-5-2.3-5-5.1s2.2-5 5-5c2.5 0 4.5 1.8 5 4.1V97zm-5-15.7h4.1l-4.1-6.9-3.6-5.9-14.9 9 2.2 3.8zm-15 7c-1.4-.9-3.1-1.5-5-1.5-5 0-9.1 4.1-9.1 9.2 0 5 4.1 9.2 9.1 9.2 1.8 0 3.5-.5 5-1.5v1H42V87.3h-4.2v1zm0 8.7c-.4 2.3-2.5 4.1-5 4.1-2.8 0-5-2.3-5-5.1s2.2-5 5-5c2.5 0 4.5 1.8 5 4.1V97z"/></g><path fill-rule="evenodd" clip-rule="evenodd" fill="#333" d="M75.4 75v.4l-.8-.5v.1l.1.3h-.1v-.7l.7.5v-.5h.1v.4z"/><path fill-rule="evenodd" clip-rule="evenodd" fill="#333" d="M75.3 74.7h-.5v.3h.4-.4v.3h.5-.6v-.6h.6z"/><path fill-rule="evenodd" clip-rule="evenodd" fill="#333" d="M75.7 74.7l-.3.7h-.1l-.3-.6-.3.5c-.2-.3-.3-.5-.4-.7h.2l.2.5.3-.5h.1l.3.5.3-.4z"/><path fill-rule="evenodd" clip-rule="evenodd" fill="#333" d="M75 75l.1.3h-.2v-.2l-.4-.4h.2l.3.3.3-.3h.2l-.5.3z"/><path fill-rule="evenodd" clip-rule="evenodd" fill="#333" d="M74.6 74.8c.1-.1.3-.1.4-.1.2 0 .3.1.4.1 0 0 .1.1.1.2l-.1.3c-.1.1-.3.1-.4.1-.2 0-.4 0-.4-.1l-.2-.3c0-.1.1-.2.2-.2zm.7 0l-.3-.1-.3.1c-.1 0-.1.1-.1.2s.1.1.1.2l.3.1c.1 0 .3-.1.3-.1.1 0 .1-.1.1-.2.1-.1 0-.2-.1-.2z"/><path fill-rule="evenodd" clip-rule="evenodd" fill="#333" d="M74.8 74.7v.3h.1c.2 0 .3-.1.3-.1s0-.1-.2-.1h-.2v-.1zm.2 0c.2 0 .3.1.3.2l-.2.1H75l.4.3h-.2l-.4-.3v.3h-.2v-.7h.4v.1z"/><path fill-rule="evenodd" clip-rule="evenodd" fill="#333" d="M75.4 74.7l-.5.3.5.3h-.2l-.4-.3h-.1l.1.3h-.2v-.6h.2l-.1.3h.1l.5-.3h.1z"/></svg>