<svg xmlns="http://www.w3.org/2000/svg" viewBox="0 0 150 150"><g fill-rule="evenodd" clip-rule="evenodd" fill="#333"><path d="M65.5 116.5V44.2h6.6v5.5c.1-.2.2-.4.3-.5 1.3-2.7 3.5-4.5 6.5-5 4.8-.8 9.3 2.5 10.1 7.1.1.9.2 1.8.2 2.6v62.5h-6.7V53.9c0-2.3-1.6-4.5-4.3-5.1-2.5-.5-4.8.8-5.8 2.7-.2.4-.3.9-.3 1.4v63.5h-6.6zm-14.9.1v-5.2h-.1c-.1.2-.2.3-.3.5-1.4 2.5-3.5 4-6.3 4.4-4.7.7-9.2-2.5-10-7.3-.1-.8-.1-1.5-.1-2.3V44.9c0-.9.1-1 1-.8.6.1 1.2.2 1.7.4 1.8.6 2.9 1.9 3.5 3.6.3.9.5 1.9.5 2.9v55.5c0 2.5 1.8 4.4 3.8 5 2.3.7 4.8-.2 6.1-2.2.2-.3.4-.7.3-1.1v-57c0-1.6.4-3.1 1.3-4.5 1-1.5 2.4-2.3 4.2-2.5.3 0 .5-.1.8-.1.3 0 .4.1.4.4v72.2h-6.8zm57.3-66.8v59.3c0 1.1-.1 2.1-.5 3.1-1 2.3-2.7 3.8-5.2 4.3-.3.1-.6 0-1 .1V49.9h-8.3v-5.7h23.3v5.6h-8.3zm-54-16.5c1.9 0 3.5 1.5 3.5 3.4s-1.5 3.4-3.4 3.4-3.5-1.5-3.5-3.4c0-1.8 1.5-3.4 3.4-3.4z"/><circle cx="37.1" cy="36.7" r="3.4"/></g></svg>