<svg xmlns="http://www.w3.org/2000/svg" viewBox="0 0 150 150"><path d="M84.1 90.8h-2.7c-.3 0-.5-.1-.7-.4L75 82.6c-2.5-3.4-4.9-6.7-7.4-10.1-1-1.4-2-2.9-3-4.4-.1-.1-.2-.2-.3-.4h-.1v.7c.1 1.6.1 3.3.2 4.9v17.2c-.3.1-2.6.1-3.1 0V62.9h2.9c.3 0 .4.1.6.3 3.9 5.4 7.8 10.7 11.7 16 1.5 2 2.9 4.1 4.3 6.2.1.2.2.3.4.5 0-.1.1-.2.1-.3-.1-1.7-.2-3.4-.2-5.1V63h3.1c0 .5 0 27.1-.1 27.8zm-24.6 0h-3.6c-.1-.1-.1-.3-.2-.4-.9-2.2-1.9-4.5-2.8-6.7-.1-.3-.2-.4-.5-.4H39.3c-1 2.5-2.1 5-3.1 7.5h-3.5c.1-.1.1-.3.2-.4 3.8-9 7.6-18.1 11.4-27.1h3.6c3.9 9.1 7.7 18.2 11.6 27.5zm-8-10.4c0-.1 0-.2-.1-.3-1.8-4.5-3.6-9-5.3-13.5H46c-.1.1-.1.3-.2.4-.3.9-.7 1.8-1 2.7-1.4 3.4-2.7 6.8-4.1 10.2 0 .1-.1.2-.1.4 3.7.1 7.3.1 10.9.1zm58.8 4.7l2.2 2.2c-3.1 3.3-8.8 5.3-14.5 3.6-6-1.8-10.2-7.4-10.3-13.7-.1-6.5 4-12.2 9.9-14.1 5.7-1.9 11.7 0 14.9 3.4l-2.2 2.2c-4.9-4.8-12.3-4-16.4.5-3.9 4.6-3.9 11.3.1 15.6 4.1 4.3 11.4 5.1 16.3.3zM20 66.3v8.5h13.6c.4 0 .4 0 .4.3v2.8H20.1v12.9H17c-.1-.3-.1-27 0-27.6.3-.1 17.3-.1 18 0 .1.3.1 2.6 0 3-5.1.1-10 0-15 .1zm96.5-3.1h3.2v24.5h13.5c.1.3.1 2.6 0 3.1h-16.6c-.1-9.2-.1-18.4-.1-27.6z" fill-rule="evenodd" clip-rule="evenodd" fill="#333"/></svg>