<svg xmlns="http://www.w3.org/2000/svg" viewBox="0 0 150 150"><path fill="#FFF" d="M75 21.8c-29.9 0-54.2 24.3-54.2 54.2 0 29.9 24.2 54.2 54.2 54.2 29.9 0 54.2-24.3 54.2-54.2 0-29.9-24.3-54.2-54.2-54.2"/><path fill="#333" d="M44.6 97.5c.5-.3.5-.3.6-.4.2-.2.4-.4.6-.7.6-.7.8-.9 1.3-1.1.5-.3 1.9-1 2.5-1.3.6-.3.8-.9.9-1.4.6-2.7 1.4-5.2 1.6-5.7.2-.5.1-.5 0-.6 0-.1-.3-.5-.7-1-1.5-1.9-2.6-4.6-2.9-5.3-.2-.8-.4-.9-.8-1.2-.4-.3-.4-.1-1.4-.7-1.9-1.2-1.8-3.1-1.8-3.7 0-.7-.1-1.8-.8-2.4-.7-.6-1.9-2.3-2.6-3.3-.7-1-1.4-2.6-2-4.2-.4-1.1-.5-3-.1-3.8.3-.5.1-.8-.3-1-.7-.5-1.7-1.4-2.3-2.3-.5-.9-.1-1.6 0-2 .2-.4.3-.8.6-2.9.4-2.1.1-4-.4-5s-1.5-2-2-3.2c-.2-.4-.3-.8-.3-1.1l.1-.2C27 52 22.6 63.5 22.6 76.1c0 10.4 3 20 8.2 28.2l.5-.3c6.6-4.1 12.9-6.3 13.3-6.5M97 88.3c-.3-.7-1.4-1.1-2.2-1.1-.2 0-.7 0-.4.7.3.8.5 1.8 1.6 5.3 1.1 3.7 2.7 10.6 3.1 13.5.1 1 .3 1.1 1 1.1h.6c.4 0 1.3.1 1.6.2.5.2.2.5-.4.6-.3 0-1.4.1-2.2.2 0 0 1.8 7.6 2.9 11.9 2-1.2 3.9-2.6 5.7-4.1-1.3-3.1-2.7-6.7-3.9-9.6-2-4.7-6.7-17.2-7.4-18.7m-11 32.8c-.2-1.3-1.2-9.8-1.3-10.3-9.4 1.4-19.1 3.5-24.3 5.1-3.2 1-9.3 3.2-11 3.9-1.5.6-1.5-.8-1.6-1.8-.1-2.3-.1-6.2.3-10.6.6-6.3 1-8.2 1.1-8.7.1-.4-.2-.4-.3-.3l-.5.2c-.5.2-.7.9-1.1 2.4-.6 2.1-2.5 11.2-2.9 13.7-.1.9-.3 2.3-.5 3.5 8.7 6.4 19.5 10.3 31.1 10.3 4.1 0 8-.5 11.8-1.4-.1-.4-.1-.8-.2-1.2l-.6-4.8m4.9-10.4c-.1-.3-.1-.5-.2-.7-.7.1-1.5.2-2.4.3-.4 0-.7.1-1.1.1 0 0 1.5 9 1.8 10.6l.3 1.7c.1.7.2 1.3.3 2 .1.6.2 1.1.3 1.7 1.2-.4 2.5-.8 3.7-1.2-.2-1-.4-2.1-.4-2.2l-.6-3.7c-.8-3.9-1.3-6.7-1.7-8.6m8.4 9.6c-.7-2.9-2.4-11.1-2.4-11.1-.9.1-2 .3-3.3.4 0 0 2 8.7 2.5 11.3l.6 2.9c1.1-.5 2.1-1 3.2-1.5l-.3-1.5c-.2-.1-.3-.3-.3-.5"/><path fill="#DADADA" d="M51.5 58.8c.3-.3.7-.5.9-.7.4-.3.2-.7-.3-.6-.2 0-.6.1-1 .2-.3.1-.7.2-.8.2-.8.3-1.2 1.2-1.2 1.5-.1.7.6.9 1.1.5.3-.2.8-.7 1.3-1.1m5-1.5c-.6.1-1.9.9-2.5 1.4-.4.3-.6.5-.9.7-.4.3-.7.4-.9.6-.5.5.2.6.4.5.2 0 .7-.2 1.2-.5s1.2-.8 2.3-1.2c1-.4 1.5-.3 2.1-.3.5 0 .4-.5-.1-.8-.5-.3-1.2-.4-1.6-.4m5.4 9.7c-.3.5-.4 1.6.3 2.3.7.8 1.4.4 1.4.2s-.1-.6-.2-.8c-.2-.2-.5-1-.1-1.9 0-.2-.9-.5-1.4.2m15.4-11.1c-.5-.4-1.2-.6-1.7-.6-.2 0-.5 0-.7.1-.8.3-1.5 1.1-1.6 1.2-.1.2 0 .5.4.4.4-.2.8-.3 1.2-.4.7-.2 1.5-.1 1.9.2.7.4 1.1.6 1.6.8.2.1.9.2 1.1.1.5-.3-.1-.4-.3-.5-.5-.4-1.3-1-1.9-1.3m3.6-.3c.1-.5-.2-1-.6-1.2-.6-.4-1.3-.4-2.5-.2-.3 0-.4.3-.2.4.3.1.9.5 1.2.7.3.2 1.2.7 1.4.7.3 0 .5.1.7-.4M61.1 82.4c-.1.2-.2.8-.3 1.2-.1.5-.5.5-.9 0-1.8-1.8-3.1-7.4-3.2-8.1-.1-.8-.8-.7-1-.7-.1 0-.4.1-.8.3-.7.4-1.5 2.2-.8 4 2.8 7 7.2 8.3 8.9 8 .6-.1.7-.6.3-1.2-.4-.7-1-2.3-1.6-3.6-.1-.6-.5-.1-.6.1m32 6.9l-.1-.2v-.3c-.4-1.8-1.2-2-1.3-2.1l-.2-.1h-.2l-.1.1V88c.5 1.9.9 3.8 1.3 5.6v.4c.1.8.4 3.2 1 8.7.1 1.8.3 3.8.3 5.4h.2c.3 0 .7-.1.9-.1l.5-.1.2-.1h.4l.2-.1.1-.1.1-.2v-.6l-.1-.4c-.5-3.2-.9-5.9-1.3-8-1-5.2-1.6-7.6-1.9-9.1M51.6 55.1h.6c.1-1.1 0-2.6 0-3.8.3-3.4.9-7.4 2.1-10.1.9-2 .8-1.4 1.3-2.3l.1-.2v-.4h-.1l-.2.1h-.2l-.4.1h-.1l-.3.1-.1.1-.2.1-.3.2-.4.3-.3.3-.1.1-.2.3-.1.1-.3.4c-2.9 4.3-2.8 8.7-2.9 10.1 0 .5.1 1.3-.3 1.7-.2.2-.6.4-.8.7-.2.2-.2.6-.2.7 0 .4.1 1 .1 1.3.1.4.3.5.7.5l.4-.1c.8 0 1.5-.2 2.2-.3m30.9 16.3c.2-.8 0-1.3-.3-1.7-.3-.5-.8-.9-1.5-1.4-.7-.4-2.1-1.7-2.3-1.9l-1-.9c-.2-.1-.5-.4-1.2-.8-1.7-.9-3.1-.2-3.1-.2-.1 0-.3.2-.5.5-.2.2-.1.7 0 .8v-.2h.5c1.2.1 2.3.8 3 1.5.7.7 1.6 1.8 2.5 2.5 1 .7 1.5.6 1.9.9.4.3.7.4 1 1.9l.1.5c.1-.2.7-.8.9-1.5m-20.9-8.8v.3c0 .8-.5 1.5-.8 1.9-.5.6-1.3 1-1.8 1.2-.5.2-1.2.4-1.3.4l-.3.1-.2.1h-.4l-.1.1v.1l.2.3c0 .1.3.4.8.3.6-.1 1-.3 1.5-.4.4-.1 1-.4 1.1-.4l.4-.3.1-.1.1-.1.1-.1.3-.3c1.6-1.8 1.5-3.2 1.5-3.5 0-.3-.1-.5-.2-.3-.2.3-.3.4-.6.6l-.2.1h-.2M52.3 70l.5.5c.3.3.6.6.9.8l.3.2.2.1.2.1h1.3l.2-.1.1-.1.2-.1.1-.1.3-.3.5-.5.5-.4c-.2.1-.5.2-.8 0 0 0-.3-.3-.6-.8-.2-.3-.5-.6-.7-.9-.2-.2-.3-.4-.3-.5-.1-.3-.2-.4-.2-.5-.1-.2-.1-.5-.1-.5-.4-.1-.9-.2-1.4-.3l.1.1v.7c-.1.3-.3.5-.7.4-.6-.1-1.2-.5-1.4-.6-.2-.1-.5 0-.3.4.1.2.2.5.3.7l.1.1c.1.2.3.4.4.6-.1.6.1.8.3 1m26.4-6.8c-.3.1-.5.2-.6.3v.1l.1.1.1.1.1.1.1.1.1.1h.5c.3-.1.7-.2 1.1-.4h-.4l-.1-.1-.1-.1-.2-.6v-.3c0 .3-.3.5-.7.6m-12.5 5.3c-.1-.1-.3-.6-.4-.9-.1-.3-.1-.5-.2-.8-.1-.2-.1-.7-.1-1.1 0-.4.1-.8.3-1.9.2-.8-.1-1.6-.1-2.4 0-.6-.1-2.1-.1-3.6l-.2.2-.2.1h-.1l-.2.2c-.2.3-.6 1.3-.5 2.1.1.8.2 2 .2 2.6 0 1.4-.6 3.3-.4 4.1l.1.2v.1l.1.2.2.3.1.1.2.2.1.1.3.3.1.1.3.2.1.1.4.3h.1l.4.2h.1c-.1-.1-.1-.2-.2-.4-.3-.2-.4-.4-.4-.6m4.1 33.4l-.2.1-.2.1h-.1l-.2.1c-.2.1-.4.3-.6.5l-.1.1-.3.3-.1.1-.4.4-.1.1c.3-.1.7-.2.9-.2.1 0-.3.4-.5.8s-1.5 4.1-2.7 6.1c-.4.8-.2.5-.4 1.1h.6c.2 0 .5-.1.8-.1h.3l.1-.1.1-.1.1-.1.1-.1.1-.1.1-.1.1-.1.1-.1.2-.6.1-.1.2-.3.1-.2.1-.2c.1-.2.2-.4.3-.7 1.5-3.5 1.9-5.2 2-5.7.1-.8-.1-1.1-.5-.9m8.4 3.1c1.2.8 1.6 1 2.9 1.5.4.2 1.5 0 1.9-.7h-.3l-.1-.1c-.2-.2-.4-.3-1.2-.9-3.3-2.3-5.6-3.4-6.4-3.7-.3-.1-.6.1-.4.4.2.3.4.5.5.8l.1.1c.9.9 2.3 2.1 3 2.6m-18.5-6.9c-1.5.8-.6 2.6-.5 3.8.3 1 .6 2.8 2 3 1 .1 3.3-.5 4.5-.8.2-.3.3-.6.4-.8l.1-.2c.3-.5-.2-.4-.3-.4-.2 0-.7.1-2.1.4-1.6.3-2.1.1-2.6-.3-.4-.4-.4-1.2-.5-2-.1-.9-.2-1.3-.3-2v-1c-.2.1-.4.2-.7.3m-2.5-3.2l1.5 1.1c.1.1 1.5.8 2.4 1.3h.1l.2-.1c1.2-.5 2.4-.5 2.7-.6.4-.1.2-.4.1-.5-.1-.1-.7-.3-1.6-.7-4.3-1.9-6.9-4.3-7.2-4.6-.3-.3-.6-.4-.9.5v1.3c.8.7 2 1.5 2.2 1.7l.5.6m-4.6 8.5c.4.8 1.6 2.4 1.7 2.5.1.1.3.4.6.7.3.3.6.6.6.7l.8.8.4.5c.4.4 2 1.7 2.1 1.8l1 .6c1.3.2 2-.6 2.1-.8.1-.2.2-.3.1-.6v.1l-.1.1-.1.1h-.2l-.2-.1c-1.4-.9-2.5-2.2-4.1-4-1.8-2-4.6-7.7-4.7-7.9-.2-.3-.5-.2-.6-.2-.1 0-.5.3-.7.4-.2.1-.3.5-.4 1.9.3.8 1.3 2.8 1.7 3.4m-11.4 4.2l.3-1.2c.2-.7.3-1.1.4-1.3.2-.7 0-1.5-.4-1.7l-.2-.1c-.1 0-.3-.1-.5-.1h-.2c-.2 0-.4-.1-.6-.1-.9 1.4-1.8 6.3-2.3 8.6-.1.3-.2.7-.3 1.2.7.7 1.3 1.3 2 1.9.5-1.9 1.1-4.1 1.6-5.8-.1-.5 0-1 .2-1.4"/><path fill="#222" d="M119.2 89.2c-1.6-.4-5.3-1.1-10.4-1.6-5.1-.5-9.2-.9-9.8-.9-.5-.1-.7-.5-1.2-.8-1.7-.9-5-1.7-7-2.4-.5-.2-.8-.6-1.5-1.5-.4-.5-.7-.8-1.1-1.1-.2-.2-.7-.6-.8-.7-.1-.1-.2-.4-.1-.9.1-.6.4-2.7.4-5.3 0-.7.3-1.1.6-1.3.2-.1 1.3-.6 1.2-1.7-.1-1.1-.4-2.6.5-4.8.9-2.1 1.9-5.9 2.1-8.3.1-2.6-.5-4.3-1.6-5.3-.4-.3-.9-.9-.5-2 .4-1.2 1.2-4.6.4-6.8-.2-.5-.4-.5-.5-.6-.1-.1-.7-.5-.9-1.4-.3-1.2-1.1-5.5-4.4-9.8-1.7-2.3-3.6-3.7-4.4-4.2-.5-.3-1.4-1-2.5-1.5-1.5-.8-2.8-1.4-5.2-2.2-.2-.1-.8-.2-1.5-.4 0 0-2.1-.6-4.4-.8-.4 0-.9-.1-1.5-.1-2.3-.1-3.2 0-4.4.1h-.4c-.2 0-.5.1-.8.1-3.6.6-7.2 2.3-9 3.1-1 .5-1.9 1-2.7 1.4h-.1c-.2.1-.5.3-.9.5-.5.3-1 .5-1.4.8-1.4.7-2.7 1.1-3.6 1.4l-.4.2c-.7.3-1.1.5-1.2 1-.1.8.8 1.5.5 2.8-.8 3.1-4.3 6.1-4.9 6.4-1.6 1-1.5 1.7-1.6 2 0 .3.1.7.3 1.1.5 1.2 1.6 2.1 2 3.2.5 1 .8 2.9.4 5s-.5 2.5-.6 2.9c-.2.4-.6 1.1 0 2 .5.9 1.6 1.8 2.3 2.3.4.3.5.5.3 1-.4.8-.3 2.7.1 3.8.6 1.6 1.4 3.2 2 4.2.7 1 1.9 2.7 2.6 3.3.7.6.8 1.7.8 2.4s-.1 2.6 1.8 3.7c1 .6 1.1.4 1.4.7.3.3.5.4.8 1.2.2.8 1.3 3.4 2.9 5.3.4.5.7.9.7 1 .1.1.1.2 0 .6-.2.5-1 3-1.6 5.7-.1.5-.3 1.1-.9 1.4-.6.3-2 1.1-2.5 1.3-.5.3-.7.4-1.3 1.1-.3.3-.4.5-.6.7-.1.1-.1.2-.6.4-.4.2-6.7 2.4-13.3 6.5l-.5.3 1.2 1.8c1.5-.8 5-2.6 5.6-2.8.4-.2 1-.3 1.4-.3h.6c.3.1.8.2 1.3.3h.2c.2.1.4.1.5.1l.2.1c.4.1.6.9.4 1.7 0 .1-.2.6-.4 1.3-.1.3-.2.7-.3 1.2-.1.4-.3.9-.4 1.4-.5 1.8-1.1 3.9-1.6 5.8 1.3 1.2 2.7 2.3 4.2 3.4.2-1.2.3-2.6.5-3.5.3-2.5 2.3-11.6 2.9-13.7.4-1.5.6-2.2 1.1-2.4l.5-.2c.1-.1.3-.1.3.3-.1.5-.5 2.4-1.1 8.7-.4 4.4-.4 8.2-.3 10.6.1 1 .1 2.4 1.6 1.8 1.8-.7 7.8-2.9 11-3.9 5.2-1.6 14.9-3.7 24.3-5.1l2.6-.4s1.5 9 1.8 10.6l.3 1.7-.3-1.7c-.3-1.6-1.8-10.6-1.8-10.6.4-.1.7-.1 1.1-.1l2.4-.3 2.7-.3c1.3-.2 2.4-.3 3.3-.4 0 0 1.8 8.2 2.4 11.1 0 .2.1.4.1.5l.3 1.5-.3-1.5c-.5-2.3-2.6-11.7-2.6-11.7l2.8-.4c.8-.1 1.9-.2 2.2-.2.7 0 .9-.4.4-.6-.4-.1-1.2-.2-1.6-.2h-.6c-.7 0-.8-.1-1-1.1-.4-2.8-2-9.8-3.1-13.5-1.1-3.5-1.4-4.6-1.6-5.3-.2-.7.2-.7.4-.7.8 0 1.9.5 2.2 1.1.7 1.5 5.5 14 7.4 18.7 1.2 2.9 2.6 6.5 3.9 9.6.9-.7 1.7-1.4 2.5-2.2-2.5-5.4-8-17.8-10.9-24-.1-.2-.2-.6-.3-.8v-.2c0-.4.5-.5.8-.4 1 .1 10.3.7 12.9 1 1.7.2 3.3.4 4.5.6.3 0 .5.1.7.1.2 0 .4.1.5.1.8.2 2.3.8 3.6 1.5.6.3 1.2.7 1.9 1.3l.6-1.8c-.5-.3-1-.7-1.6-1-1.1-.3-2.4-.8-3.8-1.1M43.4 58.3c-.3.1-.5.1-.7-.2-.4-.8-.8-2.3-.9-3.3-.1-1-.3-3.9-.3-5.5.1-1.6-.2-2.5-.8-3.2-.6-.8-.9-1.3-1.1-1.5-.2-.3-.1-.5.3-.8.2-.1.5-.1.8-.1.5-.1 2.2-.7 3.5-1.7 1.3-1 3.3-2.9 4.6-3.6 1.4-.7 2-1.1 3.6-1.3.3 0 .7.1.2.5-.5.4-2 .9-3.8 3.6-1.1 1.7-1.3 2.6-1.6 3.3-.4.7-.7.9-1.2 1.5-.3.3-.8.9-1 1.8-.2.9-1 3.9-.5 8.6 0 .5.3 1.3-.2 1.5-.4.2-.7.3-.9.4zm2.2 6.3c-.3-.2-1.4-1.7-1.9-3.3-.1-.2-.1-.6.2-.7.2-.1.5-.3.7-.4.2-.1.6-.2.6.4.1.6.1 1.3.8 3.1.1.3.2.4.2.5 0 .3-.4.5-.6.4zm2.2-5.7c-.1 0-.8.1-1.2.2-.2 0-.5.1-.5-.1 0-.3-.1-.6-.1-.7V58c.3-.1 1.5-.3 1.6-.3.1 0 .2 0 .3.3 0 .2.1.5.1.6 0 .1 0 .3-.2.3zm.4-3.8c-.1-.4-.2-1-.1-1.3 0-.1.1-.5.2-.7.3-.3.6-.5.8-.7.4-.3.3-1.2.3-1.7.1-1.4 0-5.9 2.9-10.1l.3-.4.1-.1.3-.3.1-.1.3-.3.4-.3.1-.1.2-.1.1-.1.3-.1h.1l.4-.1h.2l.2-.1h.1l1.8-.3c1.7-.3 3.7 0 4.8.3.8.3 1.2.5 1.5.2.3-.3 1-1.1 1.3-1.4l.1-.3v-.5l-.3-.3c-.3-.2-3.7-2.7-8.2-2.8-4.4-.1-8 1.5-9 1.8-.2.1-.3.1-.4.1-.1 0-.5-.1-.4-.4.2-.3.6-.8 1-1.1.4-.4 2.5-2.4 4.6-3.3.4-.2.5-.2.7-.3.3-.1.5-.8-.2-.8s-1 .1-1.4.1c-.4.1-.6-.1-.3-.4.2-.3.7-.7 1.5-1.1 1.8-1 5.1-2 6.7-2.4 2-.4 2.3-.5 3.6-.6 1.3-.1 2.3 0 2.8 0 4.1.2 8.7 1.5 12.4 3.9 3.4 2.5 8.4 6.8 9.4 17.2.1 1.2 0 2 0 2.3 0 .3-.4.9-.7.2-1-2.1-2.6-5-4.4-7.6l-.4-.3h-.1v.5c0 .2.6 3 .6 3.4 0 .4-.2 1.4 1.3 3.1.6.7 1.1 1.4 1.4 2.4.3 1.1.4 1.5.4 1.6 0 .1.1.4-.4.4s-2.5-.1-3.3-.1c-.8 0-6.6.6-8.8 1-2.2.5-3.3 1-4.4 2.2-.3.3-.6.5-.7.6h-.9c-.5 0-1.5.1-2 .3-.5.2-.9.4-1.5.2-.9-.3-2.4-1.9-6.2-1.8-2.3.1-3.5.2-5.1.4h-.6c-.7.1-1.4.2-2.3.4l-.4.1c-.5.3-.7.1-.8-.3zm35.5-.9l-.3.3-1.4.1-.3-.2-.1-.6c0-.1 0-.2.2-.2.1 0 1.2-.1 1.6-.2l.3.2v.6zm-4.9 1.1c-.3-.2-.9-.6-1.2-.7-.2-.1-.2-.4.2-.4 1.2-.2 1.9-.2 2.5.2.4.3.7.8.6 1.2-.2.5-.4.4-.6.4-.3 0-1.1-.5-1.5-.7zm.7 2.3c-.2.1-.9 0-1.1-.1-.5-.2-.9-.3-1.6-.8-.5-.3-1.2-.4-1.9-.2-.5.1-.8.3-1.2.4-.4.1-.5-.2-.4-.4.1-.2.7-.9 1.6-1.2.2-.1.5-.1.7-.1.5 0 1.2.2 1.7.6.5.4 1.3 1 1.9 1.2.3.2.8.3.3.6zM62.7 75.7c-2 .7-2.6 0-2.8-.2-.2-.2 0-.4.3-.5.5-.2 1.1-.7 1.5-1 .3-.3 1-1.4 1.4-1.8.2-.2 1.4-.6 2.3-.2 1.1.5 2.7.6 3.7.4 1-.1 1.4-.9 1.6-1.3.2-.4.8-.6 1-.7.8-.3 1.8-1.4 1.9-1.5.1-.1.4-.3.9 0 .9.5 1.4 1.3 2.3 2.2.9 1 1.9 1.1 2.2 1.1.3 0 .5.4.5.5 0 .1-.2.4-.4.6-.2.1-.3.4-1.9.4-8.3.3-12 1.2-14.5 2zm11.2 1c-.5.3-2 .8-2.7.9-.7.1-3 .6-3.4.6-.5 0-1.2-.1-1.8-.5-.1-.1-.3-.4.2-.5.8-.1 2.1-.7 6.8-1h.9c.1.1.5.3 0 .5zM63.1 87.2c-1.6.3-6-1-8.9-8-.7-1.8.1-3.6.8-4 .4-.2.6-.3.8-.3.2 0 .9-.1 1 .7.1.7 1.4 6.2 3.2 8.1.4.5.8.4.9 0 .1-.4.3-1 .3-1.2 0-.2.5-.6.7 0 .5 1.3 1.1 2.9 1.6 3.6.3.5.2 1-.4 1.1zm.3-18.4c.2.2.3.6.2.8 0 .2-.7.6-1.4-.2s-.6-1.9-.3-2.3c.5-.7 1.4-.4 1.3-.1-.3.8 0 1.6.2 1.8zm-5.3-10.2c-.5 0-1.1-.1-2.1.3-1.1.4-1.8.9-2.3 1.2-.5.3-1.1.5-1.2.5-.2 0-.8-.1-.4-.5.1-.1.4-.2.9-.6.3-.2.5-.4.9-.7.6-.5 1.9-1.3 2.5-1.4.4 0 1.1 0 1.6.4.5.3.7.8.1.8zm-9 .9c.1-.3.4-1.3 1.2-1.5.1 0 .5-.2.8-.2.4-.1.8-.2 1-.2.6-.1.7.3.3.6-.2.2-.6.4-.9.7-.5.4-1 .9-1.4 1.2-.4.3-1.1.1-1-.6zm2.7 9.9c-.2-.2-.3-.4-.4-.6l-.1-.1c-.1-.2-.2-.5-.3-.7-.2-.5.1-.5.3-.4.2.1.8.4 1.4.6.4.1.6-.1.7-.4v-.7l-.1-.1-.2-.1c-.5-.2-2.1-.7-3.2-2.8-.2-.3 0-.6.1-.7.1-.1.5-.3.7-.5.2-.1.5-.1.7.1.3.2.8.6 1.3.6.4 0 .5-.2.5-.3.3-.4 1.1-2 3.2-2 .9 0 1.7.1 2 0 .3 0 1.3-.1 1.9-.5.6-.4.9-.1.5.3l.1-.1v.1l-.1.2c-.1.2-.2.4.1.7l.6.6.2.1h.1l.2-.1c.2-.2.4-.3.6-.6.1-.2.3 0 .2.3 0 .2.1 1.7-1.5 3.5l-.3.3-.2-.1-.1.1-.1.1-.1.1-.1.1-.1.1-.2.2v.1l-.2.2-.2.3c-.4.9-.4 1.2-.4 1.6 0 .3-.3.5-.6.6-.2.1-.7.4-1.2.7l-.5.4-.5.5-.3.3-.1.1-.2.1-.1.1-.2.1h-1.3l-.2-.1-.1-.1-.3-.2c-.3-.2-.6-.5-.9-.8l-.5-.6c-.2-.2-.4-.4-.5-.6zm18.9 33.3c-.1.5-.5 2.2-2 5.7-.1.2-.2.5-.3.7l-.1.2-.1.2-.2.3v.2l-.1.2-.1.1-.1.1-.1.1-.1.1-.1.1-.1.1-.1.1-.1.1h-.3c-.3.1-.6.1-.8.1h-.6c-2.3.4-8.4 1.4-11.3 2-1.9.4-1.7-.6-2.2-2.3-.2-.7-.9-7.1-.5-11.2.1-1.3.2-1.7.4-1.9.2-.1.6-.4.7-.4.1 0 .4-.1.6.2.1.3 2.9 5.9 4.7 7.9 1.6 1.8 2.7 3.1 4.1 4l.2.1h.2l.1-.1.1-.1c0-.2-.1-.5-.3-.7-.3-.3-1.5-1.6-3.2-3.9-2.1-3-3.5-7.4-3.9-8.8-.3-.9-.4-2.4-.4-3.6v-1.1l.1-.2c.3-.9.6-.8.9-.5.3.3 2.9 2.7 7.2 4.6.9.4 1.5.6 1.6.7.1.1.3.4-.1.5-.4.1-1.5.1-2.7.6l-.2.1c-.4.2-.6.4-.7.6v.9c.1.7.2 1.1.3 2 .1.9 0 1.7.5 2 .4.4 1 .6 2.6.3 1.5-.3 2-.4 2.1-.4.2 0 .6-.1.3.4l-.1.2c-.3.6-1.2 2-1.4 2.9-.3 1-.4 1.3-.4 1.5 0 .2.1.5.4.1.3-.4.9-1.8 2.4-3.5l.6-.6.4-.4.1-.1.3-.3.1-.1c.2-.2.4-.4.6-.5l.2-.1h.1l.2-.1.2-.1c.4 0 .6.3.4 1zm2.6 7.7c-.2.1-1.3.2-1.5.2l-.2-.3c.1-.1.8-1.1 1.2-2.7.1-.3.2-.5.3-.1.1.3.4 1.7.5 2.2 0 .2 0 .6-.3.7zm.4-13.4c-.7.3-1.5-.5-2.1-.9-1.4-1-2.7-1.9-3.7-3.2-1.6-2-1.5-3.4-1-5.9.3-1.8-.3-3.5-.4-3.8-.1-.2 0-.5.4-.3s.7.7 1.1 1.2c.4.5.5.1.5-.2.1-.7-.1-1.3-.2-1.7v-.1c-.1-.2-.2-.7-.7-.8-.5-.1-1.1-.2-1.4-.4l-.1-.4c.3-.3.7-.6 1.1-.8.5-.2 1-.5 1.7-.4 4.5 0 5.6-1 7.3-1.7.3-.1.5-.2.8-.1.3.1 1.1.4 1.3.7.2.3.2 1.8.6 2.8.4 1 1 0 1.2-.5.1-.4.2-1.5.2-1.8 0-.3.1-1.4.4-1.8.7-.8.9-1.7 1-2 .1-.3.1-1.2 0-2.5l-.1-.5c-.2-1.5-.5-1.6-1-1.9-.4-.3-.8-.2-1.9-.9-.9-.6-1.8-1.8-2.5-2.5s-1.8-1.4-3-1.5h-.5v.2c0 .3.2.6.3.8.1.2.3.8-.1 1.2-.3.4-2.3 2.1-4.1 2.1-.8 0-1.5-.2-2.1-.4h-.1l-.4-.2h-.1l-.4-.3-.1-.1-.3-.2-.1-.1-.3-.3-.1-.1-.1.3-.1-.1-.2-.3-.1-.2v-.1l-.1-.2c-.3-.8.4-2.7.4-4.1 0-.6-.1-1.8-.2-2.6s.3-1.9.5-2.1l.2-.2h.1l.2-.1.3-.1c.2-.1.4-.1.6-.2.7-.2 1.4.2 1.6.7.7 1.9 1.4 2.3 1.7 2.4.3.1.7-.2.8-.4.2-.1.5-.6.4-.9-.3-.3-.4-.5-.5-.8-.1-.4.3-.4.4-.3 1.4.6 2.1.7 3.4.7 1.4 0 3.5-.9 3.7-.9.2 0 .6.1.8.3l.1.1c.1.2.3.5.5.5.2.1.7 0 .9 0 .3 0 .9-.1.9.5 0 1.7-1.4 2.7-1.5 2.8l-.1.1v.2l.2.6.1.1.1.1h.3l.1-.1c1.1-.7 1.6-1.5 2.1-2.5s.7-4.3.8-4.8c0-.5.2-.9.5-1.1.3-.2 1.6-1.1 1.8-1.1.2 0 .4-.1.6.4.2.5.7 3.5.8 4 .1.5.4.4.5.3.3-.2.5-.5.7-.9.3-.4.1-1-.2-1.3-.3-.3-.6-.7-.5-1.2.4-1 1.2-1 1.4-.9.2 0 1 .4 1.2 2.6.2 3.2-1.1 6.6-1.4 7.4-.7 1.9-.8 3.2-1 3.8-.1.6-.6.5-.7.4l-.3-.6c-.1-.1-.3 0-.4.5-.1.5-.5 1.2-.7 1.6-.2.2-.1.6-.1.9.1.6.4 2.7.3 5.1-.2 4.3-1.6 6.9-2.6 8.4-2.5 3.3-4.8 4.7-5.1 4.9-.4.3-1 .2-1.2.1-.2-.1-.4-.3-.8-.5l-.1-.1c-.3-.1-.4.3-.4.4 0 .1.2.6.3 1 .2.8-.2 1.8-.7 2.6-.7 1.1-1.4 2.3-1.2 3.6l-.1.6zm21.2 1.3c.4 2.2.8 4.8 1.3 8l.1.4v.6l-.1.2-.1.1-.2.1h-.4l-.2.1-.5.1c-.3 0-.6 0-.9.1-3.3.3-9.8 1-14.9 1.6h-.3c-.4.1-.6 0-.7-.4 0-.4-.6-4-2.5-7-.2-.3-.3-.6-.5-.8-.2-.3.1-.5.4-.4.8.3 3.1 1.3 6.4 3.7.8.6 1.1.8 1.2.9l.1.1h.3l.1-.3c-.2-.6-1.3-1.7-4.1-4.3-.4-.4-.4-.5 0-.6h2.1c.6 0 1.9-.1 1.7-1.8-.2-1.4-.4-2.8-.4-3.2 0-.4-.1-1.2-1.1-1.3-1-.1-2.6.1-4.1.6-.4.1-.5 0-.3-.3.3-.3 2.9-1.9 5.1-4.5 2.4-2.8 3.5-4.8 4.1-6.7.1-.3.2-.2.4-.1.1.1 1 .8 1.4 2.6.3 1.8.9 4.3-.2 10.8-.6 3.6-1.3 5.7-1.5 6.2-.2.5.1.8.5.3.8-1.1 1.8-4 2.7-7.3.8-3.3 1.2-6.2 1.3-8v-1.3l.1-.1h.2l.2.1c.2.1.9.3 1.3 2.1l.1.4v.1l.1.2c.3 1.5.9 3.9 1.8 9z"/><path fill="#FFF" d="M61.9 97.2l-.2.1.2-.1m6.6 7.1c.2-.4.6-.8.5-.8-.1 0-.5.1-.9.2l.1-.1-.6.6c-1.5 1.8-2.1 3.1-2.4 3.5-.3.4-.4 0-.4-.1 0-.2.1-.4.4-1.5.3-.9 1.1-2.3 1.4-2.9-.1.2-.3.5-.4.8-1.2.2-3.5.9-4.5.8-1.3-.2-1.7-1.9-2-3-.1-1.2-1-3 .5-3.8.3-.1.5-.2.9-.3v.1c.1-.2.3-.4.7-.6h-.1c-.9-.5-2.3-1.2-2.4-1.3l-1.5-1.1-.8-.4c-.2-.1-1.4-1-2.2-1.7 0 1.2.1 2.6.4 3.6.4 1.4 1.8 5.8 3.9 8.8 1.6 2.3 2.9 3.6 3.2 3.9.2.2.3.5.3.7v-.1c.1.3.1.4-.1.6-.1.2-.8.9-2.1.8l-1-.6c-.1-.1-1.7-1.5-2.1-1.8l-.4-.5-.8-.8c-.1-.1-.3-.4-.6-.7-.3-.3-.6-.6-.6-.7-.1-.1-1.3-1.7-1.7-2.5-.4-.7-1.4-2.7-1.7-3.4-.4 4 .3 10.4.5 11.2.5 1.7.3 2.7 2.2 2.3 2.9-.6 9-1.6 11.3-2 .2-.6.1-.3.4-1.1 1.1-2 2.4-5.7 2.6-6.1m4.6 3.3c-.1-.4-.3-.2-.3.1-.4 1.6-1.1 2.6-1.2 2.7l.2.3c.2 0 1.2-.2 1.5-.2.4-.1.3-.5.3-.6-.1-.7-.4-2-.5-2.3M44.4 56.4c-.5-4.6.3-7.7.5-8.6.2-.9.7-1.5 1-1.8.6-.6.9-.8 1.2-1.5.3-.7.5-1.7 1.6-3.3 1.8-2.7 3.3-3.2 3.8-3.6.5-.4.1-.5-.2-.5-1.6.2-2.2.5-3.6 1.3-1.4.7-3.4 2.7-4.6 3.6-1.3 1-3 1.6-3.5 1.7-.3.1-.6 0-.8.1-.3.2-.5.5-.3.8.1.3.5.8 1.1 1.5.6.8.9 1.6.8 3.2-.1 1.6.1 4.5.3 5.5.1 1 .4 2.5.9 3.3.2.3.4.3.7.2.3-.1.5-.2.8-.4.6-.2.4-1 .3-1.5m1.6 7.2c-.7-1.8-.7-2.5-.8-3.1-.1-.6-.5-.5-.6-.4-.2.1-.5.3-.7.4-.3.1-.2.6-.2.7.5 1.7 1.6 3.2 1.9 3.3.2.2.7-.1.6-.4-.1-.1-.1-.2-.2-.5m14-1.8c-.4.2-.6.3-.8.3-.2.1-.4.3-.4.6.1.4.2.5.2.7 0 .3-.1.8-.4 1.3-.3.6-.8 1-1.1 1.1-.3.2-.4.2-.6.3 0 0-.1.1-.1.3h.4l.2-.1.3-.1s.8-.2 1.3-.4 1.3-.6 1.8-1.2c.3-.4.8-1.2.8-1.9v-.3l-.2-.1-.6-.6c-.2-.3-.2-.5-.1-.7-.1.4-.3.6-.7.8m15 31.4c.5-.8.9-1.8.7-2.6-.1-.4-.3-.9-.3-1 0-.1 0-.5.4-.4 0 0 0-.2-.3-1.2s-1-2-1.1-2.3c-.1-.2-.5-.8-.5-.8 0-.1-.1-.4-.2-1-.2-1.2-.1-2-.1-2v-.3l-.1-.1-.4.1c-.3.3-.3.4-.3.4v.3c0 .4-.1.6-.3.9-.2.3-.3.4-.5.3-.2 0-.4-.2-.5-.7 0-.5-.1-.6-.2-.8l-.3-.1c-.1 0-.1.1-.6.2s-1.3.2-1.4.2l-.6.1c.1.4.3.9.2 1.7 0 .3-.1.7-.5.2-.4-.5-.8-1-1.1-1.2-.4-.2-.5.1-.4.3.1.2.7 1.9.4 3.8-.5 2.5-.6 3.9 1 5.9 1.1 1.3 2.3 2.2 3.7 3.2.6.4 1.4 1.2 2.1.9l.1-.2c-.3-1.6.5-2.8 1.1-3.8m4.3-33.9l-.3.1-.2.2c-.1.1-.1.3.1.5s.4.5.4.8c0 .1 0 .6-.1.9-.2.4-.3.7-.5.9-.1.1-.4.5-.5.7v.2-.1c.1-.1.3-.2.6-.3.4-.1.7-.3.9-.4v.1l.1-.1c.1-.1 1.5-1.2 1.5-2.8 0-.6-.6-.5-.9-.5-.4-.2-.9-.1-1.1-.2m-.2 14c.2-.1.4-.5.4-.6 0-.1-.2-.4-.5-.5-.3 0-1.3-.2-2.2-1.1-.9-1-1.3-1.7-2.3-2.2-.5-.3-.8-.1-.9 0-.1.1-1.1 1.2-1.9 1.5-.3.1-.8.3-1 .7-.2.4-.6 1.2-1.6 1.3-1 .1-2.7.1-3.7-.4-.9-.4-2.1 0-2.3.2-.5.4-1.1 1.5-1.4 1.8-.3.3-1 .8-1.5 1-.2.1-.4.3-.3.5.2.2.8.9 2.8.2 2.5-.9 6.2-1.8 14.5-2 1.6 0 1.7-.2 1.9-.4M73 76.4c-4.7.2-6 .8-6.8 1-.4.1-.3.4-.2.5.6.4 1.3.6 1.8.5.4 0 2.7-.5 3.4-.6.7-.1 2.2-.7 2.7-.9.5-.3.1-.4-.1-.4 0-.2-.3-.2-.8-.1"/><path fill="#FFF" d="M65 36.5c.8-.7 2.7-2.5 4.3-2.5 1.6.1 6.4.7 9 2.5 2.7 1.9 3.5 3.7 3.7 4.2l.3.2c1.8 2.7 3.4 5.5 4.4 7.6.3.7.7.1.7-.2 0-.3.1-1 0-2.3-1-10.4-5.9-14.6-9.4-17.2-3.6-2.4-8.3-3.7-12.4-3.9-.5 0-1.5-.1-2.8 0-1.4.1-1.6.1-3.6.6-1.6.3-4.9 1.4-6.7 2.4-.8.5-1.3.8-1.5 1.1-.2.3 0 .5.3.4.4-.1.7-.1 1.4-.1s.5.7.2.8c-.2.1-.3.2-.7.3-2.1.9-4.2 2.9-4.6 3.3-.4.4-.8.8-1 1.1-.1.3.2.4.4.4.1 0 .2 0 .4-.1.9-.3 4.5-1.9 9-1.8 4.5.1 7.9 2.6 8.2 2.8l.4.4M47.9 58c0-.2-.2-.3-.3-.3-.1 0-1.3.2-1.6.3l-.1.2c0 .1.1.5.1.7 0 .2.3.1.5.1.4-.1 1.2-.2 1.2-.2.2 0 .2-.2.2-.3.1 0 0-.2 0-.5m35.5-4.7c-.4 0-1.5.1-1.6.2-.2 0-.2.1-.2.2l.1.6.3.2 1.4-.1.3-.3v-.6l-.3-.2m-43.1 49.8c.2.1.4.1.6.1-.5-.1-1-.2-1.3-.3-.1 0-.4-.1-.6 0-.4 0-1 .1-1.4.3-.6.3-4.1 2.1-5.6 2.8 1.7 2.4 3.6 4.7 5.7 6.8.1-.5.2-.9.3-1.2.5-2.2 1.4-7 2.3-8.5m78.1-12.4c-.2 0-.4-.1-.7-.1-1.1-.2-2.8-.5-4.5-.6-2.5-.2-11.9-.9-12.9-1-.3 0-.8 0-.8.4v.2c.1.2.2.6.3.8 2.9 6.2 8.4 18.5 10.9 24 6.1-5.7 10.8-12.8 13.6-20.8-.7-.5-1.3-1-1.9-1.3-1.4-.7-2.8-1.3-3.6-1.5 0 0-.2-.1-.4-.1m-29 32l-.3-1.7c-.3-1.6-1.8-10.6-1.8-10.6l-2.6.4c.1.5 1.1 9 1.3 10.3l.7 4.8c.1.4.1.8.2 1.2 1.1-.2 2.1-.5 3.2-.8-.1-.5-.2-1.1-.3-1.7-.2-.6-.3-1.3-.4-1.9m1.4-12.8c0 .2.1.5.2.7.4 1.9.9 4.7 1.7 8.5l.6 3.7c0 .2.2 1.2.4 2.2 1-.4 1.9-.8 2.9-1.2l-.6-2.9c-.5-2.6-2.5-11.3-2.5-11.3l-2.7.3m8.9-1.1l-2.8.4s2 9.3 2.6 11.7l.3 1.5c1-.5 1.9-1.1 2.9-1.7-1.3-4.3-3-11.9-3-11.9"/><path fill="#F3F3F3" d="M55.6 38.7l-.1.2c-.5 1-.3.3-1.3 2.3-1.2 2.7-1.7 6.6-2.1 10.1.1 1.1.1 2.7 0 3.8 1.6-.2 2.8-.3 5.1-.4 3.8-.2 5.3 1.4 6.2 1.8.6.2 1 0 1.5-.2s1.5-.4 2-.3h.9c.1 0 .5-.3.7-.6 1.1-1.2 2.3-1.7 4.4-2.2 2.2-.5 8-1 8.8-1 .8 0 2.8.1 3.3.1s.4-.3.4-.4c0-.1-.1-.6-.4-1.6-.3-1.1-.8-1.7-1.4-2.4-1.5-1.8-1.3-2.7-1.3-3.1 0-.4-.6-3.2-.6-3.4v-.5h.1c-.2-.5-1.1-2.3-3.7-4.2-2.7-1.9-7.4-2.4-9-2.5-1.7-.1-3.5 1.8-4.3 2.5l.1.1v.3l-.1.1c-.3.3-1 1.1-1.3 1.4-.3.3-.7.1-1.5-.2-1-.3-3-.6-4.8-.3l-1.8.3.2.3m-4 16.4c-.7.1-1.4.2-2.3.4.9-.1 1.6-.3 2.3-.4m.3 0h-.2.2m.3-.1l-.3.1.3-.1m-.5.1h-.1.1m-2.8.5l.4-.1-.4.1m5.8 11.5s.1.3.1.5c0 .1.1.3.2.5.1.1.2.3.3.5.2.3.4.6.7.9.4.5.6.8.6.8.3.2.6.1.8 0 .5-.4 1-.7 1.2-.7.3-.1.6-.3.6-.6s0-.7.4-1.6l.2-.3.2-.2v-.1l.2-.2.1-.1.1-.1.1-.1-.4.3c-.1.1-.6.3-1.1.4-.4.1-.8.3-1.5.4-.5.1-.8-.2-.8-.3l-.2-.3v-.1l.1-.1c0-.2.1-.3.1-.3.2-.1.3-.1.6-.3.3-.2.8-.6 1.1-1.1.3-.6.4-1.1.4-1.3 0-.3-.1-.4-.2-.7-.1-.4.2-.6.4-.6.2-.1.4-.1.8-.3.4-.2.6-.4.7-.5l.1-.2v-.1l.1-.2c.3-.5.1-.8-.5-.3-.6.4-1.7.5-1.9.5-.3 0-1.1-.1-2 0-2.1 0-2.9 1.6-3.2 2-.1.1-.1.3-.5.3-.5 0-1-.4-1.3-.6-.3-.2-.5-.2-.7-.1-.2.1-.6.4-.7.5-.1.1-.3.3-.1.7 1.1 2.1 2.7 2.6 3.2 2.8l.2.1c.6 0 1.1.1 1.5.2m-1.3-.4v.2-.2m16.9 15.4c.5-.1.6-.2.6-.2l.4.2c.1.1.2.3.2.8s.2.7.5.7c.2 0 .3-.1.5-.3.2-.3.2-.6.3-.9v-.3c0-.1 0-.1.3-.4l.4-.1.1.1v.3c0 .1-.1.9.1 2 .1.6.2.9.2 1 0 .1.4.6.5.8.1.2.8 1.3 1.1 2.3.3 1 .3 1.2.3 1.2l.1.1c.4.3.6.5.8.5.2.1.8.1 1.2-.1.3-.2 2.6-1.6 5.1-4.9 1.1-1.4 2.5-4.1 2.6-8.4.1-2.4-.2-4.5-.3-5.1 0-.3-.1-.7.1-.9.2-.4.6-1.1.7-1.6.1-.5.3-.6.4-.5l.3.6c.1.1.6.2.7-.4.1-.6.3-1.9 1-3.8.3-.9 1.6-4.2 1.4-7.4-.2-2.2-1-2.6-1.2-2.6-.2 0-1-.1-1.4.9-.2.4.2.9.5 1.2.2.3.4.9.2 1.3-.3.4-.5.7-.7.9-.1.1-.4.2-.5-.3-.1-.5-.6-3.5-.8-4-.2-.5-.4-.5-.6-.4-.2 0-1.5.9-1.8 1.1-.3.2-.4.6-.5 1.1 0 .5-.3 3.8-.8 4.8s-.9 1.8-2.1 2.5h-.1c-.3.2-.8.3-1.1.4h-.5l-.1-.1.1-.2-.1-.1-.1-.1-.1-.1v-.2c0-.3.4-.6.5-.7.1-.2.3-.5.5-.9.1-.3.1-.8.1-.9 0-.3-.2-.7-.4-.8-.2-.2-.1-.4-.1-.5l.2-.2.3-.1c-.2-.1-.3-.3-.5-.5l-.1-.1c-.2-.2-.6-.3-.8-.3-.3 0-2.4.9-3.7.9-1.4 0-2-.1-3.4-.7-.1 0-.6 0-.4.3.1.2.2.4.5.8.2.2-.2.7-.4.9-.2.1-.6.5-.8.4-.3-.1-1-.5-1.7-2.4-.2-.5-1-.9-1.6-.7-.2 0-.4.1-.6.2 0 1.5 0 3 .1 3.6 0 .8.2 1.7.1 2.4-.2 1.1-.3 1.5-.3 1.9 0 .4 0 .8.1 1.1 0 .3.1.5.2.8.1.3.3.7.4.9 0 .1.2.4.2.6 0 .2.1.2.2.4.6.2 1.3.4 2.1.4 1.8.1 3.8-1.7 4.1-2.1.3-.4.1-1 .1-1.2 0-.1-.3-.5-.3-.8-.1-.2-.3-.6 0-.8.2-.2.5-.4.5-.5.1 0 1.4-.7 3.1.2.7.4 1 .6 1.2.8l1 .9c.1.1 1.6 1.4 2.3 1.9.7.4 1.2.9 1.5 1.4.3.5.5.9.3 1.7-.1.7-.8 1.3-.8 1.3.2 1.3.1 2.1 0 2.4-.1.4-.3 1.2-1 2-.4.4-.4 1.5-.4 1.8 0 .3-.1 1.3-.2 1.8s-.8 1.5-1.2.5c-.4-1-.4-2.5-.6-2.8-.2-.3-1-.6-1.3-.7-.3-.1-.5 0-.8.1-1.7.7-2.9 1.7-7.3 1.7-.7 0-1.2.3-1.7.4-.4.1-.8.5-1.1.8l.1.4c.3.2.8.3 1.4.4.4.1.6.5.7.8v.1l.6-.1c-.1-.5.7-.5 1.2-.6"/><path fill="#FFF" d="M93.4 102.8c-.6-5.5-.9-8-1-8.7v-.4c-.4-1.8-.8-3.7-1.3-5.7-.1 1.8-.4 4.7-1.3 8-.9 3.4-1.9 6.3-2.7 7.3-.3.4-.6.2-.5-.3.2-.5.9-2.6 1.5-6.2 1.1-6.6.5-9 .2-10.8-.3-1.8-1.2-2.5-1.4-2.6-.1-.1-.3-.2-.4.1-.6 1.9-1.7 3.9-4.1 6.7-2.2 2.5-4.8 4.2-5.1 4.5-.3.3-.2.5.3.3 1.5-.5 3.1-.7 4.1-.6 1 .1 1 .9 1.1 1.3 0 .4.2 1.8.4 3.2.3 1.7-1.1 1.8-1.7 1.8h-2.1c-.4 0-.4.2 0 .6 2.8 2.6 3.9 3.7 4.1 4.3l-.1.3c-.5.7-1.5.9-1.9.7-1.3-.5-1.7-.7-2.9-1.5-.7-.5-2.1-1.7-3.2-2.6l-.1-.1c1.8 3.1 2.4 6.7 2.5 7 0 .4.3.5.7.4h.3c5.2-.6 11.6-1.3 14.9-1.6h-.2c.1-1.7 0-3.6-.1-5.4m-11.5-1.4h-.4v.9h-.2v-.9h-.4v-.2h1v.2zm1.4.9h-.2v-.9l-.3.9h-.2l-.3-.9v.9h-.2v-1.1h.3l.3.8.3-.8h.3v1.1z"/><path fill="#222" d="M80.9 101.4h.4v.9h.2v-.9h.4v-.2h-1v.2m1.8.6l-.3-.8h-.3v1.1h.2v-.9l.3.9h.2l.3-.9v.9h.2v-1.1H83l-.3.8"/><path fill="#333" d="M125.4 70.2h-.1v.3h.3v-.3h-.2"/><path fill="#333" d="M125.9 70.1l-.4-.2-.4.2-.2.4.2.4.4.2.4-.2.2-.4-.2-.4m-.2.5v.2h-.1v-.1l-.1-.2h-.2v.3h-.1v-.7h.4l.1.2-.1.1h-.1l.2.2z"/><path fill="#333" d="M75 23.7c-1.3 0-3.7.1-3.8.1.7.2 1.2.3 1.5.4 2.5.8 3.7 1.4 5.2 2.2 1.1.6 2 1.2 2.5 1.5.7.5 2.6 1.9 4.4 4.2 3.3 4.3 4.2 8.6 4.4 9.8.2.9.7 1.3.9 1.4.1.1.3.1.5.6.7 2.2 0 5.6-.4 6.8-.4 1.1.1 1.7.5 2 1 .9 1.7 2.6 1.6 5.3-.1 2.5-1.2 6.2-2.1 8.3-.9 2.2-.5 3.7-.5 4.8.1 1.1-1 1.6-1.2 1.7-.3.2-.6.6-.6 1.3 0 2.5-.3 4.7-.4 5.3-.1.6 0 .8.1.9.1.1.6.5.8.7.4.3.6.6 1.1 1.1.7.8 1 1.3 1.5 1.5 2 .7 5.3 1.5 7 2.4.5.2.7.7 1.2.8.6.1 4.7.5 9.8.9 5.1.5 8.8 1.2 10.4 1.6 1.4.3 2.7.8 4.3 1.7.5.3 1.1.6 1.6 1 1.6-5 2.4-10.2 2.4-15.7-.3-29.1-23.7-52.6-52.7-52.6m27.5 55.7c-2.5 0-3.6.1-4.5-1.3-1.1-1.5-1.3-1.6-2.1-3 0 0-.2.6-.3 1.2-.3.7-.5 1.4-.6 1.7-.2.6.7.7.7.7l-.2.7h-5.1l.1-.4.1-.3h.2c.3 0 .9-.2 1.2-1.6.1-.3-.1.3 1.5-5.6.2-.9-.4-1-.7-1.1v-.1l.1-.5h4.8l-.2.6s-.7.1-.8.7l-.8 3v.1l4.1-3.1c.4-.4-.1-.7-.4-.7v-.1l.1-.5h5.1l-.2.6s-.3 0-.7.2c-.1.1-.3.2-.5.3l-.1.1-4 3.2s2.2 3.5 2.5 3.7c.3.3.7.7 1.3.7l-.2.7c0 .1-.2.1-.4.1zm9.4-3.4s-.2-.2-.5-.4c-.2-.1-.4-.1-.8-.1h-2s-.1.2-.1.5c-.2.7-.5 1.8-.5 1.8-.2.7.6.9.6.9l-.2.7h-4.3l2.2-7.9c.3-1-.7-1.1-.7-1.1v-.1l.1-.5h8.7l-.6 2.6h-.3l-.2-.4c-.2-.1-.4-.2-.7-.2h-2.9l-.1.5-.4 1.3h3.4l-.7 2.4zm12-3.4h-.3l-.2-.2c-.4-.4-1-.7-2-.7-1.3 0-2.4.4-3.1 1-.7.6-1 1.3-1 2.2 0 1.7 1.4 2.9 3.6 2.9.8 0 1.8-.2 2.6-.5l-.5 2c-.2 0-.4.1-.7.1-.8.1-1.7.2-2.7.2-4 0-5.8-2-5.8-4.2 0-1.5.8-2.9 2.2-4 1.4-1.1 3.4-1.7 5.9-1.7 1.1 0 2.1.2 2.7.4l-.7 2.5zm1.6-1.5l-.5-.2c-.1-.1-.2-.3-.2-.4l.2-.5.5-.2c.2 0 .3.1.5.2l.2.5c0 .2-.1.3-.2.4-.2.2-.4.2-.5.2z"/><path fill="#FFF" d="M115.9 71.5c-1.4 1.1-2.2 2.5-2.2 4 0 2.1 1.7 4.2 5.8 4.2 1 0 1.9-.1 2.7-.2.2 0 .5-.1.7-.1l.5-2c-.8.3-1.8.5-2.6.5-2.1 0-3.6-1.3-3.6-2.9 0-.9.4-1.7 1-2.2.7-.6 1.7-1 3.1-1 1 0 1.6.3 2 .7l.2.2h.3l.7-2.4c-.7-.2-1.7-.4-2.7-.4-2.5-.2-4.5.5-5.9 1.6m-3.3.3c.3 0 .5.1.7.2l.2.4h.3l.6-2.6h-8.7l-.1.5v.1s1 .1.7 1.1l-2.2 7.9h4.3l.2-.7s-.8-.2-.6-.9c0 0 .3-1.2.5-1.8.1-.3.1-.5.1-.5h2c.3 0 .6.1.8.1.4.2.5.4.5.4l.6-2.3h-3.4l.4-1.3.1-.5 3-.1M102 78c-.3-.3-2.5-3.7-2.5-3.7l4-3.2.1-.1c.2-.1.3-.3.5-.3.4-.2.7-.2.7-.2l.2-.6h-5.1l-.1.5v.1c.3 0 .8.3.4.7l-4.1 3.1v-.1l.8-3c.2-.6.8-.7.8-.7l.2-.6h-4.8l-.1.5v.1c.2.1.9.2.7 1.1-1.6 5.8-1.4 5.3-1.5 5.6-.4 1.4-.9 1.6-1.2 1.6h-.2l-.2.2-.1.4h5.1l.2-.7s-.8-.2-.7-.7c.1-.3.3-1 .5-1.7.2-.6.3-1.2.3-1.2.9 1.4 1.1 1.6 2.1 3 1 1.3 2 1.3 4.5 1.3h.7l.2-.7c-.7.1-1.1-.4-1.4-.7m23.9-8c-.1-.1-.3-.2-.5-.2l-.4.2-.2.5c0 .2.1.3.2.4l.5.2c.2 0 .3-.1.5-.2.1-.1.2-.3.2-.4l-.3-.5m0 .9l-.4.2-.4-.2-.2-.4.2-.4.4-.2.4.2.2.4-.2.4z"/><path fill="#FFF" d="M125.8 70.3l-.1-.2h-.4v.7h.1v-.3h.2l.1.2v.1h.1v-.2l-.1-.1h.1v-.2m-.2.2h-.2v-.3h.2v.3z"/></svg>