<svg xmlns="http://www.w3.org/2000/svg" width="120" height="71.884" viewBox="0 0 120 71.884">
  <g id="Group_267" data-name="Group 267" transform="translate(-197.773 -120.44)">
    <path id="Rectangle_97" data-name="Rectangle 97" d="M1.888,0H8.64a1.889,1.889,0,0,1,1.889,1.889V22.8a1.888,1.888,0,0,1-1.888,1.888H1.889A1.889,1.889,0,0,1,0,22.8V1.888A1.888,1.888,0,0,1,1.888,0Z" transform="translate(198.681 135.688)" fill="#fdbd00"/>
    <path id="Path_365" data-name="Path 365" d="M210.117,126.612a6.172,6.172,0,1,1-6.172-6.172A6.17,6.17,0,0,1,210.117,126.612Z" transform="translate(0 0)" fill="#fdbd00"/>
    <path id="Path_366" data-name="Path 366" d="M261.8,126.612a6.172,6.172,0,1,1-6.172-6.172A6.171,6.171,0,0,1,261.8,126.612Z" transform="translate(-11.926 0)" fill="#fdbd00"/>
    <path id="Path_367" data-name="Path 367" d="M236.239,135.543A14.159,14.159,0,1,0,250.4,149.7,14.16,14.16,0,0,0,236.239,135.543Zm0,18.153a3.993,3.993,0,1,1,3.994-3.994A3.994,3.994,0,0,1,236.239,153.7Z" transform="translate(-5.609 -3.485)" fill="#fdbd00"/>
    <path id="Path_368" data-name="Path 368" d="M331.119,120.44A14.159,14.159,0,1,0,345.278,134.6,14.159,14.159,0,0,0,331.119,120.44Zm0,18.152a3.993,3.993,0,1,1,3.994-3.993A3.992,3.992,0,0,1,331.119,138.592Z" transform="translate(-27.505 0)" fill="#fdbd00"/>
    <g id="Group_265" data-name="Group 265" transform="translate(255.681 120.44)">
      <path id="Path_369" data-name="Path 369" d="M273.053,158.924a1.456,1.456,0,0,0,1.452,1.452h7.625a1.455,1.455,0,0,0,1.451-1.452V148.288A14.161,14.161,0,1,0,273.053,134.6Zm14.159-20.332A3.993,3.993,0,1,1,291.2,134.6,3.994,3.994,0,0,1,287.211,138.592Z" transform="translate(-273.053 -120.44)" fill="#fdbd00"/>
    </g>
    <path id="Path_370" data-name="Path 370" d="M246.251,177.725a14.192,14.192,0,0,0-2.9-2.235l5.7-5.705a1.454,1.454,0,0,0,0-2.054l-5.39-5.392a1.456,1.456,0,0,0-2.053,0L227.254,176.7a1.43,1.43,0,0,0-.213.272q-.418.359-.814.755a14.159,14.159,0,1,0,20.024,0Zm-7.188,12.835a3.994,3.994,0,1,1,0-5.648A3.993,3.993,0,0,1,239.062,190.56Z" transform="translate(-5.609 -9.571)" fill="#fdbd00"/>
  </g>
</svg>
